<mxfile host="Electron" modified="2024-03-23T09:53:19.319Z" agent="Mozilla/5.0 (X11; Linux x86_64) AppleWebKit/537.36 (KHTML, like Gecko) draw.io/23.1.5 Chrome/120.0.6099.109 Electron/28.1.0 Safari/537.36" etag="HJR6zxcTHPypeqo73DO4" version="23.1.5" type="device" pages="6">
  <diagram id="qTw9XtvbrS9ODNZswi4A" name="GOAD">
    <mxGraphModel dx="1820" dy="1229" grid="0" gridSize="10" guides="0" tooltips="1" connect="1" arrows="1" fold="1" page="0" pageScale="1" pageWidth="827" pageHeight="1169" math="0" shadow="0">
      <root>
        <mxCell id="0" />
        <mxCell id="1" parent="0" />
        <mxCell id="b0sqUQxNu4gCeeOOgRk0-4" value="&lt;b&gt;&lt;font style=&quot;font-size: 15px&quot;&gt;north.sevenkingdoms.local&lt;/font&gt;&lt;/b&gt;" style="shape=trapezoid;perimeter=trapezoidPerimeter;whiteSpace=wrap;html=1;fixedSize=1;size=240;verticalAlign=top;labelPosition=center;verticalLabelPosition=bottom;align=center;" parent="1" vertex="1">
          <mxGeometry x="25" y="-20" width="480" height="480" as="geometry" />
        </mxCell>
        <mxCell id="b0sqUQxNu4gCeeOOgRk0-1" value="DC02 - winterfell&lt;br&gt;192.168.56.11&lt;br&gt;Windows Server 2019&lt;br&gt;rpc user enum" style="verticalLabelPosition=bottom;aspect=fixed;html=1;verticalAlign=top;strokeColor=none;align=center;outlineConnect=0;shape=mxgraph.citrix.directory_server;" parent="1" vertex="1">
          <mxGeometry x="226.75" y="70" width="65" height="88.5" as="geometry" />
        </mxCell>
        <mxCell id="b0sqUQxNu4gCeeOOgRk0-2" value="SRV02 -&amp;nbsp;castelblack&lt;br&gt;192.168.56.22&lt;br&gt;Windows Server 2019 - &lt;b&gt;no defender&lt;br&gt;&lt;/b&gt;IIS + upload ASP&lt;br&gt;MSSQL + execute as + trusted link" style="verticalLabelPosition=bottom;aspect=fixed;html=1;verticalAlign=top;strokeColor=none;align=center;outlineConnect=0;shape=mxgraph.citrix.web_server;" parent="1" vertex="1">
          <mxGeometry x="226.75" y="279.25" width="76.5" height="90" as="geometry" />
        </mxCell>
        <mxCell id="b0sqUQxNu4gCeeOOgRk0-5" value="&lt;b&gt;&lt;font style=&quot;font-size: 15px&quot;&gt;sevenkingdoms.local&lt;/font&gt;&lt;/b&gt;" style="shape=trapezoid;perimeter=trapezoidPerimeter;whiteSpace=wrap;html=1;fixedSize=1;size=240;verticalAlign=top;labelPosition=center;verticalLabelPosition=bottom;align=center;" parent="1" vertex="1">
          <mxGeometry x="470" y="-310" width="440" height="370" as="geometry" />
        </mxCell>
        <mxCell id="b0sqUQxNu4gCeeOOgRk0-6" value="DC01 - kingslanding&lt;br&gt;192.168.56.10&lt;br&gt;Windows Server 2019" style="verticalLabelPosition=bottom;aspect=fixed;html=1;verticalAlign=top;strokeColor=none;align=center;outlineConnect=0;shape=mxgraph.citrix.directory_server;" parent="1" vertex="1">
          <mxGeometry x="650" y="-140" width="65" height="88.5" as="geometry" />
        </mxCell>
        <mxCell id="b0sqUQxNu4gCeeOOgRk0-8" value="&lt;b&gt;&lt;font style=&quot;font-size: 15px&quot;&gt;essos.local&lt;/font&gt;&lt;/b&gt;" style="shape=trapezoid;perimeter=trapezoidPerimeter;whiteSpace=wrap;html=1;fixedSize=1;size=240;verticalAlign=top;labelPosition=center;verticalLabelPosition=bottom;align=center;" parent="1" vertex="1">
          <mxGeometry x="870" y="-30" width="460" height="490" as="geometry" />
        </mxCell>
        <mxCell id="b0sqUQxNu4gCeeOOgRk0-9" value="DC03 - meereen&lt;br&gt;192.168.56.12&lt;br&gt;Windows server 2016&lt;br&gt;ntlm downgrade" style="verticalLabelPosition=bottom;aspect=fixed;html=1;verticalAlign=top;strokeColor=none;align=center;outlineConnect=0;shape=mxgraph.citrix.directory_server;" parent="1" vertex="1">
          <mxGeometry x="1062.5" y="80" width="65" height="88.5" as="geometry" />
        </mxCell>
        <mxCell id="pKTznj5A3OpvZ-mkPPHz-1" value="SRV03 -&amp;nbsp;braavos&lt;br&gt;192.168.56.23&lt;br&gt;Windows server 2016&lt;br&gt;&lt;b&gt;ADCS&lt;/b&gt; - ESSOS-CA&lt;br&gt;MSSQL + execute as + trusted link" style="verticalLabelPosition=bottom;aspect=fixed;html=1;verticalAlign=top;strokeColor=none;align=center;outlineConnect=0;shape=mxgraph.citrix.web_server;" parent="1" vertex="1">
          <mxGeometry x="1056.75" y="260" width="76.5" height="90" as="geometry" />
        </mxCell>
        <mxCell id="2JxuEqEunWpAaPwjUKQf-1" value="" style="endArrow=classic;startArrow=classic;html=1;exitX=0.689;exitY=0.365;exitDx=0;exitDy=0;exitPerimeter=0;entryX=0.25;entryY=1;entryDx=0;entryDy=0;" parent="1" source="b0sqUQxNu4gCeeOOgRk0-4" target="b0sqUQxNu4gCeeOOgRk0-5" edge="1">
          <mxGeometry width="50" height="50" relative="1" as="geometry">
            <mxPoint x="660" y="140" as="sourcePoint" />
            <mxPoint x="710" y="90" as="targetPoint" />
          </mxGeometry>
        </mxCell>
        <mxCell id="2JxuEqEunWpAaPwjUKQf-2" value="trust" style="edgeLabel;html=1;align=center;verticalAlign=middle;resizable=0;points=[];" parent="2JxuEqEunWpAaPwjUKQf-1" vertex="1" connectable="0">
          <mxGeometry x="0.1514" relative="1" as="geometry">
            <mxPoint y="-1" as="offset" />
          </mxGeometry>
        </mxCell>
        <mxCell id="2JxuEqEunWpAaPwjUKQf-3" value="trust" style="endArrow=classic;startArrow=classic;html=1;entryX=0.82;entryY=1.003;entryDx=0;entryDy=0;entryPerimeter=0;" parent="1" source="b0sqUQxNu4gCeeOOgRk0-8" target="b0sqUQxNu4gCeeOOgRk0-5" edge="1">
          <mxGeometry width="50" height="50" relative="1" as="geometry">
            <mxPoint x="660" y="140" as="sourcePoint" />
            <mxPoint x="710" y="90" as="targetPoint" />
          </mxGeometry>
        </mxCell>
        <mxCell id="2JxuEqEunWpAaPwjUKQf-5" value="" style="verticalLabelPosition=bottom;aspect=fixed;html=1;verticalAlign=top;strokeColor=none;align=center;outlineConnect=0;shape=mxgraph.citrix.database;" parent="1" vertex="1">
          <mxGeometry x="280" y="270" width="42.5" height="50" as="geometry" />
        </mxCell>
        <mxCell id="2JxuEqEunWpAaPwjUKQf-6" value="" style="verticalLabelPosition=bottom;aspect=fixed;html=1;verticalAlign=top;strokeColor=none;align=center;outlineConnect=0;shape=mxgraph.citrix.database;" parent="1" vertex="1">
          <mxGeometry x="1030" y="270" width="42.5" height="50" as="geometry" />
        </mxCell>
        <mxCell id="2JxuEqEunWpAaPwjUKQf-7" value="" style="endArrow=classic;startArrow=classic;html=1;" parent="1" source="2JxuEqEunWpAaPwjUKQf-5" target="2JxuEqEunWpAaPwjUKQf-6" edge="1">
          <mxGeometry width="50" height="50" relative="1" as="geometry">
            <mxPoint x="690" y="50" as="sourcePoint" />
            <mxPoint x="740" as="targetPoint" />
          </mxGeometry>
        </mxCell>
        <mxCell id="2JxuEqEunWpAaPwjUKQf-8" value="MSSQL trusted link" style="edgeLabel;html=1;align=center;verticalAlign=middle;resizable=0;points=[];" parent="2JxuEqEunWpAaPwjUKQf-7" vertex="1" connectable="0">
          <mxGeometry x="0.0351" y="-2" relative="1" as="geometry">
            <mxPoint as="offset" />
          </mxGeometry>
        </mxCell>
        <mxCell id="2JxuEqEunWpAaPwjUKQf-11" style="rounded=0;orthogonalLoop=1;jettySize=auto;html=1;fillColor=#dae8fc;strokeColor=#6c8ebf;" parent="1" source="2JxuEqEunWpAaPwjUKQf-10" target="b0sqUQxNu4gCeeOOgRk0-1" edge="1">
          <mxGeometry relative="1" as="geometry" />
        </mxCell>
        <mxCell id="2JxuEqEunWpAaPwjUKQf-13" value="RDP" style="edgeLabel;html=1;align=center;verticalAlign=middle;resizable=0;points=[];" parent="2JxuEqEunWpAaPwjUKQf-11" vertex="1" connectable="0">
          <mxGeometry x="0.151" y="-1" relative="1" as="geometry">
            <mxPoint as="offset" />
          </mxGeometry>
        </mxCell>
        <mxCell id="2JxuEqEunWpAaPwjUKQf-12" style="edgeStyle=none;rounded=0;orthogonalLoop=1;jettySize=auto;html=1;fillColor=#dae8fc;strokeColor=#6c8ebf;" parent="1" source="2JxuEqEunWpAaPwjUKQf-10" target="b0sqUQxNu4gCeeOOgRk0-2" edge="1">
          <mxGeometry relative="1" as="geometry" />
        </mxCell>
        <mxCell id="2JxuEqEunWpAaPwjUKQf-14" value="RDP" style="edgeLabel;html=1;align=center;verticalAlign=middle;resizable=0;points=[];" parent="2JxuEqEunWpAaPwjUKQf-12" vertex="1" connectable="0">
          <mxGeometry x="0.1241" y="2" relative="1" as="geometry">
            <mxPoint as="offset" />
          </mxGeometry>
        </mxCell>
        <mxCell id="2JxuEqEunWpAaPwjUKQf-10" value="Starks" style="pointerEvents=1;shadow=0;dashed=0;html=1;strokeColor=none;labelPosition=center;verticalLabelPosition=bottom;verticalAlign=top;align=center;fillColor=#505050;shape=mxgraph.mscae.intune.user_group" parent="1" vertex="1">
          <mxGeometry x="-110" y="196.5" width="50" height="37" as="geometry" />
        </mxCell>
        <mxCell id="2JxuEqEunWpAaPwjUKQf-17" style="edgeStyle=none;rounded=0;orthogonalLoop=1;jettySize=auto;html=1;fillColor=#dae8fc;strokeColor=#6c8ebf;" parent="1" source="2JxuEqEunWpAaPwjUKQf-16" target="b0sqUQxNu4gCeeOOgRk0-2" edge="1">
          <mxGeometry relative="1" as="geometry" />
        </mxCell>
        <mxCell id="2JxuEqEunWpAaPwjUKQf-18" value="RDP" style="edgeLabel;html=1;align=center;verticalAlign=middle;resizable=0;points=[];" parent="2JxuEqEunWpAaPwjUKQf-17" vertex="1" connectable="0">
          <mxGeometry x="-0.2934" y="-3" relative="1" as="geometry">
            <mxPoint as="offset" />
          </mxGeometry>
        </mxCell>
        <mxCell id="2JxuEqEunWpAaPwjUKQf-16" value="Night Watch" style="pointerEvents=1;shadow=0;dashed=0;html=1;strokeColor=none;labelPosition=center;verticalLabelPosition=bottom;verticalAlign=top;align=center;fillColor=#505050;shape=mxgraph.mscae.intune.user_group" parent="1" vertex="1">
          <mxGeometry x="-120" y="305.75" width="50" height="37" as="geometry" />
        </mxCell>
        <mxCell id="2JxuEqEunWpAaPwjUKQf-21" style="edgeStyle=none;rounded=0;orthogonalLoop=1;jettySize=auto;html=1;fillColor=#dae8fc;strokeColor=#6c8ebf;" parent="1" source="2JxuEqEunWpAaPwjUKQf-20" target="b0sqUQxNu4gCeeOOgRk0-6" edge="1">
          <mxGeometry relative="1" as="geometry" />
        </mxCell>
        <mxCell id="2JxuEqEunWpAaPwjUKQf-22" value="RDP" style="edgeLabel;html=1;align=center;verticalAlign=middle;resizable=0;points=[];" parent="2JxuEqEunWpAaPwjUKQf-21" vertex="1" connectable="0">
          <mxGeometry x="-0.5001" y="-1" relative="1" as="geometry">
            <mxPoint as="offset" />
          </mxGeometry>
        </mxCell>
        <mxCell id="2JxuEqEunWpAaPwjUKQf-20" value="Small Council" style="pointerEvents=1;shadow=0;dashed=0;html=1;strokeColor=none;labelPosition=center;verticalLabelPosition=bottom;verticalAlign=top;align=center;fillColor=#505050;shape=mxgraph.mscae.intune.user_group" parent="1" vertex="1">
          <mxGeometry x="340" y="-143.5" width="50" height="37" as="geometry" />
        </mxCell>
        <mxCell id="2JxuEqEunWpAaPwjUKQf-26" value="RDP" style="edgeStyle=none;rounded=0;orthogonalLoop=1;jettySize=auto;html=1;fillColor=#dae8fc;strokeColor=#6c8ebf;" parent="1" source="2JxuEqEunWpAaPwjUKQf-23" target="b0sqUQxNu4gCeeOOgRk0-9" edge="1">
          <mxGeometry relative="1" as="geometry" />
        </mxCell>
        <mxCell id="2JxuEqEunWpAaPwjUKQf-23" value="Targaryen" style="pointerEvents=1;shadow=0;dashed=0;html=1;strokeColor=none;labelPosition=center;verticalLabelPosition=bottom;verticalAlign=top;align=center;fillColor=#505050;shape=mxgraph.mscae.intune.user_group" parent="1" vertex="1">
          <mxGeometry x="1310" y="70" width="50" height="37" as="geometry" />
        </mxCell>
        <mxCell id="2JxuEqEunWpAaPwjUKQf-25" value="RDP" style="edgeStyle=none;rounded=0;orthogonalLoop=1;jettySize=auto;html=1;fillColor=#dae8fc;strokeColor=#6c8ebf;" parent="1" source="2JxuEqEunWpAaPwjUKQf-24" target="pKTznj5A3OpvZ-mkPPHz-1" edge="1">
          <mxGeometry relative="1" as="geometry" />
        </mxCell>
        <mxCell id="2JxuEqEunWpAaPwjUKQf-24" value="Dothraki" style="pointerEvents=1;shadow=0;dashed=0;html=1;strokeColor=none;labelPosition=center;verticalLabelPosition=bottom;verticalAlign=top;align=center;fillColor=#505050;shape=mxgraph.mscae.intune.user_group" parent="1" vertex="1">
          <mxGeometry x="1360" y="270" width="50" height="37" as="geometry" />
        </mxCell>
        <mxCell id="2JxuEqEunWpAaPwjUKQf-30" value="admin" style="edgeStyle=none;rounded=0;orthogonalLoop=1;jettySize=auto;html=1;fillColor=#e51400;strokeColor=#B20000;" parent="1" source="2JxuEqEunWpAaPwjUKQf-27" target="b0sqUQxNu4gCeeOOgRk0-6" edge="1">
          <mxGeometry relative="1" as="geometry" />
        </mxCell>
        <mxCell id="2JxuEqEunWpAaPwjUKQf-27" value="&lt;div style=&quot;font-family: &amp;#34;droid sans mono&amp;#34; , monospace , monospace ; font-size: 13px ; line-height: 18px&quot;&gt;&lt;span style=&quot;background-color: rgb(255 , 255 , 255)&quot;&gt;&lt;font color=&quot;#000000&quot;&gt;sevenkingdoms\robert.baratheon&lt;br&gt;&lt;b&gt;domain admin&lt;/b&gt;&lt;/font&gt;&lt;/span&gt;&lt;/div&gt;" style="outlineConnect=0;dashed=0;verticalLabelPosition=bottom;verticalAlign=top;align=center;html=1;fontSize=12;fontStyle=0;aspect=fixed;pointerEvents=1;shape=mxgraph.aws4.user;fontColor=#ffffff;fillColor=#000000;" parent="1" vertex="1">
          <mxGeometry x="450" y="-370" width="40" height="40" as="geometry" />
        </mxCell>
        <mxCell id="2JxuEqEunWpAaPwjUKQf-29" value="admin" style="edgeStyle=none;rounded=0;orthogonalLoop=1;jettySize=auto;html=1;fillColor=#e51400;strokeColor=#B20000;" parent="1" source="2JxuEqEunWpAaPwjUKQf-28" target="b0sqUQxNu4gCeeOOgRk0-6" edge="1">
          <mxGeometry relative="1" as="geometry" />
        </mxCell>
        <mxCell id="2JxuEqEunWpAaPwjUKQf-28" value="&lt;div style=&quot;font-family: &amp;#34;droid sans mono&amp;#34; , monospace , monospace ; font-size: 13px ; line-height: 18px&quot;&gt;&lt;/div&gt;&lt;font color=&quot;#000000&quot; face=&quot;droid sans mono, monospace, monospace&quot;&gt;&lt;span style=&quot;font-size: 13px&quot;&gt;&lt;span style=&quot;background-color: rgb(255 , 255 , 255)&quot;&gt;sevenkingdoms\&lt;/span&gt;cersei.lannister&lt;br&gt;&lt;b&gt;domain admin&lt;/b&gt;&lt;br&gt;&lt;/span&gt;&lt;/font&gt;" style="outlineConnect=0;dashed=0;verticalLabelPosition=bottom;verticalAlign=top;align=center;html=1;fontSize=12;fontStyle=0;aspect=fixed;pointerEvents=1;shape=mxgraph.aws4.user;fontColor=#ffffff;fillColor=#000000;" parent="1" vertex="1">
          <mxGeometry x="322.5" y="-260" width="40" height="40" as="geometry" />
        </mxCell>
        <mxCell id="48Ioop5OCFuu_ukln9n--5" value="admin" style="rounded=0;orthogonalLoop=1;jettySize=auto;html=1;fillColor=#f8cecc;strokeColor=#b85450;" parent="1" source="2JxuEqEunWpAaPwjUKQf-31" target="b0sqUQxNu4gCeeOOgRk0-1" edge="1">
          <mxGeometry relative="1" as="geometry" />
        </mxCell>
        <mxCell id="48Ioop5OCFuu_ukln9n--7" value="" style="group" parent="1" vertex="1" connectable="0">
          <mxGeometry x="-25" y="-180" width="50" height="51.5" as="geometry" />
        </mxCell>
        <mxCell id="2JxuEqEunWpAaPwjUKQf-31" value="&lt;div style=&quot;font-family: &amp;#34;droid sans mono&amp;#34; , monospace , monospace ; font-size: 13px ; line-height: 18px&quot;&gt;&lt;/div&gt;&lt;font color=&quot;#000000&quot; face=&quot;droid sans mono, monospace, monospace&quot;&gt;&lt;span style=&quot;font-size: 13px ; background-color: rgb(255 , 255 , 255)&quot;&gt;north\eddard.stark&lt;br&gt;bot 5min (LLMNR query)&lt;br&gt;&lt;b&gt;domain admin&lt;/b&gt;&lt;br&gt;&lt;/span&gt;&lt;/font&gt;" style="outlineConnect=0;dashed=0;verticalLabelPosition=bottom;verticalAlign=top;align=center;html=1;fontSize=12;fontStyle=0;aspect=fixed;pointerEvents=1;shape=mxgraph.aws4.user;fontColor=#ffffff;fillColor=#000000;" parent="48Ioop5OCFuu_ukln9n--7" vertex="1">
          <mxGeometry width="40" height="40" as="geometry" />
        </mxCell>
        <mxCell id="48Ioop5OCFuu_ukln9n--2" value="" style="verticalLabelPosition=bottom;html=1;verticalAlign=top;align=center;strokeColor=none;fillColor=#00BEF2;shape=mxgraph.azure.scheduler;pointerEvents=1;" parent="48Ioop5OCFuu_ukln9n--7" vertex="1">
          <mxGeometry x="30" y="31.5" width="20" height="20" as="geometry" />
        </mxCell>
        <mxCell id="48Ioop5OCFuu_ukln9n--8" value="" style="group" parent="1" vertex="1" connectable="0">
          <mxGeometry x="-230" y="11.5" width="50" height="48.5" as="geometry" />
        </mxCell>
        <mxCell id="48Ioop5OCFuu_ukln9n--1" value="&lt;div style=&quot;font-family: &amp;#34;droid sans mono&amp;#34; , monospace , monospace ; font-size: 13px ; line-height: 18px&quot;&gt;&lt;/div&gt;&lt;font color=&quot;#000000&quot; face=&quot;droid sans mono, monospace, monospace&quot;&gt;&lt;span style=&quot;font-size: 13px ; background-color: rgb(255 , 255 , 255)&quot;&gt;north\robb.stark&lt;br&gt;bot 3min (LLMNR query)&lt;br&gt;&lt;/span&gt;&lt;/font&gt;" style="outlineConnect=0;dashed=0;verticalLabelPosition=bottom;verticalAlign=top;align=center;html=1;fontSize=12;fontStyle=0;aspect=fixed;pointerEvents=1;shape=mxgraph.aws4.user;fontColor=#ffffff;fillColor=#000000;" parent="48Ioop5OCFuu_ukln9n--8" vertex="1">
          <mxGeometry width="40" height="40" as="geometry" />
        </mxCell>
        <mxCell id="48Ioop5OCFuu_ukln9n--4" value="" style="verticalLabelPosition=bottom;html=1;verticalAlign=top;align=center;strokeColor=none;fillColor=#00BEF2;shape=mxgraph.azure.scheduler;pointerEvents=1;" parent="48Ioop5OCFuu_ukln9n--8" vertex="1">
          <mxGeometry x="30" y="28.5" width="20" height="20" as="geometry" />
        </mxCell>
        <mxCell id="48Ioop5OCFuu_ukln9n--9" value="admin" style="edgeStyle=none;rounded=0;orthogonalLoop=1;jettySize=auto;html=1;fillColor=#f8cecc;strokeColor=#b85450;" parent="1" source="48Ioop5OCFuu_ukln9n--1" target="b0sqUQxNu4gCeeOOgRk0-1" edge="1">
          <mxGeometry relative="1" as="geometry" />
        </mxCell>
        <mxCell id="48Ioop5OCFuu_ukln9n--13" value="admin" style="edgeStyle=none;rounded=0;orthogonalLoop=1;jettySize=auto;html=1;fillColor=#f8cecc;strokeColor=#b85450;" parent="1" source="48Ioop5OCFuu_ukln9n--11" target="b0sqUQxNu4gCeeOOgRk0-1" edge="1">
          <mxGeometry relative="1" as="geometry" />
        </mxCell>
        <mxCell id="48Ioop5OCFuu_ukln9n--11" value="&lt;div style=&quot;font-family: &amp;#34;droid sans mono&amp;#34; , monospace , monospace ; font-size: 13px ; line-height: 18px&quot;&gt;&lt;/div&gt;&lt;font color=&quot;#000000&quot; face=&quot;droid sans mono, monospace, monospace&quot;&gt;&lt;span style=&quot;font-size: 13px ; background-color: rgb(255 , 255 , 255)&quot;&gt;north\catelyn.stark&lt;br&gt;&lt;/span&gt;&lt;/font&gt;" style="outlineConnect=0;dashed=0;verticalLabelPosition=bottom;verticalAlign=top;align=center;html=1;fontSize=12;fontStyle=0;aspect=fixed;pointerEvents=1;shape=mxgraph.aws4.user;fontColor=#ffffff;fillColor=#000000;" parent="1" vertex="1">
          <mxGeometry x="-220" y="-128.5" width="40" height="40" as="geometry" />
        </mxCell>
        <mxCell id="48Ioop5OCFuu_ukln9n--15" value="admin" style="edgeStyle=none;rounded=0;orthogonalLoop=1;jettySize=auto;html=1;fillColor=#f8cecc;strokeColor=#b85450;" parent="1" source="48Ioop5OCFuu_ukln9n--14" target="b0sqUQxNu4gCeeOOgRk0-2" edge="1">
          <mxGeometry relative="1" as="geometry" />
        </mxCell>
        <mxCell id="48Ioop5OCFuu_ukln9n--14" value="&lt;div style=&quot;font-family: &amp;#34;droid sans mono&amp;#34; , monospace , monospace ; font-size: 13px ; line-height: 18px&quot;&gt;&lt;/div&gt;&lt;font color=&quot;#000000&quot; face=&quot;droid sans mono, monospace, monospace&quot;&gt;&lt;span style=&quot;font-size: 13px ; background-color: rgb(255 , 255 , 255)&quot;&gt;north\jeor.mormont&lt;br&gt;&lt;/span&gt;&lt;/font&gt;" style="outlineConnect=0;dashed=0;verticalLabelPosition=bottom;verticalAlign=top;align=center;html=1;fontSize=12;fontStyle=0;aspect=fixed;pointerEvents=1;shape=mxgraph.aws4.user;fontColor=#ffffff;fillColor=#000000;" parent="1" vertex="1">
          <mxGeometry x="-260" y="430" width="40" height="40" as="geometry" />
        </mxCell>
        <mxCell id="48Ioop5OCFuu_ukln9n--17" value="mssql_admin&lt;br&gt;mapping_mssql_trust" style="edgeStyle=none;rounded=0;orthogonalLoop=1;jettySize=auto;html=1;fillColor=#e1d5e7;strokeColor=#9673a6;" parent="1" source="48Ioop5OCFuu_ukln9n--16" target="b0sqUQxNu4gCeeOOgRk0-2" edge="1">
          <mxGeometry x="-0.3579" y="-4" relative="1" as="geometry">
            <mxPoint x="-1" as="offset" />
          </mxGeometry>
        </mxCell>
        <mxCell id="48Ioop5OCFuu_ukln9n--16" value="&lt;div style=&quot;font-family: &amp;#34;droid sans mono&amp;#34; , monospace , monospace ; font-size: 13px ; line-height: 18px&quot;&gt;&lt;/div&gt;&lt;font color=&quot;#000000&quot; face=&quot;droid sans mono, monospace, monospace&quot;&gt;&lt;span style=&quot;font-size: 13px ; background-color: rgb(255 , 255 , 255)&quot;&gt;north\jon.snow&lt;br&gt;&lt;/span&gt;&lt;/font&gt;" style="outlineConnect=0;dashed=0;verticalLabelPosition=bottom;verticalAlign=top;align=center;html=1;fontSize=12;fontStyle=0;aspect=fixed;pointerEvents=1;shape=mxgraph.aws4.user;fontColor=#ffffff;fillColor=#000000;" parent="1" vertex="1">
          <mxGeometry x="-150" y="545" width="40" height="40" as="geometry" />
        </mxCell>
        <mxCell id="48Ioop5OCFuu_ukln9n--19" value="admin&lt;br&gt;mssql_admin&lt;br&gt;ECS4" style="edgeStyle=none;rounded=0;orthogonalLoop=1;jettySize=auto;html=1;fillColor=#f8cecc;strokeColor=#b85450;" parent="1" source="48Ioop5OCFuu_ukln9n--18" target="pKTznj5A3OpvZ-mkPPHz-1" edge="1">
          <mxGeometry x="-0.3307" y="2" relative="1" as="geometry">
            <mxPoint as="offset" />
          </mxGeometry>
        </mxCell>
        <mxCell id="48Ioop5OCFuu_ukln9n--18" value="&lt;div style=&quot;font-family: &amp;#34;droid sans mono&amp;#34; , monospace , monospace ; font-size: 13px ; line-height: 18px&quot;&gt;&lt;/div&gt;&lt;font color=&quot;#000000&quot; face=&quot;droid sans mono, monospace, monospace&quot;&gt;&lt;span style=&quot;font-size: 13px ; background-color: rgb(255 , 255 , 255)&quot;&gt;essos\khal.drogo&lt;br&gt;&lt;/span&gt;&lt;/font&gt;" style="outlineConnect=0;dashed=0;verticalLabelPosition=bottom;verticalAlign=top;align=center;html=1;fontSize=12;fontStyle=0;aspect=fixed;pointerEvents=1;shape=mxgraph.aws4.user;fontColor=#ffffff;fillColor=#000000;" parent="1" vertex="1">
          <mxGeometry x="1460" y="410" width="40" height="40" as="geometry" />
        </mxCell>
        <mxCell id="48Ioop5OCFuu_ukln9n--21" value="admin" style="edgeStyle=none;rounded=0;orthogonalLoop=1;jettySize=auto;html=1;fillColor=#f8cecc;strokeColor=#b85450;" parent="1" source="48Ioop5OCFuu_ukln9n--20" target="b0sqUQxNu4gCeeOOgRk0-9" edge="1">
          <mxGeometry relative="1" as="geometry" />
        </mxCell>
        <mxCell id="48Ioop5OCFuu_ukln9n--20" value="&lt;div style=&quot;font-family: &amp;#34;droid sans mono&amp;#34; , monospace , monospace ; font-size: 13px ; line-height: 18px&quot;&gt;&lt;/div&gt;&lt;font color=&quot;#000000&quot; face=&quot;droid sans mono, monospace, monospace&quot;&gt;&lt;span style=&quot;font-size: 13px ; background-color: rgb(255 , 255 , 255)&quot;&gt;essos\daenerys.targaryen&lt;br&gt;&lt;b&gt;domain admin&lt;/b&gt;&lt;br&gt;&lt;/span&gt;&lt;/font&gt;" style="outlineConnect=0;dashed=0;verticalLabelPosition=bottom;verticalAlign=top;align=center;html=1;fontSize=12;fontStyle=0;aspect=fixed;pointerEvents=1;shape=mxgraph.aws4.user;fontColor=#ffffff;fillColor=#000000;" parent="1" vertex="1">
          <mxGeometry x="1380" y="-80" width="40" height="40" as="geometry" />
        </mxCell>
        <mxCell id="48Ioop5OCFuu_ukln9n--23" value="mapping_mssql_trust" style="edgeStyle=none;rounded=0;orthogonalLoop=1;jettySize=auto;html=1;fillColor=#ffe6cc;strokeColor=#d79b00;" parent="1" source="48Ioop5OCFuu_ukln9n--22" target="pKTznj5A3OpvZ-mkPPHz-1" edge="1">
          <mxGeometry x="-0.4062" y="6" relative="1" as="geometry">
            <mxPoint as="offset" />
          </mxGeometry>
        </mxCell>
        <mxCell id="48Ioop5OCFuu_ukln9n--22" value="&lt;div style=&quot;font-family: &amp;#34;droid sans mono&amp;#34; , monospace , monospace ; font-size: 13px ; line-height: 18px&quot;&gt;&lt;/div&gt;&lt;font color=&quot;#000000&quot; face=&quot;droid sans mono, monospace, monospace&quot;&gt;&lt;span style=&quot;font-size: 13px ; background-color: rgb(255 , 255 , 255)&quot;&gt;essos\jorah.mormont&lt;br&gt;&lt;/span&gt;&lt;/font&gt;" style="outlineConnect=0;dashed=0;verticalLabelPosition=bottom;verticalAlign=top;align=center;html=1;fontSize=12;fontStyle=0;aspect=fixed;pointerEvents=1;shape=mxgraph.aws4.user;fontColor=#ffffff;fillColor=#000000;" parent="1" vertex="1">
          <mxGeometry x="1390" y="530" width="40" height="40" as="geometry" />
        </mxCell>
        <mxCell id="48Ioop5OCFuu_ukln9n--24" value="" style="pointerEvents=1;shadow=0;dashed=0;html=1;strokeColor=none;labelPosition=center;verticalLabelPosition=bottom;verticalAlign=top;align=center;fillColor=#505050;shape=mxgraph.mscae.intune.certificate" parent="1" vertex="1">
          <mxGeometry x="1100" y="240" width="50" height="49" as="geometry" />
        </mxCell>
        <mxCell id="fhnWQjRRi9OJa6ZRlEeQ-2" style="rounded=0;orthogonalLoop=1;jettySize=auto;html=1;fillColor=#d5e8d4;strokeColor=#82b366;dashed=1;strokeWidth=2;" parent="1" source="48Ioop5OCFuu_ukln9n--1" target="b0sqUQxNu4gCeeOOgRk0-2" edge="1">
          <mxGeometry relative="1" as="geometry" />
        </mxCell>
        <mxCell id="fhnWQjRRi9OJa6ZRlEeQ-3" value="RDP&amp;nbsp;&lt;br&gt;Connection active" style="edgeLabel;html=1;align=center;verticalAlign=middle;resizable=0;points=[];" parent="fhnWQjRRi9OJa6ZRlEeQ-2" vertex="1" connectable="0">
          <mxGeometry x="-0.3549" y="-3" relative="1" as="geometry">
            <mxPoint as="offset" />
          </mxGeometry>
        </mxCell>
        <mxCell id="fhnWQjRRi9OJa6ZRlEeQ-4" value="Baratheon" style="pointerEvents=1;shadow=0;dashed=0;html=1;strokeColor=none;labelPosition=center;verticalLabelPosition=bottom;verticalAlign=top;align=center;fillColor=#505050;shape=mxgraph.mscae.intune.user_group" parent="1" vertex="1">
          <mxGeometry x="340" y="-57" width="50" height="37" as="geometry" />
        </mxCell>
        <mxCell id="fhnWQjRRi9OJa6ZRlEeQ-6" style="edgeStyle=none;rounded=0;orthogonalLoop=1;jettySize=auto;html=1;fillColor=#dae8fc;strokeColor=#6c8ebf;" parent="1" edge="1">
          <mxGeometry relative="1" as="geometry">
            <mxPoint x="390" y="-31" as="sourcePoint" />
            <mxPoint x="660" y="-89" as="targetPoint" />
          </mxGeometry>
        </mxCell>
        <mxCell id="fhnWQjRRi9OJa6ZRlEeQ-7" value="RDP" style="edgeLabel;html=1;align=center;verticalAlign=middle;resizable=0;points=[];" parent="fhnWQjRRi9OJa6ZRlEeQ-6" vertex="1" connectable="0">
          <mxGeometry x="-0.5001" y="-1" relative="1" as="geometry">
            <mxPoint as="offset" />
          </mxGeometry>
        </mxCell>
      </root>
    </mxGraphModel>
  </diagram>
  <diagram name="GOAD-Light" id="jp87ICyuLEGx0A4KC5bK">
    <mxGraphModel dx="2048" dy="1229" grid="0" gridSize="10" guides="0" tooltips="1" connect="1" arrows="1" fold="1" page="0" pageScale="1" pageWidth="827" pageHeight="1169" math="0" shadow="0">
      <root>
        <mxCell id="o3wmvLj6rM7aHJygYUtF-0" />
        <mxCell id="o3wmvLj6rM7aHJygYUtF-1" parent="o3wmvLj6rM7aHJygYUtF-0" />
        <mxCell id="o3wmvLj6rM7aHJygYUtF-2" value="&lt;b&gt;&lt;font style=&quot;font-size: 15px&quot;&gt;north.sevenkingdoms.local&lt;/font&gt;&lt;/b&gt;" style="shape=trapezoid;perimeter=trapezoidPerimeter;whiteSpace=wrap;html=1;fixedSize=1;size=240;verticalAlign=top;labelPosition=center;verticalLabelPosition=bottom;align=center;" parent="o3wmvLj6rM7aHJygYUtF-1" vertex="1">
          <mxGeometry x="25" y="-20" width="480" height="480" as="geometry" />
        </mxCell>
        <mxCell id="o3wmvLj6rM7aHJygYUtF-3" value="DC02 - winterfell&lt;br&gt;192.168.56.11&lt;br&gt;Windows Server 2019&lt;br&gt;rpc user enum&lt;br&gt;ntlm downgrade" style="verticalLabelPosition=bottom;aspect=fixed;html=1;verticalAlign=top;strokeColor=none;align=center;outlineConnect=0;shape=mxgraph.citrix.directory_server;" parent="o3wmvLj6rM7aHJygYUtF-1" vertex="1">
          <mxGeometry x="226.75" y="70" width="65" height="88.5" as="geometry" />
        </mxCell>
        <mxCell id="o3wmvLj6rM7aHJygYUtF-4" value="SRV02 -&amp;nbsp;castelblack&lt;br&gt;192.168.56.22&lt;br&gt;Windows Server 2019 - &lt;b&gt;no defender&lt;br&gt;&lt;/b&gt;IIS + upload ASP&lt;br&gt;MSSQL + execute as + trusted link" style="verticalLabelPosition=bottom;aspect=fixed;html=1;verticalAlign=top;strokeColor=none;align=center;outlineConnect=0;shape=mxgraph.citrix.web_server;" parent="o3wmvLj6rM7aHJygYUtF-1" vertex="1">
          <mxGeometry x="226.75" y="279.25" width="76.5" height="90" as="geometry" />
        </mxCell>
        <mxCell id="o3wmvLj6rM7aHJygYUtF-5" value="&lt;b&gt;&lt;font style=&quot;font-size: 15px&quot;&gt;sevenkingdoms.local&lt;/font&gt;&lt;/b&gt;" style="shape=trapezoid;perimeter=trapezoidPerimeter;whiteSpace=wrap;html=1;fixedSize=1;size=240;verticalAlign=top;labelPosition=center;verticalLabelPosition=bottom;align=center;" parent="o3wmvLj6rM7aHJygYUtF-1" vertex="1">
          <mxGeometry x="470" y="-310" width="440" height="370" as="geometry" />
        </mxCell>
        <mxCell id="o3wmvLj6rM7aHJygYUtF-6" value="DC01 - kingslanding&lt;br&gt;192.168.56.10&lt;br&gt;Windows Server 2019&lt;br&gt;ESC1" style="verticalLabelPosition=bottom;aspect=fixed;html=1;verticalAlign=top;strokeColor=none;align=center;outlineConnect=0;shape=mxgraph.citrix.directory_server;" parent="o3wmvLj6rM7aHJygYUtF-1" vertex="1">
          <mxGeometry x="650" y="-140" width="65" height="88.5" as="geometry" />
        </mxCell>
        <mxCell id="o3wmvLj6rM7aHJygYUtF-10" value="" style="endArrow=classic;startArrow=classic;html=1;exitX=0.689;exitY=0.365;exitDx=0;exitDy=0;exitPerimeter=0;entryX=0.25;entryY=1;entryDx=0;entryDy=0;" parent="o3wmvLj6rM7aHJygYUtF-1" source="o3wmvLj6rM7aHJygYUtF-2" target="o3wmvLj6rM7aHJygYUtF-5" edge="1">
          <mxGeometry width="50" height="50" relative="1" as="geometry">
            <mxPoint x="660" y="140" as="sourcePoint" />
            <mxPoint x="710" y="90" as="targetPoint" />
          </mxGeometry>
        </mxCell>
        <mxCell id="o3wmvLj6rM7aHJygYUtF-11" value="trust" style="edgeLabel;html=1;align=center;verticalAlign=middle;resizable=0;points=[];" parent="o3wmvLj6rM7aHJygYUtF-10" vertex="1" connectable="0">
          <mxGeometry x="0.1514" relative="1" as="geometry">
            <mxPoint y="-1" as="offset" />
          </mxGeometry>
        </mxCell>
        <mxCell id="o3wmvLj6rM7aHJygYUtF-13" value="" style="verticalLabelPosition=bottom;aspect=fixed;html=1;verticalAlign=top;strokeColor=none;align=center;outlineConnect=0;shape=mxgraph.citrix.database;" parent="o3wmvLj6rM7aHJygYUtF-1" vertex="1">
          <mxGeometry x="280" y="270" width="42.5" height="50" as="geometry" />
        </mxCell>
        <mxCell id="o3wmvLj6rM7aHJygYUtF-17" style="rounded=0;orthogonalLoop=1;jettySize=auto;html=1;fillColor=#dae8fc;strokeColor=#6c8ebf;" parent="o3wmvLj6rM7aHJygYUtF-1" source="o3wmvLj6rM7aHJygYUtF-21" target="o3wmvLj6rM7aHJygYUtF-3" edge="1">
          <mxGeometry relative="1" as="geometry" />
        </mxCell>
        <mxCell id="o3wmvLj6rM7aHJygYUtF-18" value="RDP" style="edgeLabel;html=1;align=center;verticalAlign=middle;resizable=0;points=[];" parent="o3wmvLj6rM7aHJygYUtF-17" vertex="1" connectable="0">
          <mxGeometry x="0.151" y="-1" relative="1" as="geometry">
            <mxPoint as="offset" />
          </mxGeometry>
        </mxCell>
        <mxCell id="o3wmvLj6rM7aHJygYUtF-19" style="edgeStyle=none;rounded=0;orthogonalLoop=1;jettySize=auto;html=1;fillColor=#dae8fc;strokeColor=#6c8ebf;" parent="o3wmvLj6rM7aHJygYUtF-1" source="o3wmvLj6rM7aHJygYUtF-21" target="o3wmvLj6rM7aHJygYUtF-4" edge="1">
          <mxGeometry relative="1" as="geometry" />
        </mxCell>
        <mxCell id="o3wmvLj6rM7aHJygYUtF-20" value="RDP" style="edgeLabel;html=1;align=center;verticalAlign=middle;resizable=0;points=[];" parent="o3wmvLj6rM7aHJygYUtF-19" vertex="1" connectable="0">
          <mxGeometry x="0.1241" y="2" relative="1" as="geometry">
            <mxPoint as="offset" />
          </mxGeometry>
        </mxCell>
        <mxCell id="o3wmvLj6rM7aHJygYUtF-21" value="Starks" style="pointerEvents=1;shadow=0;dashed=0;html=1;strokeColor=none;labelPosition=center;verticalLabelPosition=bottom;verticalAlign=top;align=center;fillColor=#505050;shape=mxgraph.mscae.intune.user_group" parent="o3wmvLj6rM7aHJygYUtF-1" vertex="1">
          <mxGeometry x="-110" y="196.5" width="50" height="37" as="geometry" />
        </mxCell>
        <mxCell id="o3wmvLj6rM7aHJygYUtF-22" style="edgeStyle=none;rounded=0;orthogonalLoop=1;jettySize=auto;html=1;fillColor=#dae8fc;strokeColor=#6c8ebf;" parent="o3wmvLj6rM7aHJygYUtF-1" source="o3wmvLj6rM7aHJygYUtF-24" target="o3wmvLj6rM7aHJygYUtF-4" edge="1">
          <mxGeometry relative="1" as="geometry" />
        </mxCell>
        <mxCell id="o3wmvLj6rM7aHJygYUtF-23" value="RDP" style="edgeLabel;html=1;align=center;verticalAlign=middle;resizable=0;points=[];" parent="o3wmvLj6rM7aHJygYUtF-22" vertex="1" connectable="0">
          <mxGeometry x="-0.2934" y="-3" relative="1" as="geometry">
            <mxPoint as="offset" />
          </mxGeometry>
        </mxCell>
        <mxCell id="o3wmvLj6rM7aHJygYUtF-24" value="Night Watch" style="pointerEvents=1;shadow=0;dashed=0;html=1;strokeColor=none;labelPosition=center;verticalLabelPosition=bottom;verticalAlign=top;align=center;fillColor=#505050;shape=mxgraph.mscae.intune.user_group" parent="o3wmvLj6rM7aHJygYUtF-1" vertex="1">
          <mxGeometry x="-120" y="305.75" width="50" height="37" as="geometry" />
        </mxCell>
        <mxCell id="o3wmvLj6rM7aHJygYUtF-25" style="edgeStyle=none;rounded=0;orthogonalLoop=1;jettySize=auto;html=1;fillColor=#dae8fc;strokeColor=#6c8ebf;" parent="o3wmvLj6rM7aHJygYUtF-1" source="o3wmvLj6rM7aHJygYUtF-27" target="o3wmvLj6rM7aHJygYUtF-6" edge="1">
          <mxGeometry relative="1" as="geometry" />
        </mxCell>
        <mxCell id="o3wmvLj6rM7aHJygYUtF-26" value="RDP" style="edgeLabel;html=1;align=center;verticalAlign=middle;resizable=0;points=[];" parent="o3wmvLj6rM7aHJygYUtF-25" vertex="1" connectable="0">
          <mxGeometry x="-0.5001" y="-1" relative="1" as="geometry">
            <mxPoint as="offset" />
          </mxGeometry>
        </mxCell>
        <mxCell id="o3wmvLj6rM7aHJygYUtF-27" value="Small Council" style="pointerEvents=1;shadow=0;dashed=0;html=1;strokeColor=none;labelPosition=center;verticalLabelPosition=bottom;verticalAlign=top;align=center;fillColor=#505050;shape=mxgraph.mscae.intune.user_group" parent="o3wmvLj6rM7aHJygYUtF-1" vertex="1">
          <mxGeometry x="340" y="-143.5" width="50" height="37" as="geometry" />
        </mxCell>
        <mxCell id="o3wmvLj6rM7aHJygYUtF-32" value="admin" style="edgeStyle=none;rounded=0;orthogonalLoop=1;jettySize=auto;html=1;fillColor=#e51400;strokeColor=#B20000;" parent="o3wmvLj6rM7aHJygYUtF-1" source="o3wmvLj6rM7aHJygYUtF-33" target="o3wmvLj6rM7aHJygYUtF-6" edge="1">
          <mxGeometry relative="1" as="geometry" />
        </mxCell>
        <mxCell id="o3wmvLj6rM7aHJygYUtF-33" value="&lt;div style=&quot;font-family: &amp;#34;droid sans mono&amp;#34; , monospace , monospace ; font-size: 13px ; line-height: 18px&quot;&gt;&lt;span style=&quot;background-color: rgb(255 , 255 , 255)&quot;&gt;&lt;font color=&quot;#000000&quot;&gt;sevenkingdoms\robert.baratheon&lt;br&gt;&lt;b&gt;domain admin&lt;/b&gt;&lt;/font&gt;&lt;/span&gt;&lt;/div&gt;" style="outlineConnect=0;dashed=0;verticalLabelPosition=bottom;verticalAlign=top;align=center;html=1;fontSize=12;fontStyle=0;aspect=fixed;pointerEvents=1;shape=mxgraph.aws4.user;fontColor=#ffffff;fillColor=#000000;" parent="o3wmvLj6rM7aHJygYUtF-1" vertex="1">
          <mxGeometry x="450" y="-370" width="40" height="40" as="geometry" />
        </mxCell>
        <mxCell id="o3wmvLj6rM7aHJygYUtF-34" value="admin" style="edgeStyle=none;rounded=0;orthogonalLoop=1;jettySize=auto;html=1;fillColor=#e51400;strokeColor=#B20000;" parent="o3wmvLj6rM7aHJygYUtF-1" source="o3wmvLj6rM7aHJygYUtF-35" target="o3wmvLj6rM7aHJygYUtF-6" edge="1">
          <mxGeometry relative="1" as="geometry" />
        </mxCell>
        <mxCell id="o3wmvLj6rM7aHJygYUtF-35" value="&lt;div style=&quot;font-family: &amp;#34;droid sans mono&amp;#34; , monospace , monospace ; font-size: 13px ; line-height: 18px&quot;&gt;&lt;/div&gt;&lt;font color=&quot;#000000&quot; face=&quot;droid sans mono, monospace, monospace&quot;&gt;&lt;span style=&quot;font-size: 13px&quot;&gt;&lt;span style=&quot;background-color: rgb(255 , 255 , 255)&quot;&gt;sevenkingdoms\&lt;/span&gt;cersei.lannister&lt;br&gt;&lt;b&gt;domain admin&lt;/b&gt;&lt;br&gt;&lt;/span&gt;&lt;/font&gt;" style="outlineConnect=0;dashed=0;verticalLabelPosition=bottom;verticalAlign=top;align=center;html=1;fontSize=12;fontStyle=0;aspect=fixed;pointerEvents=1;shape=mxgraph.aws4.user;fontColor=#ffffff;fillColor=#000000;" parent="o3wmvLj6rM7aHJygYUtF-1" vertex="1">
          <mxGeometry x="322.5" y="-260" width="40" height="40" as="geometry" />
        </mxCell>
        <mxCell id="o3wmvLj6rM7aHJygYUtF-36" value="admin" style="rounded=0;orthogonalLoop=1;jettySize=auto;html=1;fillColor=#f8cecc;strokeColor=#b85450;" parent="o3wmvLj6rM7aHJygYUtF-1" source="o3wmvLj6rM7aHJygYUtF-38" target="o3wmvLj6rM7aHJygYUtF-3" edge="1">
          <mxGeometry relative="1" as="geometry" />
        </mxCell>
        <mxCell id="o3wmvLj6rM7aHJygYUtF-37" value="" style="group" parent="o3wmvLj6rM7aHJygYUtF-1" vertex="1" connectable="0">
          <mxGeometry x="-25" y="-180" width="50" height="51.5" as="geometry" />
        </mxCell>
        <mxCell id="o3wmvLj6rM7aHJygYUtF-38" value="&lt;div style=&quot;font-family: &amp;#34;droid sans mono&amp;#34; , monospace , monospace ; font-size: 13px ; line-height: 18px&quot;&gt;&lt;/div&gt;&lt;font color=&quot;#000000&quot; face=&quot;droid sans mono, monospace, monospace&quot;&gt;&lt;span style=&quot;font-size: 13px ; background-color: rgb(255 , 255 , 255)&quot;&gt;north\eddard.stark&lt;br&gt;bot 5min (LLMNR query)&lt;br&gt;&lt;b&gt;domain admin&lt;/b&gt;&lt;br&gt;&lt;/span&gt;&lt;/font&gt;" style="outlineConnect=0;dashed=0;verticalLabelPosition=bottom;verticalAlign=top;align=center;html=1;fontSize=12;fontStyle=0;aspect=fixed;pointerEvents=1;shape=mxgraph.aws4.user;fontColor=#ffffff;fillColor=#000000;" parent="o3wmvLj6rM7aHJygYUtF-37" vertex="1">
          <mxGeometry width="40" height="40" as="geometry" />
        </mxCell>
        <mxCell id="o3wmvLj6rM7aHJygYUtF-39" value="" style="verticalLabelPosition=bottom;html=1;verticalAlign=top;align=center;strokeColor=none;fillColor=#00BEF2;shape=mxgraph.azure.scheduler;pointerEvents=1;" parent="o3wmvLj6rM7aHJygYUtF-37" vertex="1">
          <mxGeometry x="30" y="31.5" width="20" height="20" as="geometry" />
        </mxCell>
        <mxCell id="o3wmvLj6rM7aHJygYUtF-40" value="" style="group" parent="o3wmvLj6rM7aHJygYUtF-1" vertex="1" connectable="0">
          <mxGeometry x="-230" y="11.5" width="50" height="48.5" as="geometry" />
        </mxCell>
        <mxCell id="o3wmvLj6rM7aHJygYUtF-41" value="&lt;div style=&quot;font-family: &amp;#34;droid sans mono&amp;#34; , monospace , monospace ; font-size: 13px ; line-height: 18px&quot;&gt;&lt;/div&gt;&lt;font color=&quot;#000000&quot; face=&quot;droid sans mono, monospace, monospace&quot;&gt;&lt;span style=&quot;font-size: 13px ; background-color: rgb(255 , 255 , 255)&quot;&gt;north\robb.stark&lt;br&gt;bot 3min (LLMNR query)&lt;br&gt;&lt;/span&gt;&lt;/font&gt;" style="outlineConnect=0;dashed=0;verticalLabelPosition=bottom;verticalAlign=top;align=center;html=1;fontSize=12;fontStyle=0;aspect=fixed;pointerEvents=1;shape=mxgraph.aws4.user;fontColor=#ffffff;fillColor=#000000;" parent="o3wmvLj6rM7aHJygYUtF-40" vertex="1">
          <mxGeometry width="40" height="40" as="geometry" />
        </mxCell>
        <mxCell id="o3wmvLj6rM7aHJygYUtF-42" value="" style="verticalLabelPosition=bottom;html=1;verticalAlign=top;align=center;strokeColor=none;fillColor=#00BEF2;shape=mxgraph.azure.scheduler;pointerEvents=1;" parent="o3wmvLj6rM7aHJygYUtF-40" vertex="1">
          <mxGeometry x="30" y="28.5" width="20" height="20" as="geometry" />
        </mxCell>
        <mxCell id="o3wmvLj6rM7aHJygYUtF-43" value="admin" style="edgeStyle=none;rounded=0;orthogonalLoop=1;jettySize=auto;html=1;fillColor=#f8cecc;strokeColor=#b85450;" parent="o3wmvLj6rM7aHJygYUtF-1" source="o3wmvLj6rM7aHJygYUtF-41" target="o3wmvLj6rM7aHJygYUtF-3" edge="1">
          <mxGeometry relative="1" as="geometry" />
        </mxCell>
        <mxCell id="o3wmvLj6rM7aHJygYUtF-44" value="admin" style="edgeStyle=none;rounded=0;orthogonalLoop=1;jettySize=auto;html=1;fillColor=#f8cecc;strokeColor=#b85450;" parent="o3wmvLj6rM7aHJygYUtF-1" source="o3wmvLj6rM7aHJygYUtF-45" target="o3wmvLj6rM7aHJygYUtF-3" edge="1">
          <mxGeometry relative="1" as="geometry" />
        </mxCell>
        <mxCell id="o3wmvLj6rM7aHJygYUtF-45" value="&lt;div style=&quot;font-family: &amp;#34;droid sans mono&amp;#34; , monospace , monospace ; font-size: 13px ; line-height: 18px&quot;&gt;&lt;/div&gt;&lt;font color=&quot;#000000&quot; face=&quot;droid sans mono, monospace, monospace&quot;&gt;&lt;span style=&quot;font-size: 13px ; background-color: rgb(255 , 255 , 255)&quot;&gt;north\catelyn.stark&lt;br&gt;&lt;/span&gt;&lt;/font&gt;" style="outlineConnect=0;dashed=0;verticalLabelPosition=bottom;verticalAlign=top;align=center;html=1;fontSize=12;fontStyle=0;aspect=fixed;pointerEvents=1;shape=mxgraph.aws4.user;fontColor=#ffffff;fillColor=#000000;" parent="o3wmvLj6rM7aHJygYUtF-1" vertex="1">
          <mxGeometry x="-220" y="-128.5" width="40" height="40" as="geometry" />
        </mxCell>
        <mxCell id="o3wmvLj6rM7aHJygYUtF-46" value="admin" style="edgeStyle=none;rounded=0;orthogonalLoop=1;jettySize=auto;html=1;fillColor=#f8cecc;strokeColor=#b85450;" parent="o3wmvLj6rM7aHJygYUtF-1" source="o3wmvLj6rM7aHJygYUtF-47" target="o3wmvLj6rM7aHJygYUtF-4" edge="1">
          <mxGeometry relative="1" as="geometry" />
        </mxCell>
        <mxCell id="o3wmvLj6rM7aHJygYUtF-47" value="&lt;div style=&quot;font-family: &amp;#34;droid sans mono&amp;#34; , monospace , monospace ; font-size: 13px ; line-height: 18px&quot;&gt;&lt;/div&gt;&lt;font color=&quot;#000000&quot; face=&quot;droid sans mono, monospace, monospace&quot;&gt;&lt;span style=&quot;font-size: 13px ; background-color: rgb(255 , 255 , 255)&quot;&gt;north\jeor.mormont&lt;br&gt;&lt;/span&gt;&lt;/font&gt;" style="outlineConnect=0;dashed=0;verticalLabelPosition=bottom;verticalAlign=top;align=center;html=1;fontSize=12;fontStyle=0;aspect=fixed;pointerEvents=1;shape=mxgraph.aws4.user;fontColor=#ffffff;fillColor=#000000;" parent="o3wmvLj6rM7aHJygYUtF-1" vertex="1">
          <mxGeometry x="-260" y="430" width="40" height="40" as="geometry" />
        </mxCell>
        <mxCell id="o3wmvLj6rM7aHJygYUtF-48" value="mssql_admin&lt;br&gt;mapping_mssql_trust" style="edgeStyle=none;rounded=0;orthogonalLoop=1;jettySize=auto;html=1;fillColor=#e1d5e7;strokeColor=#9673a6;" parent="o3wmvLj6rM7aHJygYUtF-1" source="o3wmvLj6rM7aHJygYUtF-49" target="o3wmvLj6rM7aHJygYUtF-4" edge="1">
          <mxGeometry x="-0.3579" y="-4" relative="1" as="geometry">
            <mxPoint x="-1" as="offset" />
          </mxGeometry>
        </mxCell>
        <mxCell id="o3wmvLj6rM7aHJygYUtF-49" value="&lt;div style=&quot;font-family: &amp;#34;droid sans mono&amp;#34; , monospace , monospace ; font-size: 13px ; line-height: 18px&quot;&gt;&lt;/div&gt;&lt;font color=&quot;#000000&quot; face=&quot;droid sans mono, monospace, monospace&quot;&gt;&lt;span style=&quot;font-size: 13px ; background-color: rgb(255 , 255 , 255)&quot;&gt;north\jon.snow&lt;br&gt;&lt;/span&gt;&lt;/font&gt;" style="outlineConnect=0;dashed=0;verticalLabelPosition=bottom;verticalAlign=top;align=center;html=1;fontSize=12;fontStyle=0;aspect=fixed;pointerEvents=1;shape=mxgraph.aws4.user;fontColor=#ffffff;fillColor=#000000;" parent="o3wmvLj6rM7aHJygYUtF-1" vertex="1">
          <mxGeometry x="-150" y="545" width="40" height="40" as="geometry" />
        </mxCell>
        <mxCell id="o3wmvLj6rM7aHJygYUtF-57" style="rounded=0;orthogonalLoop=1;jettySize=auto;html=1;fillColor=#d5e8d4;strokeColor=#82b366;dashed=1;strokeWidth=2;" parent="o3wmvLj6rM7aHJygYUtF-1" source="o3wmvLj6rM7aHJygYUtF-41" target="o3wmvLj6rM7aHJygYUtF-4" edge="1">
          <mxGeometry relative="1" as="geometry" />
        </mxCell>
        <mxCell id="o3wmvLj6rM7aHJygYUtF-58" value="RDP&amp;nbsp;&lt;br&gt;Connection active" style="edgeLabel;html=1;align=center;verticalAlign=middle;resizable=0;points=[];" parent="o3wmvLj6rM7aHJygYUtF-57" vertex="1" connectable="0">
          <mxGeometry x="-0.3549" y="-3" relative="1" as="geometry">
            <mxPoint as="offset" />
          </mxGeometry>
        </mxCell>
        <mxCell id="o3wmvLj6rM7aHJygYUtF-59" value="Baratheon" style="pointerEvents=1;shadow=0;dashed=0;html=1;strokeColor=none;labelPosition=center;verticalLabelPosition=bottom;verticalAlign=top;align=center;fillColor=#505050;shape=mxgraph.mscae.intune.user_group" parent="o3wmvLj6rM7aHJygYUtF-1" vertex="1">
          <mxGeometry x="340" y="-57" width="50" height="37" as="geometry" />
        </mxCell>
        <mxCell id="o3wmvLj6rM7aHJygYUtF-60" style="edgeStyle=none;rounded=0;orthogonalLoop=1;jettySize=auto;html=1;fillColor=#dae8fc;strokeColor=#6c8ebf;" parent="o3wmvLj6rM7aHJygYUtF-1" edge="1">
          <mxGeometry relative="1" as="geometry">
            <mxPoint x="390" y="-31" as="sourcePoint" />
            <mxPoint x="660" y="-89" as="targetPoint" />
          </mxGeometry>
        </mxCell>
        <mxCell id="o3wmvLj6rM7aHJygYUtF-61" value="RDP" style="edgeLabel;html=1;align=center;verticalAlign=middle;resizable=0;points=[];" parent="o3wmvLj6rM7aHJygYUtF-60" vertex="1" connectable="0">
          <mxGeometry x="-0.5001" y="-1" relative="1" as="geometry">
            <mxPoint as="offset" />
          </mxGeometry>
        </mxCell>
        <mxCell id="ZKEstkQNV-_VwNOvWkU--0" value="" style="pointerEvents=1;shadow=0;dashed=0;html=1;strokeColor=none;labelPosition=center;verticalLabelPosition=bottom;verticalAlign=top;align=center;fillColor=#505050;shape=mxgraph.mscae.intune.certificate" parent="o3wmvLj6rM7aHJygYUtF-1" vertex="1">
          <mxGeometry x="690" y="-149.5" width="50" height="49" as="geometry" />
        </mxCell>
      </root>
    </mxGraphModel>
  </diagram>
  <diagram id="SotgNiGLQ2lmL1Kym25H" name="MINILAB">
    <mxGraphModel dx="1660" dy="2025" grid="0" gridSize="10" guides="1" tooltips="1" connect="1" arrows="1" fold="1" page="1" pageScale="1" pageWidth="827" pageHeight="1169" math="0" shadow="0">
      <root>
        <mxCell id="i1LSxYUsJVYq2uXiINa1-0" />
        <mxCell id="i1LSxYUsJVYq2uXiINa1-1" parent="i1LSxYUsJVYq2uXiINa1-0" />
        <mxCell id="RepOPWJoBMDpOAtG9jrR-0" value="dc01 - dc.mini.lab&lt;br&gt;192.168.56.30&lt;br&gt;Windows Server 2019" style="verticalLabelPosition=bottom;aspect=fixed;html=1;verticalAlign=top;strokeColor=none;align=center;outlineConnect=0;shape=mxgraph.citrix.directory_server;" parent="i1LSxYUsJVYq2uXiINa1-1" vertex="1">
          <mxGeometry x="244.5" y="-529" width="65" height="88.5" as="geometry" />
        </mxCell>
        <mxCell id="RepOPWJoBMDpOAtG9jrR-1" value="ws01 - ws.mini.lab&lt;br&gt;192.168.56.31&lt;br&gt;Windows 10 22h2" style="verticalLabelPosition=bottom;aspect=fixed;html=1;verticalAlign=top;strokeColor=none;align=center;outlineConnect=0;shape=mxgraph.citrix.laptop_2;" parent="i1LSxYUsJVYq2uXiINa1-1" vertex="1">
          <mxGeometry x="484" y="-528" width="116" height="86.5" as="geometry" />
        </mxCell>
        <mxCell id="RepOPWJoBMDpOAtG9jrR-15" style="rounded=0;orthogonalLoop=1;jettySize=auto;html=1;entryX=0.5;entryY=1;entryDx=0;entryDy=0;entryPerimeter=0;dashed=1;endArrow=block;endFill=0;fillColor=#d5e8d4;strokeColor=#82b366;" parent="i1LSxYUsJVYq2uXiINa1-1" source="RepOPWJoBMDpOAtG9jrR-3" target="RepOPWJoBMDpOAtG9jrR-8" edge="1">
          <mxGeometry relative="1" as="geometry" />
        </mxCell>
        <mxCell id="RepOPWJoBMDpOAtG9jrR-3" value="Alice" style="outlineConnect=0;fontColor=#232F3E;gradientColor=none;fillColor=#232F3E;strokeColor=none;dashed=0;verticalLabelPosition=bottom;verticalAlign=top;align=center;html=1;fontSize=12;fontStyle=0;aspect=fixed;pointerEvents=1;shape=mxgraph.aws4.user;" parent="i1LSxYUsJVYq2uXiINa1-1" vertex="1">
          <mxGeometry x="126" y="-214" width="49" height="49" as="geometry" />
        </mxCell>
        <mxCell id="RepOPWJoBMDpOAtG9jrR-16" style="rounded=0;orthogonalLoop=1;jettySize=auto;html=1;dashed=1;entryX=0.5;entryY=1;entryDx=0;entryDy=0;entryPerimeter=0;endArrow=block;endFill=0;fillColor=#d5e8d4;strokeColor=#82b366;" parent="i1LSxYUsJVYq2uXiINa1-1" source="RepOPWJoBMDpOAtG9jrR-4" target="RepOPWJoBMDpOAtG9jrR-8" edge="1">
          <mxGeometry relative="1" as="geometry" />
        </mxCell>
        <mxCell id="RepOPWJoBMDpOAtG9jrR-17" style="edgeStyle=none;rounded=0;orthogonalLoop=1;jettySize=auto;html=1;entryX=0.5;entryY=1;entryDx=0;entryDy=0;entryPerimeter=0;dashed=1;endArrow=block;endFill=0;fillColor=#d5e8d4;strokeColor=#82b366;" parent="i1LSxYUsJVYq2uXiINa1-1" source="RepOPWJoBMDpOAtG9jrR-4" target="RepOPWJoBMDpOAtG9jrR-7" edge="1">
          <mxGeometry relative="1" as="geometry" />
        </mxCell>
        <mxCell id="RepOPWJoBMDpOAtG9jrR-23" style="edgeStyle=none;rounded=0;orthogonalLoop=1;jettySize=auto;html=1;dashed=1;endArrow=block;endFill=1;fillColor=#dae8fc;strokeColor=#6c8ebf;" parent="i1LSxYUsJVYq2uXiINa1-1" source="RepOPWJoBMDpOAtG9jrR-4" target="RepOPWJoBMDpOAtG9jrR-1" edge="1">
          <mxGeometry relative="1" as="geometry" />
        </mxCell>
        <mxCell id="RepOPWJoBMDpOAtG9jrR-24" value="Connecté" style="edgeLabel;html=1;align=center;verticalAlign=middle;resizable=0;points=[];" parent="RepOPWJoBMDpOAtG9jrR-23" vertex="1" connectable="0">
          <mxGeometry x="-0.1156" y="-3" relative="1" as="geometry">
            <mxPoint as="offset" />
          </mxGeometry>
        </mxCell>
        <mxCell id="RepOPWJoBMDpOAtG9jrR-4" value="Carol" style="outlineConnect=0;fontColor=#232F3E;gradientColor=none;fillColor=#232F3E;strokeColor=none;dashed=0;verticalLabelPosition=bottom;verticalAlign=top;align=center;html=1;fontSize=12;fontStyle=0;aspect=fixed;pointerEvents=1;shape=mxgraph.aws4.user;" parent="i1LSxYUsJVYq2uXiINa1-1" vertex="1">
          <mxGeometry x="391" y="-214" width="49" height="49" as="geometry" />
        </mxCell>
        <mxCell id="RepOPWJoBMDpOAtG9jrR-18" style="edgeStyle=none;rounded=0;orthogonalLoop=1;jettySize=auto;html=1;entryX=0.5;entryY=1;entryDx=0;entryDy=0;entryPerimeter=0;dashed=1;endArrow=block;endFill=0;fillColor=#d5e8d4;strokeColor=#82b366;" parent="i1LSxYUsJVYq2uXiINa1-1" source="RepOPWJoBMDpOAtG9jrR-5" target="RepOPWJoBMDpOAtG9jrR-7" edge="1">
          <mxGeometry relative="1" as="geometry" />
        </mxCell>
        <mxCell id="RepOPWJoBMDpOAtG9jrR-5" value="Bob" style="outlineConnect=0;fontColor=#232F3E;gradientColor=none;fillColor=#232F3E;strokeColor=none;dashed=0;verticalLabelPosition=bottom;verticalAlign=top;align=center;html=1;fontSize=12;fontStyle=0;aspect=fixed;pointerEvents=1;shape=mxgraph.aws4.user;" parent="i1LSxYUsJVYq2uXiINa1-1" vertex="1">
          <mxGeometry x="630" y="-214" width="49" height="49" as="geometry" />
        </mxCell>
        <mxCell id="RepOPWJoBMDpOAtG9jrR-11" style="edgeStyle=orthogonalEdgeStyle;rounded=0;orthogonalLoop=1;jettySize=auto;html=1;dashed=1;fillColor=#f8cecc;strokeColor=#b85450;" parent="i1LSxYUsJVYq2uXiINa1-1" source="RepOPWJoBMDpOAtG9jrR-7" target="RepOPWJoBMDpOAtG9jrR-1" edge="1">
          <mxGeometry relative="1" as="geometry">
            <Array as="points">
              <mxPoint x="663" y="-308" />
              <mxPoint x="663" y="-483" />
            </Array>
          </mxGeometry>
        </mxCell>
        <mxCell id="RepOPWJoBMDpOAtG9jrR-12" value="Administrateur" style="edgeLabel;html=1;align=center;verticalAlign=middle;resizable=0;points=[];" parent="RepOPWJoBMDpOAtG9jrR-11" vertex="1" connectable="0">
          <mxGeometry x="-0.1584" y="-3" relative="1" as="geometry">
            <mxPoint x="4" y="-17.5" as="offset" />
          </mxGeometry>
        </mxCell>
        <mxCell id="RepOPWJoBMDpOAtG9jrR-7" value="wsadmin" style="pointerEvents=1;shadow=0;dashed=0;html=1;strokeColor=none;labelPosition=center;verticalLabelPosition=bottom;verticalAlign=top;align=center;fillColor=#505050;shape=mxgraph.mscae.intune.user_group" parent="i1LSxYUsJVYq2uXiINa1-1" vertex="1">
          <mxGeometry x="517" y="-327" width="50" height="37" as="geometry" />
        </mxCell>
        <mxCell id="RepOPWJoBMDpOAtG9jrR-9" style="edgeStyle=orthogonalEdgeStyle;rounded=0;orthogonalLoop=1;jettySize=auto;html=1;dashed=1;fillColor=#f8cecc;strokeColor=#b85450;" parent="i1LSxYUsJVYq2uXiINa1-1" source="RepOPWJoBMDpOAtG9jrR-8" target="RepOPWJoBMDpOAtG9jrR-0" edge="1">
          <mxGeometry relative="1" as="geometry">
            <Array as="points">
              <mxPoint x="177" y="-310" />
              <mxPoint x="177" y="-484" />
            </Array>
          </mxGeometry>
        </mxCell>
        <mxCell id="RepOPWJoBMDpOAtG9jrR-10" value="Administrateur" style="edgeLabel;html=1;align=center;verticalAlign=middle;resizable=0;points=[];" parent="RepOPWJoBMDpOAtG9jrR-9" vertex="1" connectable="0">
          <mxGeometry x="-0.1934" y="4" relative="1" as="geometry">
            <mxPoint x="-7" y="4.5" as="offset" />
          </mxGeometry>
        </mxCell>
        <mxCell id="RepOPWJoBMDpOAtG9jrR-13" style="edgeStyle=orthogonalEdgeStyle;rounded=0;orthogonalLoop=1;jettySize=auto;html=1;dashed=1;fillColor=#f8cecc;strokeColor=#b85450;" parent="i1LSxYUsJVYq2uXiINa1-1" source="RepOPWJoBMDpOAtG9jrR-8" target="RepOPWJoBMDpOAtG9jrR-1" edge="1">
          <mxGeometry relative="1" as="geometry">
            <Array as="points">
              <mxPoint x="397" y="-310" />
              <mxPoint x="397" y="-485" />
            </Array>
          </mxGeometry>
        </mxCell>
        <mxCell id="RepOPWJoBMDpOAtG9jrR-14" value="Administrateur" style="edgeLabel;html=1;align=center;verticalAlign=middle;resizable=0;points=[];" parent="RepOPWJoBMDpOAtG9jrR-13" vertex="1" connectable="0">
          <mxGeometry x="-0.1693" y="3" relative="1" as="geometry">
            <mxPoint x="3" y="-27.5" as="offset" />
          </mxGeometry>
        </mxCell>
        <mxCell id="RepOPWJoBMDpOAtG9jrR-8" value="Administrateurs de domaine" style="pointerEvents=1;shadow=0;dashed=0;html=1;strokeColor=none;labelPosition=center;verticalLabelPosition=bottom;verticalAlign=top;align=center;fillColor=#505050;shape=mxgraph.mscae.intune.user_group" parent="i1LSxYUsJVYq2uXiINa1-1" vertex="1">
          <mxGeometry x="252" y="-329" width="50" height="37" as="geometry" />
        </mxCell>
        <mxCell id="RepOPWJoBMDpOAtG9jrR-25" value="" style="shadow=0;dashed=0;html=1;strokeColor=none;fillColor=#EF8F21;labelPosition=center;verticalLabelPosition=bottom;verticalAlign=top;align=center;outlineConnect=0;shape=mxgraph.veeam.ms_windows;" parent="i1LSxYUsJVYq2uXiINa1-1" vertex="1">
          <mxGeometry x="294" y="-531" width="26" height="25" as="geometry" />
        </mxCell>
        <mxCell id="RepOPWJoBMDpOAtG9jrR-27" value="" style="shadow=0;dashed=0;html=1;strokeColor=none;fillColor=#EF8F21;labelPosition=center;verticalLabelPosition=bottom;verticalAlign=top;align=center;outlineConnect=0;shape=mxgraph.veeam.ms_windows;" parent="i1LSxYUsJVYq2uXiINa1-1" vertex="1">
          <mxGeometry x="585" y="-528" width="26" height="25" as="geometry" />
        </mxCell>
      </root>
    </mxGraphModel>
  </diagram>
  <diagram id="Q4Gf2vxxW5oFmrUGRCNV" name="GOAD_compromission_Path">
    <mxGraphModel dx="3020" dy="1229" grid="0" gridSize="10" guides="1" tooltips="1" connect="1" arrows="1" fold="1" page="0" pageScale="1" pageWidth="827" pageHeight="1169" background="#000000" math="0" shadow="0">
      <root>
        <mxCell id="ibhNdLfUEIW59064bE3n-0" />
        <mxCell id="ibhNdLfUEIW59064bE3n-1" parent="ibhNdLfUEIW59064bE3n-0" />
        <mxCell id="N_L632Vz1XLPF-QQKONr-114" style="edgeStyle=orthogonalEdgeStyle;rounded=0;orthogonalLoop=1;jettySize=auto;html=1;startArrow=none;startFill=0;strokeWidth=1;fillColor=#fff2cc;strokeColor=#d6b656;fontSize=13;labelBackgroundColor=#000000;fontColor=#FFFFFF;" parent="ibhNdLfUEIW59064bE3n-1" source="Q8LpXQ9D0kiZg2cMLjGx-40" target="N_L632Vz1XLPF-QQKONr-45" edge="1">
          <mxGeometry relative="1" as="geometry">
            <Array as="points">
              <mxPoint x="11" y="633" />
              <mxPoint x="11" y="-174" />
            </Array>
          </mxGeometry>
        </mxCell>
        <mxCell id="N_L632Vz1XLPF-QQKONr-116" value="SYSVOL script with secret and key" style="edgeLabel;html=1;align=center;verticalAlign=middle;resizable=0;points=[];fontSize=13;labelBackgroundColor=#000000;fontColor=#FFFFFF;" parent="N_L632Vz1XLPF-QQKONr-114" vertex="1" connectable="0">
          <mxGeometry x="-0.3986" y="-4" relative="1" as="geometry">
            <mxPoint x="-83.21" y="-9" as="offset" />
          </mxGeometry>
        </mxCell>
        <mxCell id="N_L632Vz1XLPF-QQKONr-39" style="edgeStyle=orthogonalEdgeStyle;rounded=0;orthogonalLoop=1;jettySize=auto;html=1;startArrow=none;startFill=0;strokeWidth=1;fillColor=#f8cecc;strokeColor=#b85450;fontSize=13;labelBackgroundColor=#000000;fontColor=#FFFFFF;" parent="ibhNdLfUEIW59064bE3n-1" source="N_L632Vz1XLPF-QQKONr-38" target="N_L632Vz1XLPF-QQKONr-5" edge="1">
          <mxGeometry relative="1" as="geometry">
            <Array as="points">
              <mxPoint x="201" y="766" />
              <mxPoint x="-874" y="766" />
              <mxPoint x="-874" y="1253" />
              <mxPoint x="-807" y="1253" />
            </Array>
          </mxGeometry>
        </mxCell>
        <mxCell id="N_L632Vz1XLPF-QQKONr-40" value="GenericAll" style="edgeLabel;html=1;align=center;verticalAlign=middle;resizable=0;points=[];labelBackgroundColor=#000000;fontSize=13;fontColor=#FFFFFF;" parent="N_L632Vz1XLPF-QQKONr-39" vertex="1" connectable="0">
          <mxGeometry x="-0.5855" y="1" relative="1" as="geometry">
            <mxPoint x="18.5" y="16" as="offset" />
          </mxGeometry>
        </mxCell>
        <mxCell id="N_L632Vz1XLPF-QQKONr-18" style="edgeStyle=orthogonalEdgeStyle;rounded=0;orthogonalLoop=1;jettySize=auto;html=1;startArrow=none;startFill=0;strokeWidth=1;fillColor=#f8cecc;strokeColor=#b85450;fontSize=13;labelBackgroundColor=#000000;fontColor=#FFFFFF;" parent="ibhNdLfUEIW59064bE3n-1" source="N_L632Vz1XLPF-QQKONr-17" target="btbnTncfeBiOZsK3JCtP-0" edge="1">
          <mxGeometry relative="1" as="geometry">
            <Array as="points">
              <mxPoint x="93" y="791" />
              <mxPoint x="-465" y="791" />
            </Array>
          </mxGeometry>
        </mxCell>
        <mxCell id="N_L632Vz1XLPF-QQKONr-19" value="Generic Write" style="edgeLabel;html=1;align=center;verticalAlign=middle;resizable=0;points=[];fontSize=13;labelBackgroundColor=#000000;fontColor=#FFFFFF;" parent="N_L632Vz1XLPF-QQKONr-18" vertex="1" connectable="0">
          <mxGeometry x="-0.5739" y="2" relative="1" as="geometry">
            <mxPoint x="-192" y="46" as="offset" />
          </mxGeometry>
        </mxCell>
        <mxCell id="x4zoPYqUssw_Yjl6Hxtt-0" value="" style="group;fontSize=13;labelBackgroundColor=#000000;fontColor=#FFFFFF;" parent="ibhNdLfUEIW59064bE3n-1" vertex="1" connectable="0">
          <mxGeometry x="-837" y="91.5" width="50" height="48.5" as="geometry" />
        </mxCell>
        <mxCell id="x4zoPYqUssw_Yjl6Hxtt-1" value="&lt;div style=&quot;font-family: &amp;quot;droid sans mono&amp;quot;, monospace, monospace; font-size: 13px; line-height: 18px;&quot;&gt;&lt;/div&gt;&lt;font face=&quot;droid sans mono, monospace, monospace&quot; style=&quot;font-size: 13px;&quot;&gt;&lt;span style=&quot;font-size: 13px;&quot;&gt;north\robb.stark&lt;br style=&quot;font-size: 13px;&quot;&gt;&lt;/span&gt;&lt;/font&gt;" style="outlineConnect=0;dashed=0;verticalLabelPosition=bottom;verticalAlign=top;align=center;html=1;fontSize=13;fontStyle=0;aspect=fixed;pointerEvents=1;shape=mxgraph.aws4.user;labelBackgroundColor=#000000;fontColor=#FFFFFF;strokeColor=#FFFFFF;" parent="x4zoPYqUssw_Yjl6Hxtt-0" vertex="1">
          <mxGeometry width="40" height="40" as="geometry" />
        </mxCell>
        <mxCell id="ZtAfeylzl2Nh7kbikaWt-2" style="edgeStyle=orthogonalEdgeStyle;rounded=0;orthogonalLoop=1;jettySize=auto;html=1;strokeWidth=1;fontSize=13;labelBackgroundColor=#000000;fontColor=#FFFFFF;strokeColor=#FFFFFF;" parent="ibhNdLfUEIW59064bE3n-1" source="WTYqIx6fJiAgnqFdJ9BY-0" target="KgqBp-2F8nMPmvM_qDMR-11" edge="1">
          <mxGeometry relative="1" as="geometry" />
        </mxCell>
        <mxCell id="WTYqIx6fJiAgnqFdJ9BY-0" value="DC02 - winterfell&lt;br style=&quot;font-size: 13px;&quot;&gt;192.168.56.11" style="verticalLabelPosition=bottom;aspect=fixed;html=1;verticalAlign=top;strokeColor=none;align=center;outlineConnect=0;shape=mxgraph.citrix.directory_server;fontSize=13;labelBackgroundColor=#000000;fontColor=#FFFFFF;" parent="ibhNdLfUEIW59064bE3n-1" vertex="1">
          <mxGeometry x="-77" y="147" width="65" height="88.5" as="geometry" />
        </mxCell>
        <mxCell id="bGx4uz6RafhUDcz5H6OV-1" style="edgeStyle=orthogonalEdgeStyle;rounded=0;orthogonalLoop=1;jettySize=auto;html=1;fillColor=#e1d5e7;strokeColor=#9673a6;fontSize=13;labelBackgroundColor=#000000;fontColor=#FFFFFF;" parent="ibhNdLfUEIW59064bE3n-1" source="bGx4uz6RafhUDcz5H6OV-0" target="Q8LpXQ9D0kiZg2cMLjGx-45" edge="1">
          <mxGeometry relative="1" as="geometry" />
        </mxCell>
        <mxCell id="bGx4uz6RafhUDcz5H6OV-2" value="mssql admin" style="edgeLabel;html=1;align=center;verticalAlign=middle;resizable=0;points=[];fontSize=13;labelBackgroundColor=#000000;fontColor=#FFFFFF;" parent="bGx4uz6RafhUDcz5H6OV-1" vertex="1" connectable="0">
          <mxGeometry x="-0.2358" y="2" relative="1" as="geometry">
            <mxPoint as="offset" />
          </mxGeometry>
        </mxCell>
        <mxCell id="KgqBp-2F8nMPmvM_qDMR-17" style="edgeStyle=orthogonalEdgeStyle;rounded=0;orthogonalLoop=1;jettySize=auto;html=1;startArrow=none;startFill=0;fillColor=#dae8fc;strokeColor=#6c8ebf;fontSize=13;labelBackgroundColor=#000000;fontColor=#FFFFFF;" parent="ibhNdLfUEIW59064bE3n-1" source="bGx4uz6RafhUDcz5H6OV-0" target="WTYqIx6fJiAgnqFdJ9BY-0" edge="1">
          <mxGeometry relative="1" as="geometry">
            <Array as="points">
              <mxPoint x="-45" y="705" />
            </Array>
          </mxGeometry>
        </mxCell>
        <mxCell id="KgqBp-2F8nMPmvM_qDMR-18" value="constrained delegation (with protocol transition)" style="edgeLabel;html=1;align=center;verticalAlign=middle;resizable=0;points=[];fontSize=13;labelBackgroundColor=#000000;fontColor=#FFFFFF;" parent="KgqBp-2F8nMPmvM_qDMR-17" vertex="1" connectable="0">
          <mxGeometry x="-0.3772" y="4" relative="1" as="geometry">
            <mxPoint x="-17.25" y="-4" as="offset" />
          </mxGeometry>
        </mxCell>
        <mxCell id="bGx4uz6RafhUDcz5H6OV-0" value="&lt;div style=&quot;font-family: &amp;quot;droid sans mono&amp;quot;, monospace, monospace; font-size: 13px; line-height: 18px;&quot;&gt;&lt;/div&gt;&lt;font face=&quot;droid sans mono, monospace, monospace&quot; style=&quot;font-size: 13px;&quot;&gt;&lt;span style=&quot;font-size: 13px;&quot;&gt;north\jon.snow&lt;br style=&quot;font-size: 13px;&quot;&gt;&lt;/span&gt;&lt;/font&gt;" style="outlineConnect=0;dashed=0;verticalLabelPosition=bottom;verticalAlign=top;align=center;html=1;fontSize=13;fontStyle=0;aspect=fixed;pointerEvents=1;shape=mxgraph.aws4.user;labelBackgroundColor=#000000;fontColor=#FFFFFF;fillColor=#FFFFFF;strokeColor=#FFFFFF;" parent="ibhNdLfUEIW59064bE3n-1" vertex="1">
          <mxGeometry x="-491.75" y="675" width="40" height="40" as="geometry" />
        </mxCell>
        <mxCell id="Q8LpXQ9D0kiZg2cMLjGx-28" style="edgeStyle=orthogonalEdgeStyle;rounded=0;orthogonalLoop=1;jettySize=auto;html=1;fillColor=#ffe6cc;strokeColor=#d79b00;fontSize=13;labelBackgroundColor=#000000;fontColor=#FFFFFF;" parent="ibhNdLfUEIW59064bE3n-1" source="Q8LpXQ9D0kiZg2cMLjGx-0" target="x4zoPYqUssw_Yjl6Hxtt-1" edge="1">
          <mxGeometry relative="1" as="geometry">
            <Array as="points">
              <mxPoint x="-817" y="160" />
            </Array>
          </mxGeometry>
        </mxCell>
        <mxCell id="Q8LpXQ9D0kiZg2cMLjGx-29" value="LSASS" style="edgeLabel;html=1;align=center;verticalAlign=middle;resizable=0;points=[];fontSize=13;labelBackgroundColor=#000000;fontColor=#FFFFFF;" parent="Q8LpXQ9D0kiZg2cMLjGx-28" vertex="1" connectable="0">
          <mxGeometry x="-0.3112" y="1" relative="1" as="geometry">
            <mxPoint x="-39" as="offset" />
          </mxGeometry>
        </mxCell>
        <mxCell id="btbnTncfeBiOZsK3JCtP-4" style="edgeStyle=orthogonalEdgeStyle;rounded=0;orthogonalLoop=1;jettySize=auto;html=1;startArrow=none;startFill=0;fillColor=#dae8fc;strokeColor=#6c8ebf;strokeWidth=1;fontSize=13;labelBackgroundColor=#000000;fontColor=#FFFFFF;" parent="ibhNdLfUEIW59064bE3n-1" source="Q8LpXQ9D0kiZg2cMLjGx-0" target="WTYqIx6fJiAgnqFdJ9BY-0" edge="1">
          <mxGeometry relative="1" as="geometry">
            <Array as="points">
              <mxPoint x="-303" y="176" />
              <mxPoint x="-303" y="176" />
            </Array>
          </mxGeometry>
        </mxCell>
        <mxCell id="btbnTncfeBiOZsK3JCtP-5" value="&lt;ul&gt;&lt;li&gt;PTH local administrator password reuse&lt;/li&gt;&lt;li&gt;constrained delegation (no protocol transition)&lt;/li&gt;&lt;/ul&gt;" style="edgeLabel;html=1;align=left;verticalAlign=middle;resizable=0;points=[];fontSize=13;labelBackgroundColor=#000000;fontColor=#FFFFFF;" parent="btbnTncfeBiOZsK3JCtP-4" vertex="1" connectable="0">
          <mxGeometry x="0.1697" y="-3" relative="1" as="geometry">
            <mxPoint x="-186.50000000000003" y="-7" as="offset" />
          </mxGeometry>
        </mxCell>
        <mxCell id="Q8LpXQ9D0kiZg2cMLjGx-0" value="SRV02 -&amp;nbsp;castelblack&lt;br style=&quot;font-size: 13px;&quot;&gt;192.168.56.22" style="verticalLabelPosition=bottom;aspect=fixed;html=1;verticalAlign=top;strokeColor=none;align=center;outlineConnect=0;shape=mxgraph.citrix.web_server;fontSize=13;labelBackgroundColor=#000000;fontColor=#FFFFFF;" parent="ibhNdLfUEIW59064bE3n-1" vertex="1">
          <mxGeometry x="-510" y="140" width="76.5" height="90" as="geometry" />
        </mxCell>
        <mxCell id="Q8LpXQ9D0kiZg2cMLjGx-4" style="edgeStyle=orthogonalEdgeStyle;rounded=0;orthogonalLoop=1;jettySize=auto;html=1;fillColor=#ffe6cc;strokeColor=#d79b00;fontSize=13;labelBackgroundColor=#000000;fontColor=#FFFFFF;" parent="ibhNdLfUEIW59064bE3n-1" source="Q8LpXQ9D0kiZg2cMLjGx-1" target="Q8LpXQ9D0kiZg2cMLjGx-6" edge="1">
          <mxGeometry relative="1" as="geometry">
            <Array as="points">
              <mxPoint x="-840" y="320" />
              <mxPoint x="-840" y="320" />
            </Array>
          </mxGeometry>
        </mxCell>
        <mxCell id="Q8LpXQ9D0kiZg2cMLjGx-5" value="Anonymous user listing &lt;br&gt;+ password in description" style="edgeLabel;html=1;align=center;verticalAlign=middle;resizable=0;points=[];fontSize=13;labelBackgroundColor=#000000;fontColor=#FFFFFF;" parent="Q8LpXQ9D0kiZg2cMLjGx-4" vertex="1" connectable="0">
          <mxGeometry x="-0.3633" y="3" relative="1" as="geometry">
            <mxPoint x="47" y="-2" as="offset" />
          </mxGeometry>
        </mxCell>
        <mxCell id="Q8LpXQ9D0kiZg2cMLjGx-7" style="edgeStyle=orthogonalEdgeStyle;rounded=0;orthogonalLoop=1;jettySize=auto;html=1;fontSize=13;labelBackgroundColor=#000000;fontColor=#FFFFFF;strokeColor=#0e8088;fillColor=#b0e3e6;" parent="ibhNdLfUEIW59064bE3n-1" source="Q8LpXQ9D0kiZg2cMLjGx-1" target="x4zoPYqUssw_Yjl6Hxtt-1" edge="1">
          <mxGeometry relative="1" as="geometry">
            <Array as="points">
              <mxPoint x="-1110" y="100" />
            </Array>
          </mxGeometry>
        </mxCell>
        <mxCell id="Q8LpXQ9D0kiZg2cMLjGx-8" value="ntlm relay" style="edgeLabel;html=1;align=center;verticalAlign=middle;resizable=0;points=[];fontSize=13;labelBackgroundColor=#000000;fontColor=#FFFFFF;" parent="Q8LpXQ9D0kiZg2cMLjGx-7" vertex="1" connectable="0">
          <mxGeometry x="0.5297" y="3" relative="1" as="geometry">
            <mxPoint x="-56.5" y="1.5" as="offset" />
          </mxGeometry>
        </mxCell>
        <mxCell id="Q8LpXQ9D0kiZg2cMLjGx-14" style="edgeStyle=orthogonalEdgeStyle;rounded=0;orthogonalLoop=1;jettySize=auto;html=1;fontSize=13;labelBackgroundColor=#000000;fontColor=#FFFFFF;strokeColor=#0e8088;fillColor=#b0e3e6;" parent="ibhNdLfUEIW59064bE3n-1" source="Q8LpXQ9D0kiZg2cMLjGx-1" target="Q8LpXQ9D0kiZg2cMLjGx-13" edge="1">
          <mxGeometry relative="1" as="geometry">
            <Array as="points">
              <mxPoint x="-1146" y="20" />
            </Array>
          </mxGeometry>
        </mxCell>
        <mxCell id="Q8LpXQ9D0kiZg2cMLjGx-15" value="ntlm relay" style="edgeLabel;html=1;align=center;verticalAlign=middle;resizable=0;points=[];fontSize=13;labelBackgroundColor=#000000;fontColor=#FFFFFF;" parent="Q8LpXQ9D0kiZg2cMLjGx-14" vertex="1" connectable="0">
          <mxGeometry x="-0.1785" y="-96" relative="1" as="geometry">
            <mxPoint x="61" y="-6.5" as="offset" />
          </mxGeometry>
        </mxCell>
        <mxCell id="Q8LpXQ9D0kiZg2cMLjGx-20" style="edgeStyle=orthogonalEdgeStyle;rounded=0;orthogonalLoop=1;jettySize=auto;html=1;fillColor=#e1d5e7;strokeColor=#9673a6;fontSize=13;labelBackgroundColor=#000000;fontColor=#FFFFFF;" parent="ibhNdLfUEIW59064bE3n-1" source="Q8LpXQ9D0kiZg2cMLjGx-1" target="Q8LpXQ9D0kiZg2cMLjGx-0" edge="1">
          <mxGeometry relative="1" as="geometry">
            <Array as="points">
              <mxPoint x="-1060" y="297" />
              <mxPoint x="-1060" y="266" />
              <mxPoint x="-450" y="266" />
            </Array>
          </mxGeometry>
        </mxCell>
        <mxCell id="Q8LpXQ9D0kiZg2cMLjGx-21" value="IIS upload asp file" style="edgeLabel;html=1;align=center;verticalAlign=middle;resizable=0;points=[];fontSize=13;labelBackgroundColor=#000000;fontColor=#FFFFFF;" parent="Q8LpXQ9D0kiZg2cMLjGx-20" vertex="1" connectable="0">
          <mxGeometry x="-0.1416" y="-2" relative="1" as="geometry">
            <mxPoint x="4.8" y="-4" as="offset" />
          </mxGeometry>
        </mxCell>
        <mxCell id="Q8LpXQ9D0kiZg2cMLjGx-24" style="edgeStyle=orthogonalEdgeStyle;rounded=0;orthogonalLoop=1;jettySize=auto;html=1;fillColor=#ffe6cc;strokeColor=#d79b00;fontSize=13;labelBackgroundColor=#000000;fontColor=#FFFFFF;" parent="ibhNdLfUEIW59064bE3n-1" source="Q8LpXQ9D0kiZg2cMLjGx-1" target="Q8LpXQ9D0kiZg2cMLjGx-23" edge="1">
          <mxGeometry relative="1" as="geometry">
            <Array as="points">
              <mxPoint x="-1162" y="410" />
            </Array>
          </mxGeometry>
        </mxCell>
        <mxCell id="Q8LpXQ9D0kiZg2cMLjGx-25" value="asreproasting&lt;br style=&quot;font-size: 13px;&quot;&gt;+ hashcat" style="edgeLabel;html=1;align=center;verticalAlign=middle;resizable=0;points=[];fontSize=13;labelBackgroundColor=#000000;fontColor=#FFFFFF;" parent="Q8LpXQ9D0kiZg2cMLjGx-24" vertex="1" connectable="0">
          <mxGeometry x="-0.0173" y="-1" relative="1" as="geometry">
            <mxPoint as="offset" />
          </mxGeometry>
        </mxCell>
        <mxCell id="Q8LpXQ9D0kiZg2cMLjGx-26" style="edgeStyle=orthogonalEdgeStyle;rounded=0;orthogonalLoop=1;jettySize=auto;html=1;fillColor=#ffe6cc;strokeColor=#d79b00;fontSize=13;labelBackgroundColor=#000000;fontColor=#FFFFFF;" parent="ibhNdLfUEIW59064bE3n-1" source="Q8LpXQ9D0kiZg2cMLjGx-1" target="x4zoPYqUssw_Yjl6Hxtt-1" edge="1">
          <mxGeometry relative="1" as="geometry">
            <Array as="points">
              <mxPoint x="-1090" y="270" />
              <mxPoint x="-1090" y="130" />
            </Array>
          </mxGeometry>
        </mxCell>
        <mxCell id="Q8LpXQ9D0kiZg2cMLjGx-27" value="responder + hashcat" style="edgeLabel;html=1;align=center;verticalAlign=middle;resizable=0;points=[];fontSize=13;labelBackgroundColor=#000000;fontColor=#FFFFFF;" parent="Q8LpXQ9D0kiZg2cMLjGx-26" vertex="1" connectable="0">
          <mxGeometry x="0.2383" y="-3" relative="1" as="geometry">
            <mxPoint as="offset" />
          </mxGeometry>
        </mxCell>
        <mxCell id="Q8LpXQ9D0kiZg2cMLjGx-33" style="edgeStyle=orthogonalEdgeStyle;rounded=0;orthogonalLoop=1;jettySize=auto;html=1;fillColor=#ffe6cc;strokeColor=#d79b00;fontSize=13;labelBackgroundColor=#000000;fontColor=#FFFFFF;" parent="ibhNdLfUEIW59064bE3n-1" source="Q8LpXQ9D0kiZg2cMLjGx-1" target="Q8LpXQ9D0kiZg2cMLjGx-32" edge="1">
          <mxGeometry relative="1" as="geometry">
            <Array as="points">
              <mxPoint x="-1162" y="586" />
            </Array>
          </mxGeometry>
        </mxCell>
        <mxCell id="Q8LpXQ9D0kiZg2cMLjGx-34" value="password spray" style="edgeLabel;html=1;align=center;verticalAlign=middle;resizable=0;points=[];fontSize=13;labelBackgroundColor=#000000;fontColor=#FFFFFF;" parent="Q8LpXQ9D0kiZg2cMLjGx-33" vertex="1" connectable="0">
          <mxGeometry x="0.2323" y="2" relative="1" as="geometry">
            <mxPoint x="-45" y="-10" as="offset" />
          </mxGeometry>
        </mxCell>
        <mxCell id="btbnTncfeBiOZsK3JCtP-14" value="user=pass" style="edgeLabel;html=1;align=center;verticalAlign=middle;resizable=0;points=[];fontSize=13;labelBackgroundColor=#000000;fontColor=#FFFFFF;" parent="Q8LpXQ9D0kiZg2cMLjGx-33" vertex="1" connectable="0">
          <mxGeometry x="0.5636" y="2" relative="1" as="geometry">
            <mxPoint x="15" as="offset" />
          </mxGeometry>
        </mxCell>
        <mxCell id="btbnTncfeBiOZsK3JCtP-29" style="edgeStyle=orthogonalEdgeStyle;rounded=0;orthogonalLoop=1;jettySize=auto;html=1;startArrow=none;startFill=0;fillColor=#fff2cc;strokeColor=#d6b656;strokeWidth=1;fontSize=13;labelBackgroundColor=#000000;fontColor=#FFFFFF;" parent="ibhNdLfUEIW59064bE3n-1" source="Q8LpXQ9D0kiZg2cMLjGx-1" target="Q8LpXQ9D0kiZg2cMLjGx-53" edge="1">
          <mxGeometry relative="1" as="geometry">
            <Array as="points">
              <mxPoint x="-1162" y="489" />
            </Array>
          </mxGeometry>
        </mxCell>
        <mxCell id="btbnTncfeBiOZsK3JCtP-30" value="password in shares" style="edgeLabel;html=1;align=center;verticalAlign=middle;resizable=0;points=[];fontSize=13;labelBackgroundColor=#000000;fontColor=#FFFFFF;" parent="btbnTncfeBiOZsK3JCtP-29" vertex="1" connectable="0">
          <mxGeometry x="-0.4008" y="74" relative="1" as="geometry">
            <mxPoint x="48" as="offset" />
          </mxGeometry>
        </mxCell>
        <mxCell id="KgqBp-2F8nMPmvM_qDMR-2" style="edgeStyle=orthogonalEdgeStyle;rounded=0;orthogonalLoop=1;jettySize=auto;html=1;startArrow=none;startFill=0;fillColor=#dae8fc;strokeColor=#6c8ebf;strokeWidth=1;fontSize=13;labelBackgroundColor=#000000;fontColor=#FFFFFF;" parent="ibhNdLfUEIW59064bE3n-1" source="Q8LpXQ9D0kiZg2cMLjGx-1" target="KgqBp-2F8nMPmvM_qDMR-0" edge="1">
          <mxGeometry relative="1" as="geometry">
            <Array as="points">
              <mxPoint x="-1162" y="837" />
              <mxPoint x="-38" y="837" />
            </Array>
          </mxGeometry>
        </mxCell>
        <mxCell id="KgqBp-2F8nMPmvM_qDMR-3" value="&lt;ul&gt;&lt;li&gt;petitpotam unauth + get hash netntlmv1&lt;/li&gt;&lt;li&gt;petitpotam unauth + ESC8 (relay on srv03 CA)&lt;/li&gt;&lt;li&gt;printnightmare&lt;/li&gt;&lt;li&gt;zerologon&lt;/li&gt;&lt;/ul&gt;" style="edgeLabel;html=1;align=left;verticalAlign=middle;resizable=0;points=[];fontSize=13;labelBackgroundColor=#000000;fontColor=#FFFFFF;" parent="KgqBp-2F8nMPmvM_qDMR-2" vertex="1" connectable="0">
          <mxGeometry x="0.4979" y="-1" relative="1" as="geometry">
            <mxPoint x="-748" y="-2" as="offset" />
          </mxGeometry>
        </mxCell>
        <mxCell id="N_L632Vz1XLPF-QQKONr-32" style="edgeStyle=orthogonalEdgeStyle;rounded=0;orthogonalLoop=1;jettySize=auto;html=1;startArrow=none;startFill=0;strokeWidth=1;fillColor=#ffe6cc;strokeColor=#d79b00;fontSize=13;labelBackgroundColor=#000000;fontColor=#FFFFFF;" parent="ibhNdLfUEIW59064bE3n-1" source="Q8LpXQ9D0kiZg2cMLjGx-1" target="N_L632Vz1XLPF-QQKONr-20" edge="1">
          <mxGeometry relative="1" as="geometry">
            <Array as="points">
              <mxPoint x="-1179" y="1164" />
            </Array>
          </mxGeometry>
        </mxCell>
        <mxCell id="N_L632Vz1XLPF-QQKONr-33" value="asreproast +&amp;nbsp;&lt;br style=&quot;font-size: 13px;&quot;&gt;hashcat" style="edgeLabel;html=1;align=center;verticalAlign=middle;resizable=0;points=[];fontSize=13;labelBackgroundColor=#000000;fontColor=#FFFFFF;" parent="N_L632Vz1XLPF-QQKONr-32" vertex="1" connectable="0">
          <mxGeometry x="0.5856" y="-2" relative="1" as="geometry">
            <mxPoint as="offset" />
          </mxGeometry>
        </mxCell>
        <mxCell id="N_L632Vz1XLPF-QQKONr-117" style="edgeStyle=orthogonalEdgeStyle;rounded=0;orthogonalLoop=1;jettySize=auto;html=1;startArrow=none;startFill=0;strokeWidth=1;fillColor=#ffe6cc;strokeColor=#d79b00;fontSize=13;labelBackgroundColor=#000000;fontColor=#FFFFFF;" parent="ibhNdLfUEIW59064bE3n-1" source="Q8LpXQ9D0kiZg2cMLjGx-1" target="btbnTncfeBiOZsK3JCtP-16" edge="1">
          <mxGeometry relative="1" as="geometry">
            <mxPoint x="-809" y="-71" as="targetPoint" />
            <Array as="points">
              <mxPoint x="-1162" y="-83" />
            </Array>
          </mxGeometry>
        </mxCell>
        <mxCell id="N_L632Vz1XLPF-QQKONr-118" value="password in sysvol" style="edgeLabel;html=1;align=center;verticalAlign=middle;resizable=0;points=[];fontSize=13;labelBackgroundColor=#000000;fontColor=#FFFFFF;" parent="N_L632Vz1XLPF-QQKONr-117" vertex="1" connectable="0">
          <mxGeometry x="-0.0459" y="-115" relative="1" as="geometry">
            <mxPoint x="8" y="-8.33" as="offset" />
          </mxGeometry>
        </mxCell>
        <mxCell id="ZtAfeylzl2Nh7kbikaWt-3" style="edgeStyle=orthogonalEdgeStyle;rounded=0;orthogonalLoop=1;jettySize=auto;html=1;strokeWidth=1;fontSize=13;fillColor=#f8cecc;strokeColor=#b85450;labelBackgroundColor=#000000;fontColor=#FFFFFF;" parent="ibhNdLfUEIW59064bE3n-1" source="Q8LpXQ9D0kiZg2cMLjGx-1" target="btbnTncfeBiOZsK3JCtP-0" edge="1">
          <mxGeometry relative="1" as="geometry">
            <Array as="points">
              <mxPoint x="-1169" y="919" />
            </Array>
          </mxGeometry>
        </mxCell>
        <mxCell id="ZtAfeylzl2Nh7kbikaWt-4" value="-printnightmare" style="edgeLabel;html=1;align=center;verticalAlign=middle;resizable=0;points=[];fontSize=13;labelBackgroundColor=#000000;fontColor=#FFFFFF;" parent="ZtAfeylzl2Nh7kbikaWt-3" vertex="1" connectable="0">
          <mxGeometry x="-0.0699" y="73" relative="1" as="geometry">
            <mxPoint x="94" y="71.75" as="offset" />
          </mxGeometry>
        </mxCell>
        <mxCell id="Q8LpXQ9D0kiZg2cMLjGx-1" value="Attacker" style="verticalLabelPosition=bottom;aspect=fixed;html=1;verticalAlign=top;strokeColor=none;align=center;outlineConnect=0;shape=mxgraph.citrix.laptop_2;fontSize=13;labelBackgroundColor=#000000;fontColor=#FFFFFF;" parent="ibhNdLfUEIW59064bE3n-1" vertex="1">
          <mxGeometry x="-1220" y="253.5" width="116" height="86.5" as="geometry" />
        </mxCell>
        <mxCell id="Q8LpXQ9D0kiZg2cMLjGx-41" style="edgeStyle=orthogonalEdgeStyle;rounded=0;orthogonalLoop=1;jettySize=auto;html=1;fillColor=#e1d5e7;strokeColor=#9673a6;fontSize=13;labelBackgroundColor=#000000;fontColor=#FFFFFF;" parent="ibhNdLfUEIW59064bE3n-1" source="Q8LpXQ9D0kiZg2cMLjGx-6" target="Q8LpXQ9D0kiZg2cMLjGx-45" edge="1">
          <mxGeometry relative="1" as="geometry">
            <mxPoint x="-412" y="285" as="targetPoint" />
            <Array as="points">
              <mxPoint x="-416" y="330" />
            </Array>
          </mxGeometry>
        </mxCell>
        <mxCell id="Q8LpXQ9D0kiZg2cMLjGx-42" value="mssql execute as login sa" style="edgeLabel;html=1;align=center;verticalAlign=middle;resizable=0;points=[];fontSize=13;labelBackgroundColor=#000000;fontColor=#FFFFFF;" parent="Q8LpXQ9D0kiZg2cMLjGx-41" vertex="1" connectable="0">
          <mxGeometry x="-0.0492" relative="1" as="geometry">
            <mxPoint as="offset" />
          </mxGeometry>
        </mxCell>
        <mxCell id="btbnTncfeBiOZsK3JCtP-20" style="edgeStyle=orthogonalEdgeStyle;rounded=0;orthogonalLoop=1;jettySize=auto;html=1;startArrow=none;startFill=0;fillColor=#dae8fc;strokeColor=#6c8ebf;fontSize=13;labelBackgroundColor=#000000;fontColor=#FFFFFF;" parent="ibhNdLfUEIW59064bE3n-1" source="Q8LpXQ9D0kiZg2cMLjGx-6" target="WTYqIx6fJiAgnqFdJ9BY-0" edge="1">
          <mxGeometry relative="1" as="geometry">
            <mxPoint x="-234" y="354" as="targetPoint" />
            <Array as="points">
              <mxPoint x="-807" y="354" />
              <mxPoint x="-44" y="354" />
            </Array>
          </mxGeometry>
        </mxCell>
        <mxCell id="btbnTncfeBiOZsK3JCtP-21" value="GPO abuse" style="edgeLabel;html=1;align=center;verticalAlign=middle;resizable=0;points=[];fontSize=13;labelBackgroundColor=#000000;fontColor=#FFFFFF;" parent="btbnTncfeBiOZsK3JCtP-20" vertex="1" connectable="0">
          <mxGeometry x="0.655" y="-2" relative="1" as="geometry">
            <mxPoint x="-161.97" y="-1" as="offset" />
          </mxGeometry>
        </mxCell>
        <mxCell id="Q8LpXQ9D0kiZg2cMLjGx-6" value="&lt;div style=&quot;font-family: &amp;quot;droid sans mono&amp;quot;, monospace, monospace; font-size: 13px; line-height: 18px;&quot;&gt;&lt;/div&gt;&lt;font face=&quot;droid sans mono, monospace, monospace&quot; style=&quot;font-size: 13px;&quot;&gt;&lt;span style=&quot;font-size: 13px;&quot;&gt;&lt;span style=&quot;font-size: 13px;&quot;&gt;north\samwell.tarly&lt;/span&gt;&lt;br style=&quot;font-size: 13px;&quot;&gt;&lt;/span&gt;&lt;/font&gt;" style="outlineConnect=0;dashed=0;verticalLabelPosition=bottom;verticalAlign=top;align=center;html=1;fontSize=13;fontStyle=0;aspect=fixed;pointerEvents=1;shape=mxgraph.aws4.user;labelBackgroundColor=#000000;fontColor=#FFFFFF;fillColor=#FFFFFF;strokeColor=#FFFFFF;" parent="ibhNdLfUEIW59064bE3n-1" vertex="1">
          <mxGeometry x="-827" y="290" width="40" height="40" as="geometry" />
        </mxCell>
        <mxCell id="Q8LpXQ9D0kiZg2cMLjGx-10" style="edgeStyle=orthogonalEdgeStyle;rounded=0;orthogonalLoop=1;jettySize=auto;html=1;fillColor=#ffe6cc;strokeColor=#d79b00;fontSize=13;labelBackgroundColor=#000000;fontColor=#FFFFFF;" parent="ibhNdLfUEIW59064bE3n-1" source="Q8LpXQ9D0kiZg2cMLjGx-40" target="bGx4uz6RafhUDcz5H6OV-0" edge="1">
          <mxGeometry relative="1" as="geometry">
            <mxPoint x="-671" y="768.8000000000002" as="sourcePoint" />
            <Array as="points">
              <mxPoint x="-472" y="617" />
            </Array>
          </mxGeometry>
        </mxCell>
        <mxCell id="Q8LpXQ9D0kiZg2cMLjGx-11" value="kerberoasting&amp;nbsp;&lt;br style=&quot;font-size: 13px;&quot;&gt;&amp;nbsp;+ hashcat" style="edgeLabel;html=1;align=center;verticalAlign=middle;resizable=0;points=[];fontSize=13;labelBackgroundColor=#000000;fontColor=#FFFFFF;" parent="Q8LpXQ9D0kiZg2cMLjGx-10" vertex="1" connectable="0">
          <mxGeometry x="0.0004" y="12" relative="1" as="geometry">
            <mxPoint x="-12" y="12" as="offset" />
          </mxGeometry>
        </mxCell>
        <mxCell id="Q8LpXQ9D0kiZg2cMLjGx-12" value="" style="group;fontSize=13;labelBackgroundColor=#000000;fontColor=#FFFFFF;" parent="ibhNdLfUEIW59064bE3n-1" vertex="1" connectable="0">
          <mxGeometry x="-827" y="-8.5" width="50" height="48.5" as="geometry" />
        </mxCell>
        <mxCell id="Q8LpXQ9D0kiZg2cMLjGx-13" value="&lt;div style=&quot;font-family: &amp;quot;droid sans mono&amp;quot;, monospace, monospace; font-size: 13px; line-height: 18px;&quot;&gt;&lt;/div&gt;&lt;font face=&quot;droid sans mono, monospace, monospace&quot; style=&quot;font-size: 13px;&quot;&gt;&lt;span style=&quot;font-size: 13px;&quot;&gt;north\eddard.stark&lt;br style=&quot;font-size: 13px;&quot;&gt;&lt;/span&gt;&lt;/font&gt;" style="outlineConnect=0;dashed=0;verticalLabelPosition=bottom;verticalAlign=top;align=center;html=1;fontSize=13;fontStyle=0;aspect=fixed;pointerEvents=1;shape=mxgraph.aws4.user;labelBackgroundColor=#000000;fontColor=#FFFFFF;fillColor=#FFFFFF;strokeColor=#FFFFFF;" parent="Q8LpXQ9D0kiZg2cMLjGx-12" vertex="1">
          <mxGeometry width="40" height="40" as="geometry" />
        </mxCell>
        <mxCell id="Q8LpXQ9D0kiZg2cMLjGx-16" style="edgeStyle=orthogonalEdgeStyle;rounded=0;orthogonalLoop=1;jettySize=auto;html=1;fillColor=#f8cecc;strokeColor=#b85450;fontSize=13;labelBackgroundColor=#000000;fontColor=#FFFFFF;" parent="ibhNdLfUEIW59064bE3n-1" source="Q8LpXQ9D0kiZg2cMLjGx-13" target="Q8LpXQ9D0kiZg2cMLjGx-0" edge="1">
          <mxGeometry relative="1" as="geometry" />
        </mxCell>
        <mxCell id="Q8LpXQ9D0kiZg2cMLjGx-19" value="ntlm relay admin" style="edgeLabel;html=1;align=center;verticalAlign=middle;resizable=0;points=[];fontSize=13;labelBackgroundColor=#000000;fontColor=#FFFFFF;" parent="Q8LpXQ9D0kiZg2cMLjGx-16" vertex="1" connectable="0">
          <mxGeometry x="-0.2249" y="-1" relative="1" as="geometry">
            <mxPoint y="1" as="offset" />
          </mxGeometry>
        </mxCell>
        <mxCell id="Q8LpXQ9D0kiZg2cMLjGx-17" style="edgeStyle=orthogonalEdgeStyle;rounded=0;orthogonalLoop=1;jettySize=auto;html=1;fillColor=#f8cecc;strokeColor=#b85450;fontSize=13;labelBackgroundColor=#000000;fontColor=#FFFFFF;" parent="ibhNdLfUEIW59064bE3n-1" source="x4zoPYqUssw_Yjl6Hxtt-1" target="Q8LpXQ9D0kiZg2cMLjGx-0" edge="1">
          <mxGeometry relative="1" as="geometry">
            <Array as="points">
              <mxPoint x="-472" y="102" />
            </Array>
          </mxGeometry>
        </mxCell>
        <mxCell id="Q8LpXQ9D0kiZg2cMLjGx-18" value="ntlm relay" style="edgeLabel;html=1;align=center;verticalAlign=middle;resizable=0;points=[];fontSize=13;labelBackgroundColor=#000000;fontColor=#FFFFFF;" parent="Q8LpXQ9D0kiZg2cMLjGx-17" vertex="1" connectable="0">
          <mxGeometry x="0.0498" y="-1" relative="1" as="geometry">
            <mxPoint x="-3" y="6.5" as="offset" />
          </mxGeometry>
        </mxCell>
        <mxCell id="Q8LpXQ9D0kiZg2cMLjGx-43" style="edgeStyle=orthogonalEdgeStyle;rounded=0;orthogonalLoop=1;jettySize=auto;html=1;fillColor=#e1d5e7;strokeColor=#9673a6;fontSize=13;labelBackgroundColor=#000000;fontColor=#FFFFFF;" parent="ibhNdLfUEIW59064bE3n-1" source="Q8LpXQ9D0kiZg2cMLjGx-23" target="Q8LpXQ9D0kiZg2cMLjGx-45" edge="1">
          <mxGeometry relative="1" as="geometry">
            <Array as="points">
              <mxPoint x="-416" y="419" />
            </Array>
          </mxGeometry>
        </mxCell>
        <mxCell id="Q8LpXQ9D0kiZg2cMLjGx-44" value="mssql execute as login jon.snow" style="edgeLabel;html=1;align=center;verticalAlign=middle;resizable=0;points=[];fontSize=13;labelBackgroundColor=#000000;fontColor=#FFFFFF;" parent="Q8LpXQ9D0kiZg2cMLjGx-43" vertex="1" connectable="0">
          <mxGeometry x="-0.2295" y="-3" relative="1" as="geometry">
            <mxPoint as="offset" />
          </mxGeometry>
        </mxCell>
        <mxCell id="Q8LpXQ9D0kiZg2cMLjGx-23" value="&lt;div style=&quot;font-family: &amp;quot;droid sans mono&amp;quot;, monospace, monospace; font-size: 13px; line-height: 18px;&quot;&gt;&lt;/div&gt;&lt;font face=&quot;droid sans mono, monospace, monospace&quot; style=&quot;font-size: 13px;&quot;&gt;&lt;span style=&quot;font-size: 13px;&quot;&gt;&lt;span style=&quot;font-size: 13px;&quot;&gt;north\&lt;/span&gt;&lt;span style=&quot;font-size: 13px;&quot;&gt;brandon.stark&lt;/span&gt;&lt;br style=&quot;font-size: 13px;&quot;&gt;&lt;/span&gt;&lt;/font&gt;" style="outlineConnect=0;dashed=0;verticalLabelPosition=bottom;verticalAlign=top;align=center;html=1;fontSize=13;fontStyle=0;aspect=fixed;pointerEvents=1;shape=mxgraph.aws4.user;labelBackgroundColor=#000000;fontColor=#FFFFFF;fillColor=#FFFFFF;strokeColor=#FFFFFF;" parent="ibhNdLfUEIW59064bE3n-1" vertex="1">
          <mxGeometry x="-829" y="377" width="40" height="40" as="geometry" />
        </mxCell>
        <mxCell id="Q8LpXQ9D0kiZg2cMLjGx-32" value="&lt;div style=&quot;font-family: &amp;quot;droid sans mono&amp;quot;, monospace, monospace; font-size: 13px; line-height: 18px;&quot;&gt;&lt;/div&gt;&lt;font face=&quot;droid sans mono, monospace, monospace&quot; style=&quot;font-size: 13px;&quot;&gt;&lt;span style=&quot;font-size: 13px;&quot;&gt;&lt;span style=&quot;font-size: 13px;&quot;&gt;north\&lt;/span&gt;&lt;span style=&quot;font-size: 13px;&quot;&gt;hodor&lt;/span&gt;&lt;br style=&quot;font-size: 13px;&quot;&gt;&lt;/span&gt;&lt;/font&gt;" style="outlineConnect=0;dashed=0;verticalLabelPosition=bottom;verticalAlign=top;align=center;html=1;fontSize=13;fontStyle=0;aspect=fixed;pointerEvents=1;shape=mxgraph.aws4.user;labelBackgroundColor=#000000;fontColor=#FFFFFF;fillColor=#FFFFFF;strokeColor=#FFFFFF;" parent="ibhNdLfUEIW59064bE3n-1" vertex="1">
          <mxGeometry x="-827" y="558" width="40" height="40" as="geometry" />
        </mxCell>
        <mxCell id="N_L632Vz1XLPF-QQKONr-108" style="edgeStyle=orthogonalEdgeStyle;rounded=0;orthogonalLoop=1;jettySize=auto;html=1;startArrow=none;startFill=0;strokeWidth=1;fillColor=#dae8fc;strokeColor=#6c8ebf;fontSize=13;labelBackgroundColor=#000000;fontColor=#FFFFFF;" parent="ibhNdLfUEIW59064bE3n-1" source="Q8LpXQ9D0kiZg2cMLjGx-40" target="WTYqIx6fJiAgnqFdJ9BY-0" edge="1">
          <mxGeometry relative="1" as="geometry">
            <Array as="points">
              <mxPoint x="-44" y="595" />
            </Array>
          </mxGeometry>
        </mxCell>
        <mxCell id="N_L632Vz1XLPF-QQKONr-109" value="sam account name (NOPAC)" style="edgeLabel;html=1;align=center;verticalAlign=middle;resizable=0;points=[];fontSize=13;labelBackgroundColor=#000000;fontColor=#FFFFFF;" parent="N_L632Vz1XLPF-QQKONr-108" vertex="1" connectable="0">
          <mxGeometry x="-0.1098" y="2" relative="1" as="geometry">
            <mxPoint as="offset" />
          </mxGeometry>
        </mxCell>
        <mxCell id="N_L632Vz1XLPF-QQKONr-121" style="edgeStyle=orthogonalEdgeStyle;rounded=0;orthogonalLoop=1;jettySize=auto;html=1;startArrow=none;startFill=0;strokeWidth=1;fillColor=#fff2cc;strokeColor=#d6b656;fontSize=13;labelBackgroundColor=#000000;fontColor=#FFFFFF;" parent="ibhNdLfUEIW59064bE3n-1" source="Q8LpXQ9D0kiZg2cMLjGx-40" target="btbnTncfeBiOZsK3JCtP-9" edge="1">
          <mxGeometry relative="1" as="geometry">
            <Array as="points">
              <mxPoint x="-590" y="642" />
            </Array>
          </mxGeometry>
        </mxCell>
        <mxCell id="N_L632Vz1XLPF-QQKONr-122" value="kerberoasting&amp;nbsp;&lt;br style=&quot;font-size: 13px;&quot;&gt;+ hashcat (keywalking)" style="edgeLabel;html=1;align=center;verticalAlign=middle;resizable=0;points=[];fontSize=13;labelBackgroundColor=#000000;fontColor=#FFFFFF;" parent="N_L632Vz1XLPF-QQKONr-121" vertex="1" connectable="0">
          <mxGeometry x="0.7063" y="-1" relative="1" as="geometry">
            <mxPoint as="offset" />
          </mxGeometry>
        </mxCell>
        <mxCell id="N_L632Vz1XLPF-QQKONr-125" style="edgeStyle=orthogonalEdgeStyle;rounded=0;orthogonalLoop=1;jettySize=auto;html=1;startArrow=none;startFill=0;strokeWidth=1;fillColor=#f8cecc;strokeColor=#b85450;fontSize=13;labelBackgroundColor=#000000;fontColor=#FFFFFF;" parent="ibhNdLfUEIW59064bE3n-1" source="Q8LpXQ9D0kiZg2cMLjGx-40" target="Q8LpXQ9D0kiZg2cMLjGx-0" edge="1">
          <mxGeometry relative="1" as="geometry">
            <Array as="points">
              <mxPoint x="-472" y="572" />
            </Array>
          </mxGeometry>
        </mxCell>
        <mxCell id="N_L632Vz1XLPF-QQKONr-126" value="webdav + RBCD" style="edgeLabel;html=1;align=center;verticalAlign=middle;resizable=0;points=[];fontSize=13;labelBackgroundColor=#000000;fontColor=#FFFFFF;" parent="N_L632Vz1XLPF-QQKONr-125" vertex="1" connectable="0">
          <mxGeometry x="-0.5362" y="3" relative="1" as="geometry">
            <mxPoint as="offset" />
          </mxGeometry>
        </mxCell>
        <mxCell id="Q8LpXQ9D0kiZg2cMLjGx-40" value="north domain account" style="verticalLabelPosition=bottom;aspect=fixed;html=1;verticalAlign=top;strokeColor=none;align=center;outlineConnect=0;shape=mxgraph.citrix.access_card;fontSize=13;labelBackgroundColor=#000000;fontColor=#FFFFFF;" parent="ibhNdLfUEIW59064bE3n-1" vertex="1">
          <mxGeometry x="-702" y="570" width="55.5" height="75" as="geometry" />
        </mxCell>
        <mxCell id="btbnTncfeBiOZsK3JCtP-2" style="edgeStyle=orthogonalEdgeStyle;rounded=0;orthogonalLoop=1;jettySize=auto;html=1;startArrow=classic;startFill=1;fillColor=#f8cecc;strokeColor=#b85450;fontSize=13;labelBackgroundColor=#000000;fontColor=#FFFFFF;" parent="ibhNdLfUEIW59064bE3n-1" source="Q8LpXQ9D0kiZg2cMLjGx-45" target="btbnTncfeBiOZsK3JCtP-1" edge="1">
          <mxGeometry relative="1" as="geometry">
            <Array as="points">
              <mxPoint x="-366" y="210" />
              <mxPoint x="-366" y="991" />
            </Array>
          </mxGeometry>
        </mxCell>
        <mxCell id="btbnTncfeBiOZsK3JCtP-3" value="MSSQL trust link&lt;br style=&quot;font-size: 13px;&quot;&gt;as SA" style="edgeLabel;html=1;align=center;verticalAlign=middle;resizable=0;points=[];fontSize=13;labelBackgroundColor=#000000;fontColor=#FFFFFF;" parent="btbnTncfeBiOZsK3JCtP-2" vertex="1" connectable="0">
          <mxGeometry x="0.1879" y="1" relative="1" as="geometry">
            <mxPoint x="22" y="-187.6" as="offset" />
          </mxGeometry>
        </mxCell>
        <mxCell id="Q8LpXQ9D0kiZg2cMLjGx-45" value="" style="verticalLabelPosition=bottom;aspect=fixed;html=1;verticalAlign=top;strokeColor=none;align=center;outlineConnect=0;shape=mxgraph.citrix.database;fontSize=13;labelBackgroundColor=#000000;fontColor=#FFFFFF;" parent="ibhNdLfUEIW59064bE3n-1" vertex="1">
          <mxGeometry x="-431" y="192" width="30.6" height="36" as="geometry" />
        </mxCell>
        <mxCell id="Q8LpXQ9D0kiZg2cMLjGx-46" style="edgeStyle=orthogonalEdgeStyle;rounded=0;orthogonalLoop=1;jettySize=auto;html=1;fillColor=#f8cecc;strokeColor=#b85450;fontSize=13;labelBackgroundColor=#000000;fontColor=#FFFFFF;" parent="ibhNdLfUEIW59064bE3n-1" source="Q8LpXQ9D0kiZg2cMLjGx-45" target="Q8LpXQ9D0kiZg2cMLjGx-0" edge="1">
          <mxGeometry relative="1" as="geometry" />
        </mxCell>
        <mxCell id="Q8LpXQ9D0kiZg2cMLjGx-47" value="privesc (seImpersonate)" style="edgeLabel;html=1;align=center;verticalAlign=middle;resizable=0;points=[];fontSize=13;labelBackgroundColor=#000000;fontColor=#FFFFFF;" parent="Q8LpXQ9D0kiZg2cMLjGx-46" vertex="1" connectable="0">
          <mxGeometry x="0.3867" relative="1" as="geometry">
            <mxPoint x="-76" y="-3" as="offset" />
          </mxGeometry>
        </mxCell>
        <mxCell id="Q8LpXQ9D0kiZg2cMLjGx-54" style="edgeStyle=orthogonalEdgeStyle;rounded=0;orthogonalLoop=1;jettySize=auto;html=1;fillColor=#e1d5e7;strokeColor=#9673a6;fontSize=13;labelBackgroundColor=#000000;fontColor=#FFFFFF;" parent="ibhNdLfUEIW59064bE3n-1" source="Q8LpXQ9D0kiZg2cMLjGx-53" target="Q8LpXQ9D0kiZg2cMLjGx-45" edge="1">
          <mxGeometry relative="1" as="geometry">
            <Array as="points">
              <mxPoint x="-416" y="491" />
            </Array>
          </mxGeometry>
        </mxCell>
        <mxCell id="Q8LpXQ9D0kiZg2cMLjGx-55" value="executeasuser&lt;br style=&quot;font-size: 13px;&quot;&gt;" style="edgeLabel;html=1;align=center;verticalAlign=middle;resizable=0;points=[];fontSize=13;labelBackgroundColor=#000000;fontColor=#FFFFFF;" parent="Q8LpXQ9D0kiZg2cMLjGx-54" vertex="1" connectable="0">
          <mxGeometry x="-0.2568" relative="1" as="geometry">
            <mxPoint x="-25" as="offset" />
          </mxGeometry>
        </mxCell>
        <mxCell id="Q8LpXQ9D0kiZg2cMLjGx-53" value="&lt;div style=&quot;font-family: &amp;quot;droid sans mono&amp;quot;, monospace, monospace; font-size: 13px; line-height: 18px;&quot;&gt;&lt;/div&gt;&lt;font face=&quot;droid sans mono, monospace, monospace&quot; style=&quot;font-size: 13px;&quot;&gt;&lt;span style=&quot;font-size: 13px;&quot;&gt;&lt;span style=&quot;font-size: 13px;&quot;&gt;north\arya.stark&lt;/span&gt;&lt;br style=&quot;font-size: 13px;&quot;&gt;&lt;/span&gt;&lt;/font&gt;" style="outlineConnect=0;dashed=0;verticalLabelPosition=bottom;verticalAlign=top;align=center;html=1;fontSize=13;fontStyle=0;aspect=fixed;pointerEvents=1;shape=mxgraph.aws4.user;labelBackgroundColor=#000000;fontColor=#FFFFFF;fillColor=#FFFFFF;strokeColor=#FFFFFF;" parent="ibhNdLfUEIW59064bE3n-1" vertex="1">
          <mxGeometry x="-827" y="463" width="40" height="40" as="geometry" />
        </mxCell>
        <mxCell id="KgqBp-2F8nMPmvM_qDMR-8" style="edgeStyle=orthogonalEdgeStyle;rounded=0;orthogonalLoop=1;jettySize=auto;html=1;startArrow=none;startFill=0;fillColor=#b1ddf0;strokeColor=#10739e;fontSize=13;labelBackgroundColor=#000000;fontColor=#FFFFFF;" parent="ibhNdLfUEIW59064bE3n-1" source="KgqBp-2F8nMPmvM_qDMR-5" target="KgqBp-2F8nMPmvM_qDMR-0" edge="1">
          <mxGeometry relative="1" as="geometry">
            <Array as="points">
              <mxPoint x="-697" y="964" />
              <mxPoint x="-418" y="964" />
              <mxPoint x="-418" y="945" />
            </Array>
          </mxGeometry>
        </mxCell>
        <mxCell id="KgqBp-2F8nMPmvM_qDMR-10" value="coerce + drop the mic" style="edgeLabel;html=1;align=center;verticalAlign=middle;resizable=0;points=[];fontSize=13;labelBackgroundColor=#000000;fontColor=#FFFFFF;" parent="KgqBp-2F8nMPmvM_qDMR-8" vertex="1" connectable="0">
          <mxGeometry x="-0.0896" y="-2" relative="1" as="geometry">
            <mxPoint x="-178.8" y="-9.999999999999996" as="offset" />
          </mxGeometry>
        </mxCell>
        <mxCell id="N_L632Vz1XLPF-QQKONr-10" style="edgeStyle=orthogonalEdgeStyle;rounded=0;orthogonalLoop=1;jettySize=auto;html=1;startArrow=none;startFill=0;strokeWidth=1;fillColor=#fff2cc;strokeColor=#d6b656;fontSize=13;labelBackgroundColor=#000000;fontColor=#FFFFFF;" parent="ibhNdLfUEIW59064bE3n-1" source="btbnTncfeBiOZsK3JCtP-0" target="N_L632Vz1XLPF-QQKONr-9" edge="1">
          <mxGeometry relative="1" as="geometry">
            <Array as="points">
              <mxPoint x="-277" y="970" />
              <mxPoint x="-277" y="1129" />
            </Array>
          </mxGeometry>
        </mxCell>
        <mxCell id="n8LINvt_xImtMH9ACq0t-6" value="&lt;font&gt;read gmsa password&lt;/font&gt;" style="edgeLabel;html=1;align=center;verticalAlign=middle;resizable=0;points=[];fontSize=13;labelBackgroundColor=none;fontColor=#FFFFFF;" parent="N_L632Vz1XLPF-QQKONr-10" vertex="1" connectable="0">
          <mxGeometry x="0.4848" y="1" relative="1" as="geometry">
            <mxPoint as="offset" />
          </mxGeometry>
        </mxCell>
        <mxCell id="btbnTncfeBiOZsK3JCtP-1" value="" style="verticalLabelPosition=bottom;aspect=fixed;html=1;verticalAlign=top;strokeColor=none;align=center;outlineConnect=0;shape=mxgraph.citrix.database;fontSize=13;labelBackgroundColor=#000000;fontColor=#FFFFFF;" parent="ibhNdLfUEIW59064bE3n-1" vertex="1">
          <mxGeometry x="-422" y="973" width="30.6" height="36" as="geometry" />
        </mxCell>
        <mxCell id="btbnTncfeBiOZsK3JCtP-6" value="" style="group;fontSize=13;labelBackgroundColor=#000000;fontColor=#FFFFFF;" parent="ibhNdLfUEIW59064bE3n-1" vertex="1" connectable="0">
          <mxGeometry x="-832" y="-180" width="50" height="48.5" as="geometry" />
        </mxCell>
        <mxCell id="btbnTncfeBiOZsK3JCtP-7" value="&lt;div style=&quot;font-family: &amp;quot;droid sans mono&amp;quot;, monospace, monospace; font-size: 13px; line-height: 18px;&quot;&gt;&lt;/div&gt;&lt;font face=&quot;droid sans mono, monospace, monospace&quot; style=&quot;font-size: 13px;&quot;&gt;&lt;span style=&quot;font-size: 13px;&quot;&gt;&lt;span style=&quot;font-size: 13px;&quot;&gt;north\catelyn.stark&lt;/span&gt;&lt;br style=&quot;font-size: 13px;&quot;&gt;&lt;/span&gt;&lt;/font&gt;" style="outlineConnect=0;dashed=0;verticalLabelPosition=bottom;verticalAlign=top;align=center;html=1;fontSize=13;fontStyle=0;aspect=fixed;pointerEvents=1;shape=mxgraph.aws4.user;labelBackgroundColor=#000000;fontColor=#FFFFFF;fillColor=#FFFFFF;strokeColor=#FFFFFF;" parent="btbnTncfeBiOZsK3JCtP-6" vertex="1">
          <mxGeometry width="40" height="40" as="geometry" />
        </mxCell>
        <mxCell id="btbnTncfeBiOZsK3JCtP-8" value="" style="group;fontSize=13;labelBackgroundColor=#000000;fontColor=#FFFFFF;" parent="ibhNdLfUEIW59064bE3n-1" vertex="1" connectable="0">
          <mxGeometry x="-610" y="704" width="50" height="48.5" as="geometry" />
        </mxCell>
        <mxCell id="btbnTncfeBiOZsK3JCtP-9" value="&lt;div style=&quot;font-family: &amp;quot;droid sans mono&amp;quot;, monospace, monospace; font-size: 13px; line-height: 18px;&quot;&gt;&lt;/div&gt;&lt;font face=&quot;droid sans mono, monospace, monospace&quot; style=&quot;font-size: 13px;&quot;&gt;&lt;span style=&quot;font-size: 13px;&quot;&gt;&lt;span style=&quot;font-size: 13px;&quot;&gt;north\&lt;/span&gt;&lt;span style=&quot;font-size: 13px;&quot;&gt;sansa.stark&lt;/span&gt;&lt;br style=&quot;font-size: 13px;&quot;&gt;&lt;/span&gt;&lt;/font&gt;" style="outlineConnect=0;dashed=0;verticalLabelPosition=bottom;verticalAlign=top;align=center;html=1;fontSize=13;fontStyle=0;aspect=fixed;pointerEvents=1;shape=mxgraph.aws4.user;labelBackgroundColor=#000000;fontColor=#FFFFFF;fillColor=#FFFFFF;strokeColor=#FFFFFF;" parent="btbnTncfeBiOZsK3JCtP-8" vertex="1">
          <mxGeometry width="40" height="40" as="geometry" />
        </mxCell>
        <mxCell id="btbnTncfeBiOZsK3JCtP-10" value="&lt;div style=&quot;font-family: &amp;quot;droid sans mono&amp;quot;, monospace, monospace; font-size: 13px; line-height: 18px;&quot;&gt;&lt;/div&gt;&lt;font face=&quot;droid sans mono, monospace, monospace&quot; style=&quot;font-size: 13px;&quot;&gt;&lt;span style=&quot;font-size: 13px;&quot;&gt;&lt;span style=&quot;font-size: 13px;&quot;&gt;north\&lt;/span&gt;&lt;span style=&quot;font-size: 13px;&quot;&gt;rickon.stark&lt;/span&gt;&lt;br style=&quot;font-size: 13px;&quot;&gt;&lt;/span&gt;&lt;/font&gt;" style="outlineConnect=0;dashed=0;verticalLabelPosition=bottom;verticalAlign=top;align=center;html=1;fontSize=13;fontStyle=0;aspect=fixed;pointerEvents=1;shape=mxgraph.aws4.user;strokeColor=#FFFFFF;fillColor=#FFFFFF;labelBackgroundColor=#000000;fontColor=#FFFFFF;" parent="ibhNdLfUEIW59064bE3n-1" vertex="1">
          <mxGeometry x="-829" y="653.5" width="40" height="40" as="geometry" />
        </mxCell>
        <mxCell id="btbnTncfeBiOZsK3JCtP-12" style="edgeStyle=orthogonalEdgeStyle;rounded=0;orthogonalLoop=1;jettySize=auto;html=1;fillColor=#ffe6cc;strokeColor=#d79b00;fontSize=13;labelBackgroundColor=#000000;fontColor=#FFFFFF;" parent="ibhNdLfUEIW59064bE3n-1" target="btbnTncfeBiOZsK3JCtP-10" edge="1">
          <mxGeometry relative="1" as="geometry">
            <mxPoint x="-1152" y="350" as="sourcePoint" />
            <mxPoint x="-817" y="510" as="targetPoint" />
            <Array as="points">
              <mxPoint x="-1162" y="350" />
              <mxPoint x="-1162" y="586" />
              <mxPoint x="-1015" y="586" />
              <mxPoint x="-1015" y="671" />
            </Array>
          </mxGeometry>
        </mxCell>
        <mxCell id="btbnTncfeBiOZsK3JCtP-15" value="WinterYYYY" style="edgeLabel;html=1;align=center;verticalAlign=middle;resizable=0;points=[];fontSize=13;labelBackgroundColor=#000000;fontColor=#FFFFFF;" parent="btbnTncfeBiOZsK3JCtP-12" vertex="1" connectable="0">
          <mxGeometry x="0.6495" y="-1" relative="1" as="geometry">
            <mxPoint x="6" y="-2" as="offset" />
          </mxGeometry>
        </mxCell>
        <mxCell id="btbnTncfeBiOZsK3JCtP-17" style="edgeStyle=orthogonalEdgeStyle;rounded=0;orthogonalLoop=1;jettySize=auto;html=1;startArrow=none;startFill=0;fillColor=#f8cecc;strokeColor=#b85450;dashed=1;fontSize=13;labelBackgroundColor=#000000;fontColor=#FFFFFF;" parent="ibhNdLfUEIW59064bE3n-1" source="btbnTncfeBiOZsK3JCtP-16" target="Q8LpXQ9D0kiZg2cMLjGx-0" edge="1">
          <mxGeometry relative="1" as="geometry" />
        </mxCell>
        <mxCell id="btbnTncfeBiOZsK3JCtP-18" value="admin" style="edgeLabel;html=1;align=center;verticalAlign=middle;resizable=0;points=[];fontSize=13;labelBackgroundColor=#000000;fontColor=#FFFFFF;" parent="btbnTncfeBiOZsK3JCtP-17" vertex="1" connectable="0">
          <mxGeometry x="-0.293" y="-3" relative="1" as="geometry">
            <mxPoint as="offset" />
          </mxGeometry>
        </mxCell>
        <mxCell id="btbnTncfeBiOZsK3JCtP-16" value="&lt;div style=&quot;font-family: &amp;quot;droid sans mono&amp;quot;, monospace, monospace; font-size: 13px; line-height: 18px;&quot;&gt;&lt;/div&gt;&lt;font face=&quot;droid sans mono, monospace, monospace&quot; style=&quot;font-size: 13px;&quot;&gt;&lt;span style=&quot;font-size: 13px;&quot;&gt;&lt;span style=&quot;font-size: 13px;&quot;&gt;north\&lt;/span&gt;&lt;span style=&quot;font-size: 13px;&quot;&gt;jeor.mormont&lt;/span&gt;&lt;br style=&quot;font-size: 13px;&quot;&gt;&lt;/span&gt;&lt;/font&gt;" style="outlineConnect=0;dashed=0;verticalLabelPosition=bottom;verticalAlign=top;align=center;html=1;fontSize=13;fontStyle=0;aspect=fixed;pointerEvents=1;shape=mxgraph.aws4.user;labelBackgroundColor=#000000;fontColor=#FFFFFF;fillColor=#FFFFFF;strokeColor=#FFFFFF;" parent="ibhNdLfUEIW59064bE3n-1" vertex="1">
          <mxGeometry x="-829" y="-103" width="40" height="40" as="geometry" />
        </mxCell>
        <mxCell id="btbnTncfeBiOZsK3JCtP-23" style="edgeStyle=orthogonalEdgeStyle;rounded=0;orthogonalLoop=1;jettySize=auto;html=1;startArrow=none;startFill=0;fillColor=#f8cecc;strokeColor=#b85450;dashed=1;fontSize=13;labelBackgroundColor=#000000;fontColor=#FFFFFF;" parent="ibhNdLfUEIW59064bE3n-1" source="btbnTncfeBiOZsK3JCtP-7" target="WTYqIx6fJiAgnqFdJ9BY-0" edge="1">
          <mxGeometry relative="1" as="geometry" />
        </mxCell>
        <mxCell id="btbnTncfeBiOZsK3JCtP-24" value="admin" style="edgeLabel;html=1;align=center;verticalAlign=middle;resizable=0;points=[];fontSize=13;labelBackgroundColor=#000000;fontColor=#FFFFFF;" parent="btbnTncfeBiOZsK3JCtP-23" vertex="1" connectable="0">
          <mxGeometry x="-0.362" relative="1" as="geometry">
            <mxPoint as="offset" />
          </mxGeometry>
        </mxCell>
        <mxCell id="btbnTncfeBiOZsK3JCtP-25" style="edgeStyle=orthogonalEdgeStyle;rounded=0;orthogonalLoop=1;jettySize=auto;html=1;startArrow=none;startFill=0;dashed=1;fillColor=#f8cecc;strokeColor=#b85450;fontSize=13;labelBackgroundColor=#000000;fontColor=#FFFFFF;" parent="ibhNdLfUEIW59064bE3n-1" source="Q8LpXQ9D0kiZg2cMLjGx-13" target="WTYqIx6fJiAgnqFdJ9BY-0" edge="1">
          <mxGeometry relative="1" as="geometry">
            <Array as="points">
              <mxPoint x="-56" y="-3" />
            </Array>
          </mxGeometry>
        </mxCell>
        <mxCell id="btbnTncfeBiOZsK3JCtP-26" value="admin" style="edgeLabel;html=1;align=center;verticalAlign=middle;resizable=0;points=[];fontSize=13;labelBackgroundColor=#000000;fontColor=#FFFFFF;" parent="btbnTncfeBiOZsK3JCtP-25" vertex="1" connectable="0">
          <mxGeometry x="-0.0309" relative="1" as="geometry">
            <mxPoint as="offset" />
          </mxGeometry>
        </mxCell>
        <mxCell id="btbnTncfeBiOZsK3JCtP-27" style="edgeStyle=orthogonalEdgeStyle;rounded=0;orthogonalLoop=1;jettySize=auto;html=1;startArrow=none;startFill=0;fillColor=#dae8fc;strokeColor=#6c8ebf;fontSize=13;labelBackgroundColor=#000000;fontColor=#FFFFFF;" parent="ibhNdLfUEIW59064bE3n-1" target="WTYqIx6fJiAgnqFdJ9BY-0" edge="1">
          <mxGeometry relative="1" as="geometry">
            <mxPoint x="-817" y="138" as="sourcePoint" />
            <Array as="points">
              <mxPoint x="-817" y="124" />
              <mxPoint x="-75" y="124" />
            </Array>
          </mxGeometry>
        </mxCell>
        <mxCell id="btbnTncfeBiOZsK3JCtP-28" value="admin" style="edgeLabel;html=1;align=center;verticalAlign=middle;resizable=0;points=[];fontSize=13;labelBackgroundColor=#000000;fontColor=#FFFFFF;" parent="btbnTncfeBiOZsK3JCtP-27" vertex="1" connectable="0">
          <mxGeometry x="0.3977" y="3" relative="1" as="geometry">
            <mxPoint as="offset" />
          </mxGeometry>
        </mxCell>
        <mxCell id="ZtAfeylzl2Nh7kbikaWt-1" style="edgeStyle=orthogonalEdgeStyle;rounded=0;orthogonalLoop=1;jettySize=auto;html=1;strokeWidth=1;fontSize=13;labelBackgroundColor=#000000;fontColor=#FFFFFF;strokeColor=#6c8ebf;fillColor=#dae8fc;" parent="ibhNdLfUEIW59064bE3n-1" source="KgqBp-2F8nMPmvM_qDMR-0" target="KgqBp-2F8nMPmvM_qDMR-13" edge="1">
          <mxGeometry relative="1" as="geometry" />
        </mxCell>
        <mxCell id="KgqBp-2F8nMPmvM_qDMR-0" value="DC03 - meereen&lt;br style=&quot;font-size: 13px;&quot;&gt;192.168.56.12" style="verticalLabelPosition=bottom;aspect=fixed;html=1;verticalAlign=top;strokeColor=none;align=center;outlineConnect=0;shape=mxgraph.citrix.directory_server;fontSize=13;labelBackgroundColor=#000000;fontColor=#FFFFFF;" parent="ibhNdLfUEIW59064bE3n-1" vertex="1">
          <mxGeometry x="-77" y="901" width="65" height="88.5" as="geometry" />
        </mxCell>
        <mxCell id="N_L632Vz1XLPF-QQKONr-28" style="edgeStyle=orthogonalEdgeStyle;rounded=0;orthogonalLoop=1;jettySize=auto;html=1;startArrow=none;startFill=0;strokeWidth=1;fillColor=#dae8fc;strokeColor=#6c8ebf;fontSize=13;labelBackgroundColor=#000000;fontColor=#FFFFFF;" parent="ibhNdLfUEIW59064bE3n-1" source="KgqBp-2F8nMPmvM_qDMR-5" target="KgqBp-2F8nMPmvM_qDMR-0" edge="1">
          <mxGeometry relative="1" as="geometry">
            <Array as="points">
              <mxPoint x="-522" y="1063" />
              <mxPoint x="-522" y="1014" />
              <mxPoint x="-44" y="1014" />
            </Array>
          </mxGeometry>
        </mxCell>
        <mxCell id="N_L632Vz1XLPF-QQKONr-29" value="&lt;ul&gt;&lt;li&gt;ESC1&lt;/li&gt;&lt;li&gt;ESC2&lt;/li&gt;&lt;li&gt;ESC3&lt;/li&gt;&lt;li&gt;ESC6&lt;/li&gt;&lt;li&gt;Certifried&lt;/li&gt;&lt;/ul&gt;" style="edgeLabel;html=1;align=left;verticalAlign=middle;resizable=0;points=[];fontSize=13;labelBackgroundColor=#000000;fontColor=#FFFFFF;" parent="N_L632Vz1XLPF-QQKONr-28" vertex="1" connectable="0">
          <mxGeometry x="-0.8047" y="-2" relative="1" as="geometry">
            <mxPoint x="-55.5" y="-40" as="offset" />
          </mxGeometry>
        </mxCell>
        <mxCell id="N_L632Vz1XLPF-QQKONr-128" style="edgeStyle=orthogonalEdgeStyle;rounded=0;orthogonalLoop=1;jettySize=auto;html=1;startArrow=none;startFill=0;strokeWidth=1;fillColor=#b0e3e6;strokeColor=#0e8088;fontSize=13;labelBackgroundColor=#000000;fontColor=#FFFFFF;" parent="ibhNdLfUEIW59064bE3n-1" source="KgqBp-2F8nMPmvM_qDMR-5" target="btbnTncfeBiOZsK3JCtP-0" edge="1">
          <mxGeometry relative="1" as="geometry">
            <Array as="points">
              <mxPoint x="-710" y="935" />
            </Array>
          </mxGeometry>
        </mxCell>
        <mxCell id="N_L632Vz1XLPF-QQKONr-129" value="webdav + rbcd" style="edgeLabel;html=1;align=center;verticalAlign=middle;resizable=0;points=[];fontSize=13;labelBackgroundColor=#000000;fontColor=#FFFFFF;" parent="N_L632Vz1XLPF-QQKONr-128" vertex="1" connectable="0">
          <mxGeometry x="-0.1179" y="-5" relative="1" as="geometry">
            <mxPoint x="0.57" y="-10" as="offset" />
          </mxGeometry>
        </mxCell>
        <mxCell id="KgqBp-2F8nMPmvM_qDMR-5" value="essos domain account" style="verticalLabelPosition=bottom;aspect=fixed;html=1;verticalAlign=top;strokeColor=none;align=center;outlineConnect=0;shape=mxgraph.citrix.access_card;fontSize=13;labelBackgroundColor=#000000;fontColor=#FFFFFF;" parent="ibhNdLfUEIW59064bE3n-1" vertex="1">
          <mxGeometry x="-725" y="1003" width="55.5" height="75" as="geometry" />
        </mxCell>
        <mxCell id="N_L632Vz1XLPF-QQKONr-1" style="edgeStyle=orthogonalEdgeStyle;rounded=0;orthogonalLoop=1;jettySize=auto;html=1;startArrow=none;startFill=0;strokeWidth=1;fillColor=#0050ef;strokeColor=#001DBC;fontSize=13;labelBackgroundColor=#000000;fontColor=#FFFFFF;" parent="ibhNdLfUEIW59064bE3n-1" source="KgqBp-2F8nMPmvM_qDMR-11" target="N_L632Vz1XLPF-QQKONr-0" edge="1">
          <mxGeometry relative="1" as="geometry">
            <Array as="points">
              <mxPoint x="750" y="150" />
              <mxPoint x="750" y="483" />
            </Array>
          </mxGeometry>
        </mxCell>
        <mxCell id="N_L632Vz1XLPF-QQKONr-41" value="&lt;ul&gt;&lt;li&gt;unconstrained delegation&lt;/li&gt;&lt;li&gt;golden ticket + extraSID&lt;/li&gt;&lt;li&gt;Trust ticket interrealm TGT&lt;/li&gt;&lt;/ul&gt;" style="edgeLabel;html=1;align=left;verticalAlign=middle;resizable=0;points=[];fontSize=13;labelBackgroundColor=#000000;fontColor=#FFFFFF;" parent="N_L632Vz1XLPF-QQKONr-1" vertex="1" connectable="0">
          <mxGeometry x="-0.7693" y="-3" relative="1" as="geometry">
            <mxPoint x="242.5" y="2" as="offset" />
          </mxGeometry>
        </mxCell>
        <mxCell id="KgqBp-2F8nMPmvM_qDMR-11" value="DA NORTH" style="pointerEvents=1;shadow=0;dashed=0;html=1;strokeColor=none;labelPosition=center;verticalLabelPosition=bottom;verticalAlign=top;outlineConnect=0;align=center;shape=mxgraph.office.security.split_domain_user;fontSize=13;labelBackgroundColor=#000000;fontColor=#FFFFFF;fillColor=#FFFFFF;" parent="ibhNdLfUEIW59064bE3n-1" vertex="1">
          <mxGeometry x="58.5" y="140" width="59" height="55" as="geometry" />
        </mxCell>
        <mxCell id="N_L632Vz1XLPF-QQKONr-106" style="edgeStyle=orthogonalEdgeStyle;rounded=0;orthogonalLoop=1;jettySize=auto;html=1;startArrow=none;startFill=0;strokeWidth=1;fillColor=#0050ef;strokeColor=#001DBC;fontSize=13;labelBackgroundColor=#000000;fontColor=#FFFFFF;" parent="ibhNdLfUEIW59064bE3n-1" source="KgqBp-2F8nMPmvM_qDMR-13" target="N_L632Vz1XLPF-QQKONr-42" edge="1">
          <mxGeometry relative="1" as="geometry">
            <Array as="points">
              <mxPoint x="946" y="958" />
            </Array>
          </mxGeometry>
        </mxCell>
        <mxCell id="N_L632Vz1XLPF-QQKONr-107" value="&lt;ul&gt;&lt;li&gt;Golden ticket with external forest, sid history +&amp;nbsp;RID &amp;gt;1000&lt;/li&gt;&lt;li&gt;Trust ticket with external forest&lt;/li&gt;&lt;/ul&gt;" style="edgeLabel;html=1;align=left;verticalAlign=middle;resizable=0;points=[];fontSize=13;labelBackgroundColor=#000000;fontColor=#FFFFFF;" parent="N_L632Vz1XLPF-QQKONr-106" vertex="1" connectable="0">
          <mxGeometry x="-0.4875" y="-3" relative="1" as="geometry">
            <mxPoint x="-185" y="11.75" as="offset" />
          </mxGeometry>
        </mxCell>
        <mxCell id="KgqBp-2F8nMPmvM_qDMR-13" value="DA ESSOS" style="pointerEvents=1;shadow=0;dashed=0;html=1;strokeColor=none;labelPosition=center;verticalLabelPosition=bottom;verticalAlign=top;outlineConnect=0;align=center;shape=mxgraph.office.security.split_domain_user;fontSize=13;labelBackgroundColor=#000000;fontColor=#FFFFFF;fillColor=#FFFFFF;" parent="ibhNdLfUEIW59064bE3n-1" vertex="1">
          <mxGeometry x="98" y="917.75" width="59" height="55" as="geometry" />
        </mxCell>
        <mxCell id="N_L632Vz1XLPF-QQKONr-43" style="edgeStyle=orthogonalEdgeStyle;rounded=0;orthogonalLoop=1;jettySize=auto;html=1;startArrow=none;startFill=0;strokeWidth=1;fontSize=13;labelBackgroundColor=#000000;fontColor=#FFFFFF;strokeColor=#001DBC;fillColor=#0050ef;" parent="ibhNdLfUEIW59064bE3n-1" source="N_L632Vz1XLPF-QQKONr-0" target="N_L632Vz1XLPF-QQKONr-42" edge="1">
          <mxGeometry relative="1" as="geometry" />
        </mxCell>
        <mxCell id="N_L632Vz1XLPF-QQKONr-0" value="DC01 - kingslanding&lt;br style=&quot;font-size: 13px;&quot;&gt;192.168.56.10&lt;br style=&quot;font-size: 13px;&quot;&gt;Windows Server 2019" style="verticalLabelPosition=bottom;aspect=fixed;html=1;verticalAlign=top;strokeColor=none;align=center;outlineConnect=0;shape=mxgraph.citrix.directory_server;fontSize=13;labelBackgroundColor=#000000;fontColor=#FFFFFF;" parent="ibhNdLfUEIW59064bE3n-1" vertex="1">
          <mxGeometry x="759.5" y="438.5" width="65" height="88.5" as="geometry" />
        </mxCell>
        <mxCell id="N_L632Vz1XLPF-QQKONr-3" style="edgeStyle=orthogonalEdgeStyle;rounded=0;orthogonalLoop=1;jettySize=auto;html=1;startArrow=none;startFill=0;strokeWidth=1;fillColor=#e1d5e7;strokeColor=#9673a6;fontSize=13;labelBackgroundColor=#000000;fontColor=#FFFFFF;" parent="ibhNdLfUEIW59064bE3n-1" source="N_L632Vz1XLPF-QQKONr-2" target="btbnTncfeBiOZsK3JCtP-1" edge="1">
          <mxGeometry relative="1" as="geometry">
            <Array as="points">
              <mxPoint x="-407" y="1173" />
            </Array>
          </mxGeometry>
        </mxCell>
        <mxCell id="N_L632Vz1XLPF-QQKONr-4" value="mssql admin" style="edgeLabel;html=1;align=center;verticalAlign=middle;resizable=0;points=[];fontSize=13;labelBackgroundColor=#000000;fontColor=#FFFFFF;" parent="N_L632Vz1XLPF-QQKONr-3" vertex="1" connectable="0">
          <mxGeometry x="-0.0401" relative="1" as="geometry">
            <mxPoint x="-7.18" y="-9" as="offset" />
          </mxGeometry>
        </mxCell>
        <mxCell id="N_L632Vz1XLPF-QQKONr-30" style="edgeStyle=orthogonalEdgeStyle;rounded=0;orthogonalLoop=1;jettySize=auto;html=1;startArrow=none;startFill=0;strokeWidth=1;fillColor=#dae8fc;strokeColor=#6c8ebf;fontSize=13;labelBackgroundColor=#000000;fontColor=#FFFFFF;" parent="ibhNdLfUEIW59064bE3n-1" source="N_L632Vz1XLPF-QQKONr-2" target="KgqBp-2F8nMPmvM_qDMR-0" edge="1">
          <mxGeometry relative="1" as="geometry">
            <Array as="points">
              <mxPoint x="-807" y="1119" />
              <mxPoint x="-521" y="1119" />
              <mxPoint x="-521" y="1014" />
              <mxPoint x="-44" y="1014" />
            </Array>
          </mxGeometry>
        </mxCell>
        <mxCell id="N_L632Vz1XLPF-QQKONr-31" value="ESC4" style="edgeLabel;html=1;align=center;verticalAlign=middle;resizable=0;points=[];fontSize=13;labelBackgroundColor=#000000;fontColor=#FFFFFF;" parent="N_L632Vz1XLPF-QQKONr-30" vertex="1" connectable="0">
          <mxGeometry x="-0.49" y="-2" relative="1" as="geometry">
            <mxPoint x="20.03" y="-1" as="offset" />
          </mxGeometry>
        </mxCell>
        <mxCell id="N_L632Vz1XLPF-QQKONr-100" style="edgeStyle=orthogonalEdgeStyle;rounded=0;orthogonalLoop=1;jettySize=auto;html=1;startArrow=none;startFill=0;strokeWidth=1;fillColor=#fff2cc;strokeColor=#d6b656;fontSize=13;labelBackgroundColor=#000000;fontColor=#FFFFFF;" parent="ibhNdLfUEIW59064bE3n-1" source="N_L632Vz1XLPF-QQKONr-2" target="N_L632Vz1XLPF-QQKONr-13" edge="1">
          <mxGeometry relative="1" as="geometry">
            <Array as="points">
              <mxPoint x="-807" y="1228" />
              <mxPoint x="-1105" y="1228" />
            </Array>
          </mxGeometry>
        </mxCell>
        <mxCell id="N_L632Vz1XLPF-QQKONr-101" value="generic all" style="edgeLabel;html=1;align=center;verticalAlign=middle;resizable=0;points=[];fontSize=13;labelBackgroundColor=#000000;fontColor=#FFFFFF;" parent="N_L632Vz1XLPF-QQKONr-100" vertex="1" connectable="0">
          <mxGeometry x="0.2171" y="-6" relative="1" as="geometry">
            <mxPoint x="1" as="offset" />
          </mxGeometry>
        </mxCell>
        <mxCell id="N_L632Vz1XLPF-QQKONr-2" value="&lt;div style=&quot;font-family: &amp;quot;droid sans mono&amp;quot;, monospace, monospace; font-size: 13px; line-height: 18px;&quot;&gt;&lt;/div&gt;&lt;font face=&quot;droid sans mono, monospace, monospace&quot; style=&quot;font-size: 13px;&quot;&gt;&lt;span style=&quot;font-size: 13px;&quot;&gt;essos\khal.drogo&lt;br style=&quot;font-size: 13px;&quot;&gt;&lt;/span&gt;&lt;/font&gt;" style="outlineConnect=0;dashed=0;verticalLabelPosition=bottom;verticalAlign=top;align=center;html=1;fontSize=13;fontStyle=0;aspect=fixed;pointerEvents=1;shape=mxgraph.aws4.user;labelBackgroundColor=#000000;fontColor=#FFFFFF;fillColor=#FFFFFF;strokeColor=#FFFFFF;" parent="ibhNdLfUEIW59064bE3n-1" vertex="1">
          <mxGeometry x="-827" y="1144" width="40" height="40" as="geometry" />
        </mxCell>
        <mxCell id="N_L632Vz1XLPF-QQKONr-6" style="edgeStyle=orthogonalEdgeStyle;rounded=0;orthogonalLoop=1;jettySize=auto;html=1;startArrow=none;startFill=0;strokeWidth=1;fillColor=#e1d5e7;strokeColor=#9673a6;fontSize=13;labelBackgroundColor=#000000;fontColor=#FFFFFF;" parent="ibhNdLfUEIW59064bE3n-1" source="N_L632Vz1XLPF-QQKONr-5" target="btbnTncfeBiOZsK3JCtP-1" edge="1">
          <mxGeometry relative="1" as="geometry">
            <Array as="points">
              <mxPoint x="-407" y="1310" />
            </Array>
          </mxGeometry>
        </mxCell>
        <mxCell id="N_L632Vz1XLPF-QQKONr-7" value="executeaslogin : sa" style="edgeLabel;html=1;align=center;verticalAlign=middle;resizable=0;points=[];fontSize=13;labelBackgroundColor=#000000;fontColor=#FFFFFF;" parent="N_L632Vz1XLPF-QQKONr-6" vertex="1" connectable="0">
          <mxGeometry x="-0.2898" relative="1" as="geometry">
            <mxPoint x="-33" as="offset" />
          </mxGeometry>
        </mxCell>
        <mxCell id="N_L632Vz1XLPF-QQKONr-91" style="edgeStyle=orthogonalEdgeStyle;rounded=0;orthogonalLoop=1;jettySize=auto;html=1;startArrow=none;startFill=0;strokeWidth=1;fillColor=#f8cecc;strokeColor=#b85450;fontSize=13;labelBackgroundColor=#000000;fontColor=#FFFFFF;" parent="ibhNdLfUEIW59064bE3n-1" source="N_L632Vz1XLPF-QQKONr-5" target="btbnTncfeBiOZsK3JCtP-0" edge="1">
          <mxGeometry relative="1" as="geometry">
            <Array as="points">
              <mxPoint x="-787" y="1279" />
              <mxPoint x="-465" y="1279" />
            </Array>
          </mxGeometry>
        </mxCell>
        <mxCell id="N_L632Vz1XLPF-QQKONr-92" value="laps reader" style="edgeLabel;html=1;align=center;verticalAlign=middle;resizable=0;points=[];fontSize=13;labelBackgroundColor=#000000;fontColor=#FFFFFF;" parent="N_L632Vz1XLPF-QQKONr-91" vertex="1" connectable="0">
          <mxGeometry x="-0.3042" relative="1" as="geometry">
            <mxPoint as="offset" />
          </mxGeometry>
        </mxCell>
        <mxCell id="N_L632Vz1XLPF-QQKONr-5" value="&lt;div style=&quot;font-family: &amp;quot;droid sans mono&amp;quot;, monospace, monospace; font-size: 13px; line-height: 18px;&quot;&gt;&lt;/div&gt;&lt;font face=&quot;droid sans mono, monospace, monospace&quot; style=&quot;font-size: 13px;&quot;&gt;&lt;span style=&quot;font-size: 13px;&quot;&gt;essos\jorah.mormont&lt;br style=&quot;font-size: 13px;&quot;&gt;&lt;/span&gt;&lt;/font&gt;" style="outlineConnect=0;dashed=0;verticalLabelPosition=bottom;verticalAlign=top;align=center;html=1;fontSize=13;fontStyle=0;aspect=fixed;pointerEvents=1;shape=mxgraph.aws4.user;labelBackgroundColor=#000000;fontColor=#FFFFFF;fillColor=#FFFFFF;strokeColor=#FFFFFF;" parent="ibhNdLfUEIW59064bE3n-1" vertex="1">
          <mxGeometry x="-827" y="1282" width="40" height="40" as="geometry" />
        </mxCell>
        <mxCell id="N_L632Vz1XLPF-QQKONr-11" style="edgeStyle=orthogonalEdgeStyle;rounded=0;orthogonalLoop=1;jettySize=auto;html=1;startArrow=none;startFill=0;strokeWidth=1;fillColor=#dae8fc;strokeColor=#6c8ebf;fontSize=13;labelBackgroundColor=#000000;fontColor=#FFFFFF;" parent="ibhNdLfUEIW59064bE3n-1" source="N_L632Vz1XLPF-QQKONr-9" target="KgqBp-2F8nMPmvM_qDMR-0" edge="1">
          <mxGeometry relative="1" as="geometry" />
        </mxCell>
        <mxCell id="N_L632Vz1XLPF-QQKONr-12" value="group inside group inside group inside DA" style="edgeLabel;html=1;align=center;verticalAlign=middle;resizable=0;points=[];fontSize=13;labelBackgroundColor=#000000;fontColor=#FFFFFF;" parent="N_L632Vz1XLPF-QQKONr-11" vertex="1" connectable="0">
          <mxGeometry x="-0.3226" y="-2" relative="1" as="geometry">
            <mxPoint x="43.65" y="-15.94" as="offset" />
          </mxGeometry>
        </mxCell>
        <mxCell id="N_L632Vz1XLPF-QQKONr-9" value="&lt;div style=&quot;font-family: &amp;quot;droid sans mono&amp;quot;, monospace, monospace; font-size: 13px; line-height: 18px;&quot;&gt;&lt;/div&gt;&lt;font face=&quot;droid sans mono, monospace, monospace&quot; style=&quot;font-size: 13px;&quot;&gt;&lt;span style=&quot;font-size: 13px;&quot;&gt;essos\gmsaDragon&lt;br style=&quot;font-size: 13px;&quot;&gt;&lt;/span&gt;&lt;/font&gt;" style="outlineConnect=0;dashed=0;verticalLabelPosition=bottom;verticalAlign=top;align=center;html=1;fontSize=13;fontStyle=0;aspect=fixed;pointerEvents=1;shape=mxgraph.aws4.user;labelBackgroundColor=#000000;fontColor=#FFFFFF;fillColor=#FFFFFF;strokeColor=#FFFFFF;" parent="ibhNdLfUEIW59064bE3n-1" vertex="1">
          <mxGeometry x="-245" y="1110" width="40" height="40" as="geometry" />
        </mxCell>
        <mxCell id="N_L632Vz1XLPF-QQKONr-14" style="edgeStyle=orthogonalEdgeStyle;rounded=0;orthogonalLoop=1;jettySize=auto;html=1;startArrow=none;startFill=0;strokeWidth=1;fillColor=#ffe6cc;strokeColor=#d79b00;fontSize=13;labelBackgroundColor=#000000;fontColor=#FFFFFF;" parent="ibhNdLfUEIW59064bE3n-1" source="N_L632Vz1XLPF-QQKONr-13" target="N_L632Vz1XLPF-QQKONr-5" edge="1">
          <mxGeometry relative="1" as="geometry" />
        </mxCell>
        <mxCell id="N_L632Vz1XLPF-QQKONr-15" value="writeProperty" style="edgeLabel;html=1;align=center;verticalAlign=middle;resizable=0;points=[];fontSize=13;labelBackgroundColor=#000000;fontColor=#FFFFFF;" parent="N_L632Vz1XLPF-QQKONr-14" vertex="1" connectable="0">
          <mxGeometry x="0.2899" y="-3" relative="1" as="geometry">
            <mxPoint x="-38.94" y="-3" as="offset" />
          </mxGeometry>
        </mxCell>
        <mxCell id="N_L632Vz1XLPF-QQKONr-13" value="&lt;div style=&quot;font-family: &amp;quot;droid sans mono&amp;quot;, monospace, monospace; font-size: 13px; line-height: 18px;&quot;&gt;&lt;/div&gt;&lt;font face=&quot;droid sans mono, monospace, monospace&quot; style=&quot;font-size: 13px;&quot;&gt;&lt;span style=&quot;font-size: 13px;&quot;&gt;&lt;span style=&quot;font-size: 13px;&quot;&gt;essos\viserys.targaryen&lt;/span&gt;&lt;br style=&quot;font-size: 13px;&quot;&gt;&lt;/span&gt;&lt;/font&gt;" style="outlineConnect=0;dashed=0;verticalLabelPosition=bottom;verticalAlign=top;align=center;html=1;fontSize=13;fontStyle=0;aspect=fixed;pointerEvents=1;shape=mxgraph.aws4.user;labelBackgroundColor=#000000;fontColor=#FFFFFF;fillColor=#FFFFFF;strokeColor=#FFFFFF;" parent="ibhNdLfUEIW59064bE3n-1" vertex="1">
          <mxGeometry x="-1125" y="1278" width="40" height="40" as="geometry" />
        </mxCell>
        <mxCell id="N_L632Vz1XLPF-QQKONr-17" value="DragonsFriends" style="pointerEvents=1;shadow=0;dashed=0;html=1;strokeColor=none;labelPosition=center;verticalLabelPosition=bottom;verticalAlign=top;align=center;shape=mxgraph.mscae.intune.user_group;fontSize=13;labelBackgroundColor=#000000;fontColor=#FFFFFF;fillColor=#FFFFFF;" parent="ibhNdLfUEIW59064bE3n-1" vertex="1">
          <mxGeometry x="63" y="466" width="50" height="37" as="geometry" />
        </mxCell>
        <mxCell id="N_L632Vz1XLPF-QQKONr-21" style="edgeStyle=orthogonalEdgeStyle;rounded=0;orthogonalLoop=1;jettySize=auto;html=1;startArrow=none;startFill=0;strokeWidth=1;fillColor=#fff2cc;strokeColor=#d6b656;fontSize=13;labelBackgroundColor=#000000;fontColor=#FFFFFF;" parent="ibhNdLfUEIW59064bE3n-1" source="N_L632Vz1XLPF-QQKONr-20" target="N_L632Vz1XLPF-QQKONr-2" edge="1">
          <mxGeometry relative="1" as="geometry" />
        </mxCell>
        <mxCell id="N_L632Vz1XLPF-QQKONr-22" value="GenericAll" style="edgeLabel;html=1;align=center;verticalAlign=middle;resizable=0;points=[];fontSize=13;labelBackgroundColor=#000000;fontColor=#FFFFFF;" parent="N_L632Vz1XLPF-QQKONr-21" vertex="1" connectable="0">
          <mxGeometry x="-0.268" relative="1" as="geometry">
            <mxPoint as="offset" />
          </mxGeometry>
        </mxCell>
        <mxCell id="N_L632Vz1XLPF-QQKONr-20" value="&lt;div style=&quot;font-family: &amp;quot;droid sans mono&amp;quot;, monospace, monospace; font-size: 13px; line-height: 18px;&quot;&gt;&lt;/div&gt;&lt;font face=&quot;droid sans mono, monospace, monospace&quot; style=&quot;font-size: 13px;&quot;&gt;&lt;span style=&quot;font-size: 13px;&quot;&gt;&lt;span style=&quot;font-size: 13px;&quot;&gt;essos\missande&lt;/span&gt;&lt;br style=&quot;font-size: 13px;&quot;&gt;&lt;/span&gt;&lt;/font&gt;" style="outlineConnect=0;dashed=0;verticalLabelPosition=bottom;verticalAlign=top;align=center;html=1;fontSize=13;fontStyle=0;aspect=fixed;pointerEvents=1;shape=mxgraph.aws4.user;labelBackgroundColor=#000000;fontColor=#FFFFFF;fillColor=#FFFFFF;strokeColor=#FFFFFF;" parent="ibhNdLfUEIW59064bE3n-1" vertex="1">
          <mxGeometry x="-1115" y="1144" width="40" height="40" as="geometry" />
        </mxCell>
        <mxCell id="btbnTncfeBiOZsK3JCtP-0" value="SRV03 -&amp;nbsp;braavos&lt;br style=&quot;font-size: 13px;&quot;&gt;192.168.56.23" style="verticalLabelPosition=bottom;aspect=fixed;html=1;verticalAlign=top;strokeColor=none;align=center;outlineConnect=0;shape=mxgraph.citrix.web_server;fontSize=13;labelBackgroundColor=#000000;fontColor=#FFFFFF;" parent="ibhNdLfUEIW59064bE3n-1" vertex="1">
          <mxGeometry x="-503" y="919" width="76.5" height="90" as="geometry" />
        </mxCell>
        <mxCell id="N_L632Vz1XLPF-QQKONr-89" style="edgeStyle=orthogonalEdgeStyle;rounded=0;orthogonalLoop=1;jettySize=auto;html=1;startArrow=none;startFill=0;strokeWidth=1;fillColor=#f8cecc;strokeColor=#b85450;fontSize=13;labelBackgroundColor=#000000;fontColor=#FFFFFF;" parent="ibhNdLfUEIW59064bE3n-1" source="N_L632Vz1XLPF-QQKONr-38" target="btbnTncfeBiOZsK3JCtP-0" edge="1">
          <mxGeometry relative="1" as="geometry">
            <Array as="points">
              <mxPoint x="211" y="818" />
              <mxPoint x="-448" y="818" />
            </Array>
          </mxGeometry>
        </mxCell>
        <mxCell id="N_L632Vz1XLPF-QQKONr-90" value="laps reader" style="edgeLabel;html=1;align=center;verticalAlign=middle;resizable=0;points=[];fontSize=13;labelBackgroundColor=#000000;fontColor=#FFFFFF;" parent="N_L632Vz1XLPF-QQKONr-89" vertex="1" connectable="0">
          <mxGeometry x="-0.3689" relative="1" as="geometry">
            <mxPoint x="2.5" y="-9" as="offset" />
          </mxGeometry>
        </mxCell>
        <mxCell id="N_L632Vz1XLPF-QQKONr-38" value="Spys" style="pointerEvents=1;shadow=0;dashed=0;html=1;strokeColor=none;labelPosition=center;verticalLabelPosition=bottom;verticalAlign=top;align=center;shape=mxgraph.mscae.intune.user_group;fontSize=13;labelBackgroundColor=#000000;fontColor=#FFFFFF;fillColor=#FFFFFF;" parent="ibhNdLfUEIW59064bE3n-1" vertex="1">
          <mxGeometry x="167" y="693.5" width="50" height="37" as="geometry" />
        </mxCell>
        <mxCell id="N_L632Vz1XLPF-QQKONr-104" style="edgeStyle=orthogonalEdgeStyle;rounded=0;orthogonalLoop=1;jettySize=auto;html=1;startArrow=none;startFill=0;strokeWidth=1;fillColor=#0050ef;strokeColor=#001DBC;fontSize=13;labelBackgroundColor=#000000;fontColor=#FFFFFF;" parent="ibhNdLfUEIW59064bE3n-1" source="N_L632Vz1XLPF-QQKONr-42" target="KgqBp-2F8nMPmvM_qDMR-13" edge="1">
          <mxGeometry relative="1" as="geometry">
            <Array as="points">
              <mxPoint x="1028" y="483" />
              <mxPoint x="1028" y="920" />
            </Array>
          </mxGeometry>
        </mxCell>
        <mxCell id="N_L632Vz1XLPF-QQKONr-105" value="unconstrained delegation" style="edgeLabel;html=1;align=center;verticalAlign=middle;resizable=0;points=[];fontSize=13;labelBackgroundColor=#000000;fontColor=#FFFFFF;" parent="N_L632Vz1XLPF-QQKONr-104" vertex="1" connectable="0">
          <mxGeometry x="0.2983" y="-2" relative="1" as="geometry">
            <mxPoint as="offset" />
          </mxGeometry>
        </mxCell>
        <mxCell id="N_L632Vz1XLPF-QQKONr-42" value="DA SEVENKINGDOMS" style="pointerEvents=1;shadow=0;dashed=0;html=1;strokeColor=none;labelPosition=center;verticalLabelPosition=bottom;verticalAlign=top;outlineConnect=0;align=center;shape=mxgraph.office.security.split_domain_user;fontSize=13;labelBackgroundColor=#000000;fontColor=#FFFFFF;fillColor=#FFFFFF;" parent="ibhNdLfUEIW59064bE3n-1" vertex="1">
          <mxGeometry x="916" y="455.5" width="59" height="55" as="geometry" />
        </mxCell>
        <mxCell id="N_L632Vz1XLPF-QQKONr-65" style="edgeStyle=orthogonalEdgeStyle;rounded=0;orthogonalLoop=1;jettySize=auto;html=1;startArrow=none;startFill=0;strokeWidth=1;fillColor=#ffe6cc;strokeColor=#d79b00;fontSize=13;labelBackgroundColor=#000000;fontColor=#FFFFFF;" parent="ibhNdLfUEIW59064bE3n-1" source="N_L632Vz1XLPF-QQKONr-45" target="N_L632Vz1XLPF-QQKONr-46" edge="1">
          <mxGeometry relative="1" as="geometry" />
        </mxCell>
        <mxCell id="N_L632Vz1XLPF-QQKONr-66" value="force change password" style="edgeLabel;html=1;align=center;verticalAlign=middle;resizable=0;points=[];fontSize=13;labelBackgroundColor=#000000;fontColor=#FFFFFF;" parent="N_L632Vz1XLPF-QQKONr-65" vertex="1" connectable="0">
          <mxGeometry x="0.251" y="-4" relative="1" as="geometry">
            <mxPoint x="1.43" y="-13" as="offset" />
          </mxGeometry>
        </mxCell>
        <mxCell id="N_L632Vz1XLPF-QQKONr-45" value="&lt;div style=&quot;font-family: &amp;quot;droid sans mono&amp;quot;, monospace, monospace; font-size: 13px; line-height: 18px;&quot;&gt;&lt;/div&gt;&lt;font face=&quot;droid sans mono, monospace, monospace&quot; style=&quot;font-size: 13px;&quot;&gt;&lt;span style=&quot;font-size: 13px;&quot;&gt;sevenkingdoms\tywin.lannister&lt;br style=&quot;font-size: 13px;&quot;&gt;&lt;/span&gt;&lt;/font&gt;" style="outlineConnect=0;dashed=0;verticalLabelPosition=bottom;verticalAlign=top;align=center;html=1;fontSize=13;fontStyle=0;aspect=fixed;pointerEvents=1;shape=mxgraph.aws4.user;labelBackgroundColor=#000000;fontColor=#FFFFFF;fillColor=#FFFFFF;strokeColor=#FFFFFF;" parent="ibhNdLfUEIW59064bE3n-1" vertex="1">
          <mxGeometry x="143" y="-194" width="40" height="40" as="geometry" />
        </mxCell>
        <mxCell id="N_L632Vz1XLPF-QQKONr-67" style="edgeStyle=orthogonalEdgeStyle;rounded=0;orthogonalLoop=1;jettySize=auto;html=1;startArrow=none;startFill=0;strokeWidth=1;fillColor=#ffe6cc;strokeColor=#d79b00;fontSize=13;labelBackgroundColor=#000000;fontColor=#FFFFFF;" parent="ibhNdLfUEIW59064bE3n-1" source="N_L632Vz1XLPF-QQKONr-46" target="N_L632Vz1XLPF-QQKONr-50" edge="1">
          <mxGeometry relative="1" as="geometry" />
        </mxCell>
        <mxCell id="N_L632Vz1XLPF-QQKONr-68" value="generic write" style="edgeLabel;html=1;align=center;verticalAlign=middle;resizable=0;points=[];fontSize=13;labelBackgroundColor=#000000;fontColor=#FFFFFF;" parent="N_L632Vz1XLPF-QQKONr-67" vertex="1" connectable="0">
          <mxGeometry x="-0.0553" y="2" relative="1" as="geometry">
            <mxPoint x="-1" as="offset" />
          </mxGeometry>
        </mxCell>
        <mxCell id="N_L632Vz1XLPF-QQKONr-46" value="&lt;div style=&quot;font-family: &amp;quot;droid sans mono&amp;quot;, monospace, monospace; font-size: 13px; line-height: 18px;&quot;&gt;&lt;/div&gt;&lt;font face=&quot;droid sans mono, monospace, monospace&quot; style=&quot;font-size: 13px;&quot;&gt;&lt;span style=&quot;font-size: 13px;&quot;&gt;&lt;span style=&quot;font-size: 13px;&quot;&gt;sevenkingdoms\jaime.lannister&lt;/span&gt;&lt;br style=&quot;font-size: 13px;&quot;&gt;&lt;/span&gt;&lt;/font&gt;" style="outlineConnect=0;dashed=0;verticalLabelPosition=bottom;verticalAlign=top;align=center;html=1;fontSize=13;fontStyle=0;aspect=fixed;pointerEvents=1;shape=mxgraph.aws4.user;labelBackgroundColor=#000000;fontColor=#FFFFFF;fillColor=#FFFFFF;strokeColor=#FFFFFF;" parent="ibhNdLfUEIW59064bE3n-1" vertex="1">
          <mxGeometry x="284" y="-121" width="40" height="40" as="geometry" />
        </mxCell>
        <mxCell id="N_L632Vz1XLPF-QQKONr-59" style="edgeStyle=orthogonalEdgeStyle;rounded=0;orthogonalLoop=1;jettySize=auto;html=1;startArrow=none;startFill=0;strokeWidth=1;fontSize=13;labelBackgroundColor=#000000;fontColor=#FFFFFF;" parent="ibhNdLfUEIW59064bE3n-1" source="N_L632Vz1XLPF-QQKONr-47" target="N_L632Vz1XLPF-QQKONr-0" edge="1">
          <mxGeometry relative="1" as="geometry" />
        </mxCell>
        <mxCell id="N_L632Vz1XLPF-QQKONr-47" value="&lt;div style=&quot;font-family: &amp;quot;droid sans mono&amp;quot;, monospace, monospace; font-size: 13px; line-height: 18px;&quot;&gt;&lt;/div&gt;&lt;font face=&quot;droid sans mono, monospace, monospace&quot; style=&quot;font-size: 13px;&quot;&gt;&lt;span style=&quot;font-size: 13px;&quot;&gt;&lt;span style=&quot;font-size: 13px;&quot;&gt;sevenkingdoms\&lt;/span&gt;&lt;span style=&quot;font-size: 13px;&quot;&gt;cersei.lannister&lt;/span&gt;&lt;br style=&quot;font-size: 13px;&quot;&gt;&lt;/span&gt;&lt;/font&gt;" style="outlineConnect=0;dashed=0;verticalLabelPosition=bottom;verticalAlign=top;align=center;html=1;fontSize=13;fontStyle=0;aspect=fixed;pointerEvents=1;shape=mxgraph.aws4.user;labelBackgroundColor=#000000;fontColor=#FFFFFF;fillColor=#FFFFFF;strokeColor=#FFFFFF;" parent="ibhNdLfUEIW59064bE3n-1" vertex="1">
          <mxGeometry x="649" y="841" width="40" height="40" as="geometry" />
        </mxCell>
        <mxCell id="N_L632Vz1XLPF-QQKONr-74" style="edgeStyle=orthogonalEdgeStyle;rounded=0;orthogonalLoop=1;jettySize=auto;html=1;entryX=0.5;entryY=0;entryDx=0;entryDy=0;entryPerimeter=0;startArrow=none;startFill=0;strokeWidth=1;fontSize=13;labelBackgroundColor=#000000;fontColor=#FFFFFF;strokeColor=#d79b00;fillColor=#ffe6cc;" parent="ibhNdLfUEIW59064bE3n-1" source="N_L632Vz1XLPF-QQKONr-48" target="N_L632Vz1XLPF-QQKONr-56" edge="1">
          <mxGeometry relative="1" as="geometry">
            <Array as="points">
              <mxPoint x="617" y="118" />
              <mxPoint x="218" y="118" />
            </Array>
          </mxGeometry>
        </mxCell>
        <mxCell id="N_L632Vz1XLPF-QQKONr-75" value="Add self" style="edgeLabel;html=1;align=center;verticalAlign=middle;resizable=0;points=[];fontSize=13;labelBackgroundColor=#000000;fontColor=#FFFFFF;" parent="N_L632Vz1XLPF-QQKONr-74" vertex="1" connectable="0">
          <mxGeometry x="-0.2222" y="1" relative="1" as="geometry">
            <mxPoint as="offset" />
          </mxGeometry>
        </mxCell>
        <mxCell id="N_L632Vz1XLPF-QQKONr-99" style="edgeStyle=orthogonalEdgeStyle;rounded=0;orthogonalLoop=1;jettySize=auto;html=1;entryX=0.597;entryY=0.284;entryDx=0;entryDy=0;entryPerimeter=0;startArrow=none;startFill=0;strokeWidth=1;dashed=1;fontSize=13;labelBackgroundColor=#000000;fontColor=#FFFFFF;strokeColor=#FFFFFF;" parent="ibhNdLfUEIW59064bE3n-1" source="N_L632Vz1XLPF-QQKONr-48" target="N_L632Vz1XLPF-QQKONr-17" edge="1">
          <mxGeometry relative="1" as="geometry">
            <Array as="points">
              <mxPoint x="184" y="51" />
              <mxPoint x="184" y="399" />
              <mxPoint x="95" y="399" />
              <mxPoint x="95" y="466" />
              <mxPoint x="93" y="466" />
            </Array>
          </mxGeometry>
        </mxCell>
        <mxCell id="N_L632Vz1XLPF-QQKONr-48" value="&lt;div style=&quot;font-family: &amp;quot;droid sans mono&amp;quot;, monospace, monospace; font-size: 13px; line-height: 18px;&quot;&gt;&lt;/div&gt;&lt;font face=&quot;droid sans mono, monospace, monospace&quot; style=&quot;font-size: 13px;&quot;&gt;&lt;span style=&quot;font-size: 13px;&quot;&gt;&lt;span style=&quot;font-size: 13px;&quot;&gt;sevenkingdoms\&lt;/span&gt;&lt;span style=&quot;font-size: 13px;&quot;&gt;tyron.lannister&lt;/span&gt;&lt;br style=&quot;font-size: 13px;&quot;&gt;&lt;/span&gt;&lt;/font&gt;" style="outlineConnect=0;dashed=0;verticalLabelPosition=bottom;verticalAlign=top;align=center;html=1;fontSize=13;fontStyle=0;aspect=fixed;pointerEvents=1;shape=mxgraph.aws4.user;labelBackgroundColor=#000000;fontColor=#FFFFFF;fillColor=#FFFFFF;strokeColor=#FFFFFF;" parent="ibhNdLfUEIW59064bE3n-1" vertex="1">
          <mxGeometry x="597" y="31" width="40" height="40" as="geometry" />
        </mxCell>
        <mxCell id="N_L632Vz1XLPF-QQKONr-60" style="edgeStyle=orthogonalEdgeStyle;rounded=0;orthogonalLoop=1;jettySize=auto;html=1;startArrow=none;startFill=0;strokeWidth=1;fillColor=#f8cecc;strokeColor=#b85450;fontSize=13;labelBackgroundColor=#000000;fontColor=#FFFFFF;" parent="ibhNdLfUEIW59064bE3n-1" source="N_L632Vz1XLPF-QQKONr-49" target="N_L632Vz1XLPF-QQKONr-0" edge="1">
          <mxGeometry relative="1" as="geometry" />
        </mxCell>
        <mxCell id="N_L632Vz1XLPF-QQKONr-49" value="&lt;div style=&quot;font-family: &amp;quot;droid sans mono&amp;quot;, monospace, monospace; font-size: 13px; line-height: 18px;&quot;&gt;&lt;/div&gt;&lt;font face=&quot;droid sans mono, monospace, monospace&quot; style=&quot;font-size: 13px;&quot;&gt;&lt;span style=&quot;font-size: 13px;&quot;&gt;&lt;span style=&quot;font-size: 13px;&quot;&gt;sevenkingdoms\robert.baratheon&lt;br style=&quot;font-size: 13px;&quot;&gt;&lt;/span&gt;(protected user)&lt;br style=&quot;font-size: 13px;&quot;&gt;&lt;/span&gt;&lt;/font&gt;" style="outlineConnect=0;dashed=0;verticalLabelPosition=bottom;verticalAlign=top;align=center;html=1;fontSize=13;fontStyle=0;aspect=fixed;pointerEvents=1;shape=mxgraph.aws4.user;labelBackgroundColor=#000000;fontColor=#FFFFFF;fillColor=#FFFFFF;strokeColor=#FFFFFF;" parent="ibhNdLfUEIW59064bE3n-1" vertex="1">
          <mxGeometry x="652" y="726" width="40" height="40" as="geometry" />
        </mxCell>
        <mxCell id="N_L632Vz1XLPF-QQKONr-69" style="edgeStyle=orthogonalEdgeStyle;rounded=0;orthogonalLoop=1;jettySize=auto;html=1;startArrow=none;startFill=0;strokeWidth=1;fillColor=#ffe6cc;strokeColor=#d79b00;fontSize=13;labelBackgroundColor=#000000;fontColor=#FFFFFF;" parent="ibhNdLfUEIW59064bE3n-1" source="N_L632Vz1XLPF-QQKONr-50" target="N_L632Vz1XLPF-QQKONr-48" edge="1">
          <mxGeometry relative="1" as="geometry" />
        </mxCell>
        <mxCell id="N_L632Vz1XLPF-QQKONr-70" value="WriteDacl" style="edgeLabel;html=1;align=center;verticalAlign=middle;resizable=0;points=[];fontSize=13;labelBackgroundColor=#000000;fontColor=#FFFFFF;" parent="N_L632Vz1XLPF-QQKONr-69" vertex="1" connectable="0">
          <mxGeometry x="0.0388" relative="1" as="geometry">
            <mxPoint as="offset" />
          </mxGeometry>
        </mxCell>
        <mxCell id="N_L632Vz1XLPF-QQKONr-50" value="&lt;div style=&quot;font-family: &amp;quot;droid sans mono&amp;quot;, monospace, monospace; font-size: 13px; line-height: 18px;&quot;&gt;&lt;/div&gt;&lt;font face=&quot;droid sans mono, monospace, monospace&quot; style=&quot;font-size: 13px;&quot;&gt;&lt;span style=&quot;font-size: 13px;&quot;&gt;&lt;span style=&quot;font-size: 13px;&quot;&gt;sevenkingdoms\&lt;/span&gt;&lt;span style=&quot;font-size: 13px;&quot;&gt;joffrey.baratheon&lt;/span&gt;&lt;br style=&quot;font-size: 13px;&quot;&gt;&lt;/span&gt;&lt;/font&gt;" style="outlineConnect=0;dashed=0;verticalLabelPosition=bottom;verticalAlign=top;align=center;html=1;fontSize=13;fontStyle=0;aspect=fixed;pointerEvents=1;shape=mxgraph.aws4.user;labelBackgroundColor=#000000;fontColor=#FFFFFF;fillColor=#FFFFFF;strokeColor=#FFFFFF;" parent="ibhNdLfUEIW59064bE3n-1" vertex="1">
          <mxGeometry x="429" y="-37" width="40" height="40" as="geometry" />
        </mxCell>
        <mxCell id="N_L632Vz1XLPF-QQKONr-62" value="WriteDacl" style="edgeStyle=orthogonalEdgeStyle;rounded=0;orthogonalLoop=1;jettySize=auto;html=1;startArrow=none;startFill=0;strokeWidth=1;fontSize=13;labelBackgroundColor=#000000;fontColor=#FFFFFF;fillColor=#ffe6cc;strokeColor=#d79b00;" parent="ibhNdLfUEIW59064bE3n-1" source="N_L632Vz1XLPF-QQKONr-51" target="N_L632Vz1XLPF-QQKONr-61" edge="1">
          <mxGeometry relative="1" as="geometry" />
        </mxCell>
        <mxCell id="N_L632Vz1XLPF-QQKONr-119" style="edgeStyle=orthogonalEdgeStyle;rounded=0;orthogonalLoop=1;jettySize=auto;html=1;entryX=0.667;entryY=0.692;entryDx=0;entryDy=0;entryPerimeter=0;startArrow=none;startFill=0;strokeWidth=1;dashed=1;fontSize=13;labelBackgroundColor=#000000;fontColor=#FFFFFF;strokeColor=#FFFFFF;" parent="ibhNdLfUEIW59064bE3n-1" source="N_L632Vz1XLPF-QQKONr-51" target="N_L632Vz1XLPF-QQKONr-56" edge="1">
          <mxGeometry relative="1" as="geometry" />
        </mxCell>
        <mxCell id="N_L632Vz1XLPF-QQKONr-51" value="&lt;div style=&quot;font-family: &amp;quot;droid sans mono&amp;quot;, monospace, monospace; font-size: 13px; line-height: 18px;&quot;&gt;&lt;/div&gt;&lt;font face=&quot;droid sans mono, monospace, monospace&quot; style=&quot;font-size: 13px;&quot;&gt;&lt;span style=&quot;font-size: 13px;&quot;&gt;&lt;span style=&quot;font-size: 13px;&quot;&gt;sevenkingdoms\&lt;/span&gt;&lt;span style=&quot;font-size: 13px;&quot;&gt;renly.baratheon&lt;br style=&quot;font-size: 13px;&quot;&gt;&lt;/span&gt;(sensitive)&lt;br style=&quot;font-size: 13px;&quot;&gt;&lt;/span&gt;&lt;/font&gt;" style="outlineConnect=0;dashed=0;verticalLabelPosition=bottom;verticalAlign=top;align=center;html=1;fontSize=13;fontStyle=0;aspect=fixed;pointerEvents=1;shape=mxgraph.aws4.user;labelBackgroundColor=#000000;fontColor=#FFFFFF;fillColor=#FFFFFF;strokeColor=#FFFFFF;" parent="ibhNdLfUEIW59064bE3n-1" vertex="1">
          <mxGeometry x="313" y="728.5" width="40" height="40" as="geometry" />
        </mxCell>
        <mxCell id="N_L632Vz1XLPF-QQKONr-78" style="edgeStyle=orthogonalEdgeStyle;rounded=0;orthogonalLoop=1;jettySize=auto;html=1;startArrow=none;startFill=0;strokeWidth=1;fillColor=#f8cecc;strokeColor=#b85450;fontSize=13;labelBackgroundColor=#000000;fontColor=#FFFFFF;" parent="ibhNdLfUEIW59064bE3n-1" source="N_L632Vz1XLPF-QQKONr-52" target="N_L632Vz1XLPF-QQKONr-0" edge="1">
          <mxGeometry relative="1" as="geometry">
            <Array as="points">
              <mxPoint x="633" y="360" />
              <mxPoint x="633" y="483" />
            </Array>
          </mxGeometry>
        </mxCell>
        <mxCell id="N_L632Vz1XLPF-QQKONr-79" value="Generic ALL" style="edgeLabel;html=1;align=center;verticalAlign=middle;resizable=0;points=[];fontSize=13;labelBackgroundColor=#000000;fontColor=#FFFFFF;" parent="N_L632Vz1XLPF-QQKONr-78" vertex="1" connectable="0">
          <mxGeometry x="-0.4701" y="-5" relative="1" as="geometry">
            <mxPoint x="-10.71" y="-8.94" as="offset" />
          </mxGeometry>
        </mxCell>
        <mxCell id="N_L632Vz1XLPF-QQKONr-120" style="edgeStyle=orthogonalEdgeStyle;rounded=0;orthogonalLoop=1;jettySize=auto;html=1;entryX=0.96;entryY=0.65;entryDx=0;entryDy=0;entryPerimeter=0;dashed=1;startArrow=none;startFill=0;strokeWidth=1;fontSize=13;labelBackgroundColor=#000000;fontColor=#FFFFFF;" parent="ibhNdLfUEIW59064bE3n-1" source="N_L632Vz1XLPF-QQKONr-52" target="N_L632Vz1XLPF-QQKONr-56" edge="1">
          <mxGeometry relative="1" as="geometry">
            <Array as="points">
              <mxPoint x="338" y="360" />
              <mxPoint x="338" y="503" />
              <mxPoint x="241" y="503" />
            </Array>
          </mxGeometry>
        </mxCell>
        <mxCell id="N_L632Vz1XLPF-QQKONr-52" value="&lt;div style=&quot;font-family: &amp;quot;droid sans mono&amp;quot;, monospace, monospace; font-size: 13px; line-height: 18px;&quot;&gt;&lt;/div&gt;&lt;font face=&quot;droid sans mono, monospace, monospace&quot; style=&quot;font-size: 13px;&quot;&gt;&lt;span style=&quot;font-size: 13px;&quot;&gt;&lt;span style=&quot;font-size: 13px;&quot;&gt;sevenkingdoms\&lt;/span&gt;&lt;span style=&quot;font-size: 13px;&quot;&gt;stannis.baratheon&lt;/span&gt;&lt;br style=&quot;font-size: 13px;&quot;&gt;&lt;/span&gt;&lt;/font&gt;" style="outlineConnect=0;dashed=0;verticalLabelPosition=bottom;verticalAlign=top;align=center;html=1;fontSize=13;fontStyle=0;aspect=fixed;pointerEvents=1;shape=mxgraph.aws4.user;labelBackgroundColor=#000000;fontColor=#FFFFFF;fillColor=#FFFFFF;strokeColor=#FFFFFF;" parent="ibhNdLfUEIW59064bE3n-1" vertex="1">
          <mxGeometry x="446" y="340" width="40" height="40" as="geometry" />
        </mxCell>
        <mxCell id="N_L632Vz1XLPF-QQKONr-97" style="edgeStyle=orthogonalEdgeStyle;rounded=0;orthogonalLoop=1;jettySize=auto;html=1;entryX=1;entryY=1;entryDx=0;entryDy=0;entryPerimeter=0;startArrow=none;startFill=0;strokeWidth=1;dashed=1;fontSize=13;labelBackgroundColor=#000000;fontColor=#FFFFFF;strokeColor=#FFFFFF;" parent="ibhNdLfUEIW59064bE3n-1" source="N_L632Vz1XLPF-QQKONr-53" target="N_L632Vz1XLPF-QQKONr-56" edge="1">
          <mxGeometry relative="1" as="geometry">
            <Array as="points">
              <mxPoint x="226" y="586" />
              <mxPoint x="226" y="511" />
            </Array>
          </mxGeometry>
        </mxCell>
        <mxCell id="N_L632Vz1XLPF-QQKONr-53" value="&lt;div style=&quot;font-family: &amp;quot;droid sans mono&amp;quot;, monospace, monospace; font-size: 13px; line-height: 18px;&quot;&gt;&lt;/div&gt;&lt;font face=&quot;droid sans mono, monospace, monospace&quot; style=&quot;font-size: 13px;&quot;&gt;&lt;span style=&quot;font-size: 13px;&quot;&gt;&lt;span style=&quot;font-size: 13px;&quot;&gt;sevenkingdoms\&lt;/span&gt;&lt;span style=&quot;font-size: 13px;&quot;&gt;petyer.baelish&lt;/span&gt;&lt;br style=&quot;font-size: 13px;&quot;&gt;&lt;/span&gt;&lt;/font&gt;" style="outlineConnect=0;dashed=0;verticalLabelPosition=bottom;verticalAlign=top;align=center;html=1;fontSize=13;fontStyle=0;aspect=fixed;pointerEvents=1;shape=mxgraph.aws4.user;labelBackgroundColor=#000000;fontColor=#FFFFFF;fillColor=#FFFFFF;strokeColor=#FFFFFF;" parent="ibhNdLfUEIW59064bE3n-1" vertex="1">
          <mxGeometry x="395" y="566" width="40" height="40" as="geometry" />
        </mxCell>
        <mxCell id="N_L632Vz1XLPF-QQKONr-83" style="edgeStyle=orthogonalEdgeStyle;rounded=0;orthogonalLoop=1;jettySize=auto;html=1;startArrow=none;startFill=0;strokeWidth=1;fillColor=#f8cecc;strokeColor=#b85450;fontSize=13;labelBackgroundColor=#000000;fontColor=#FFFFFF;" parent="ibhNdLfUEIW59064bE3n-1" source="N_L632Vz1XLPF-QQKONr-54" target="N_L632Vz1XLPF-QQKONr-0" edge="1">
          <mxGeometry relative="1" as="geometry">
            <mxPoint x="658" y="496" as="targetPoint" />
            <Array as="points">
              <mxPoint x="682" y="509" />
              <mxPoint x="682" y="509" />
            </Array>
          </mxGeometry>
        </mxCell>
        <mxCell id="N_L632Vz1XLPF-QQKONr-98" value="admin" style="edgeLabel;html=1;align=center;verticalAlign=middle;resizable=0;points=[];fontSize=13;labelBackgroundColor=#000000;fontColor=#FFFFFF;" parent="N_L632Vz1XLPF-QQKONr-83" vertex="1" connectable="0">
          <mxGeometry x="0.5194" y="64" relative="1" as="geometry">
            <mxPoint x="-64" y="64" as="offset" />
          </mxGeometry>
        </mxCell>
        <mxCell id="N_L632Vz1XLPF-QQKONr-96" style="edgeStyle=orthogonalEdgeStyle;rounded=0;orthogonalLoop=1;jettySize=auto;html=1;entryX=0.96;entryY=0.65;entryDx=0;entryDy=0;entryPerimeter=0;startArrow=none;startFill=0;strokeWidth=1;dashed=1;fontSize=13;labelBackgroundColor=#000000;fontColor=#FFFFFF;strokeColor=#FFFFFF;" parent="ibhNdLfUEIW59064bE3n-1" source="N_L632Vz1XLPF-QQKONr-54" target="N_L632Vz1XLPF-QQKONr-56" edge="1">
          <mxGeometry relative="1" as="geometry">
            <Array as="points">
              <mxPoint x="241" y="504" />
            </Array>
          </mxGeometry>
        </mxCell>
        <mxCell id="N_L632Vz1XLPF-QQKONr-54" value="&lt;div style=&quot;font-family: &amp;quot;droid sans mono&amp;quot;, monospace, monospace; font-size: 13px; line-height: 18px;&quot;&gt;&lt;/div&gt;&lt;font face=&quot;droid sans mono, monospace, monospace&quot; style=&quot;font-size: 13px;&quot;&gt;&lt;span style=&quot;font-size: 13px;&quot;&gt;&lt;span style=&quot;font-size: 13px;&quot;&gt;sevenkingdoms\&lt;/span&gt;&lt;span style=&quot;font-size: 13px;&quot;&gt;lord.varys&lt;/span&gt;&lt;br style=&quot;font-size: 13px;&quot;&gt;&lt;/span&gt;&lt;/font&gt;" style="outlineConnect=0;dashed=0;verticalLabelPosition=bottom;verticalAlign=top;align=center;html=1;fontSize=13;fontStyle=0;aspect=fixed;pointerEvents=1;shape=mxgraph.aws4.user;labelBackgroundColor=#000000;fontColor=#FFFFFF;fillColor=#FFFFFF;strokeColor=#FFFFFF;" parent="ibhNdLfUEIW59064bE3n-1" vertex="1">
          <mxGeometry x="397" y="489" width="40" height="40" as="geometry" />
        </mxCell>
        <mxCell id="N_L632Vz1XLPF-QQKONr-95" style="edgeStyle=orthogonalEdgeStyle;rounded=0;orthogonalLoop=1;jettySize=auto;html=1;entryX=0.667;entryY=1.01;entryDx=0;entryDy=0;entryPerimeter=0;startArrow=none;startFill=0;strokeWidth=1;dashed=1;fontSize=13;labelBackgroundColor=#000000;fontColor=#FFFFFF;strokeColor=#FFFFFF;" parent="ibhNdLfUEIW59064bE3n-1" source="N_L632Vz1XLPF-QQKONr-55" target="N_L632Vz1XLPF-QQKONr-56" edge="1">
          <mxGeometry relative="1" as="geometry" />
        </mxCell>
        <mxCell id="N_L632Vz1XLPF-QQKONr-55" value="&lt;div style=&quot;font-family: &amp;quot;droid sans mono&amp;quot;, monospace, monospace; font-size: 13px; line-height: 18px;&quot;&gt;&lt;/div&gt;&lt;font face=&quot;droid sans mono, monospace, monospace&quot; style=&quot;font-size: 13px;&quot;&gt;&lt;span style=&quot;font-size: 13px;&quot;&gt;&lt;span style=&quot;font-size: 13px;&quot;&gt;sevenkingdoms\&lt;/span&gt;&lt;span style=&quot;font-size: 13px;&quot;&gt;maester.pycelle&lt;/span&gt;&lt;br style=&quot;font-size: 13px;&quot;&gt;&lt;/span&gt;&lt;/font&gt;" style="outlineConnect=0;dashed=0;verticalLabelPosition=bottom;verticalAlign=top;align=center;html=1;fontSize=13;fontStyle=0;aspect=fixed;pointerEvents=1;shape=mxgraph.aws4.user;labelBackgroundColor=#000000;fontColor=#FFFFFF;fillColor=#FFFFFF;strokeColor=#FFFFFF;" parent="ibhNdLfUEIW59064bE3n-1" vertex="1">
          <mxGeometry x="393" y="637" width="40" height="40" as="geometry" />
        </mxCell>
        <mxCell id="N_L632Vz1XLPF-QQKONr-71" style="edgeStyle=orthogonalEdgeStyle;rounded=0;orthogonalLoop=1;jettySize=auto;html=1;entryX=0.5;entryY=1;entryDx=0;entryDy=0;entryPerimeter=0;startArrow=none;startFill=0;strokeWidth=1;fontSize=13;labelBackgroundColor=#000000;fontColor=#FFFFFF;strokeColor=#d79b00;fillColor=#ffe6cc;" parent="ibhNdLfUEIW59064bE3n-1" source="N_L632Vz1XLPF-QQKONr-56" target="N_L632Vz1XLPF-QQKONr-57" edge="1">
          <mxGeometry relative="1" as="geometry" />
        </mxCell>
        <mxCell id="N_L632Vz1XLPF-QQKONr-72" value="AddMember" style="edgeLabel;html=1;align=center;verticalAlign=middle;resizable=0;points=[];fontSize=13;labelBackgroundColor=#000000;fontColor=#FFFFFF;" parent="N_L632Vz1XLPF-QQKONr-71" vertex="1" connectable="0">
          <mxGeometry x="-0.2169" relative="1" as="geometry">
            <mxPoint x="2" y="-72.24" as="offset" />
          </mxGeometry>
        </mxCell>
        <mxCell id="N_L632Vz1XLPF-QQKONr-93" style="edgeStyle=orthogonalEdgeStyle;rounded=0;orthogonalLoop=1;jettySize=auto;html=1;entryX=0.5;entryY=0;entryDx=0;entryDy=0;entryPerimeter=0;startArrow=none;startFill=0;strokeWidth=1;dashed=1;fontSize=13;labelBackgroundColor=#000000;fontColor=#FFFFFF;strokeColor=#FFFFFF;" parent="ibhNdLfUEIW59064bE3n-1" source="N_L632Vz1XLPF-QQKONr-56" target="N_L632Vz1XLPF-QQKONr-38" edge="1">
          <mxGeometry relative="1" as="geometry">
            <Array as="points">
              <mxPoint x="154" y="492" />
              <mxPoint x="154" y="566" />
              <mxPoint x="192" y="566" />
            </Array>
          </mxGeometry>
        </mxCell>
        <mxCell id="N_L632Vz1XLPF-QQKONr-56" value="SmallCouncil" style="pointerEvents=1;shadow=0;dashed=0;html=1;strokeColor=none;labelPosition=center;verticalLabelPosition=bottom;verticalAlign=top;align=center;shape=mxgraph.mscae.intune.user_group;fontSize=13;labelBackgroundColor=#000000;fontColor=#FFFFFF;fillColor=#FFFFFF;" parent="ibhNdLfUEIW59064bE3n-1" vertex="1">
          <mxGeometry x="193" y="473.5" width="50" height="37" as="geometry" />
        </mxCell>
        <mxCell id="N_L632Vz1XLPF-QQKONr-73" value="Write owner" style="edgeStyle=orthogonalEdgeStyle;rounded=0;orthogonalLoop=1;jettySize=auto;html=1;entryX=0.5;entryY=0;entryDx=0;entryDy=0;entryPerimeter=0;startArrow=none;startFill=0;strokeWidth=1;fontSize=13;labelBackgroundColor=#000000;fontColor=#FFFFFF;strokeColor=#d79b00;fillColor=#ffe6cc;" parent="ibhNdLfUEIW59064bE3n-1" source="N_L632Vz1XLPF-QQKONr-57" target="N_L632Vz1XLPF-QQKONr-58" edge="1">
          <mxGeometry relative="1" as="geometry" />
        </mxCell>
        <mxCell id="N_L632Vz1XLPF-QQKONr-57" value="Dragonstone" style="pointerEvents=1;shadow=0;dashed=0;html=1;strokeColor=none;labelPosition=center;verticalLabelPosition=bottom;verticalAlign=top;align=center;shape=mxgraph.mscae.intune.user_group;fontSize=13;labelBackgroundColor=#000000;fontColor=#FFFFFF;fillColor=#FFFFFF;" parent="ibhNdLfUEIW59064bE3n-1" vertex="1">
          <mxGeometry x="257" y="191" width="50" height="37" as="geometry" />
        </mxCell>
        <mxCell id="N_L632Vz1XLPF-QQKONr-76" style="edgeStyle=orthogonalEdgeStyle;rounded=0;orthogonalLoop=1;jettySize=auto;html=1;startArrow=none;startFill=0;strokeWidth=1;fillColor=#fff2cc;strokeColor=#d6b656;fontSize=13;labelBackgroundColor=#000000;fontColor=#FFFFFF;" parent="ibhNdLfUEIW59064bE3n-1" source="N_L632Vz1XLPF-QQKONr-58" target="N_L632Vz1XLPF-QQKONr-52" edge="1">
          <mxGeometry relative="1" as="geometry" />
        </mxCell>
        <mxCell id="N_L632Vz1XLPF-QQKONr-77" value="GenericALL" style="edgeLabel;html=1;align=center;verticalAlign=middle;resizable=0;points=[];fontSize=13;labelBackgroundColor=#000000;fontColor=#FFFFFF;" parent="N_L632Vz1XLPF-QQKONr-76" vertex="1" connectable="0">
          <mxGeometry x="-0.1548" relative="1" as="geometry">
            <mxPoint x="18.41" y="0.53" as="offset" />
          </mxGeometry>
        </mxCell>
        <mxCell id="N_L632Vz1XLPF-QQKONr-58" value="Kingsguard" style="pointerEvents=1;shadow=0;dashed=0;html=1;strokeColor=none;labelPosition=center;verticalLabelPosition=bottom;verticalAlign=top;align=center;shape=mxgraph.mscae.intune.user_group;fontSize=13;labelBackgroundColor=#000000;fontColor=#FFFFFF;fillColor=#FFFFFF;" parent="ibhNdLfUEIW59064bE3n-1" vertex="1">
          <mxGeometry x="347" y="271" width="50" height="37" as="geometry" />
        </mxCell>
        <mxCell id="N_L632Vz1XLPF-QQKONr-63" style="edgeStyle=orthogonalEdgeStyle;rounded=0;orthogonalLoop=1;jettySize=auto;html=1;startArrow=none;startFill=0;strokeWidth=1;dashed=1;fontSize=13;labelBackgroundColor=#000000;fontColor=#FFFFFF;strokeColor=#FFFFFF;" parent="ibhNdLfUEIW59064bE3n-1" source="N_L632Vz1XLPF-QQKONr-61" target="N_L632Vz1XLPF-QQKONr-49" edge="1">
          <mxGeometry relative="1" as="geometry" />
        </mxCell>
        <mxCell id="N_L632Vz1XLPF-QQKONr-64" style="edgeStyle=orthogonalEdgeStyle;rounded=0;orthogonalLoop=1;jettySize=auto;html=1;startArrow=none;startFill=0;strokeWidth=1;dashed=1;fontSize=13;labelBackgroundColor=#000000;fontColor=#FFFFFF;strokeColor=#FFFFFF;" parent="ibhNdLfUEIW59064bE3n-1" source="N_L632Vz1XLPF-QQKONr-61" target="N_L632Vz1XLPF-QQKONr-47" edge="1">
          <mxGeometry relative="1" as="geometry">
            <Array as="points">
              <mxPoint x="549" y="861" />
            </Array>
          </mxGeometry>
        </mxCell>
        <mxCell id="N_L632Vz1XLPF-QQKONr-61" value="Crownlands" style="pointerEvents=1;shadow=0;dashed=0;html=1;strokeColor=none;labelPosition=center;verticalLabelPosition=bottom;verticalAlign=top;outlineConnect=0;align=center;shape=mxgraph.office.concepts.folder;fontSize=13;labelBackgroundColor=#000000;fontColor=#FFFFFF;fillColor=#FFFFFF;" parent="ibhNdLfUEIW59064bE3n-1" vertex="1">
          <mxGeometry x="464" y="726" width="50" height="45" as="geometry" />
        </mxCell>
        <mxCell id="N_L632Vz1XLPF-QQKONr-81" style="edgeStyle=orthogonalEdgeStyle;rounded=0;orthogonalLoop=1;jettySize=auto;html=1;startArrow=none;startFill=0;strokeWidth=1;fillColor=#f8cecc;strokeColor=#b85450;fontSize=13;labelBackgroundColor=#000000;fontColor=#FFFFFF;" parent="ibhNdLfUEIW59064bE3n-1" source="N_L632Vz1XLPF-QQKONr-80" target="N_L632Vz1XLPF-QQKONr-0" edge="1">
          <mxGeometry relative="1" as="geometry" />
        </mxCell>
        <mxCell id="N_L632Vz1XLPF-QQKONr-82" value="GenericALL" style="edgeLabel;html=1;align=center;verticalAlign=middle;resizable=0;points=[];fontSize=13;labelBackgroundColor=#000000;fontColor=#FFFFFF;" parent="N_L632Vz1XLPF-QQKONr-81" vertex="1" connectable="0">
          <mxGeometry x="-0.2952" relative="1" as="geometry">
            <mxPoint as="offset" />
          </mxGeometry>
        </mxCell>
        <mxCell id="N_L632Vz1XLPF-QQKONr-80" value="AcrossTheNarrowSea" style="pointerEvents=1;shadow=0;dashed=0;html=1;strokeColor=none;labelPosition=center;verticalLabelPosition=bottom;verticalAlign=top;align=center;shape=mxgraph.mscae.intune.user_group;fontSize=13;labelBackgroundColor=#000000;fontColor=#FFFFFF;fillColor=#FFFFFF;" parent="ibhNdLfUEIW59064bE3n-1" vertex="1">
          <mxGeometry x="243" y="1265.5" width="50" height="37" as="geometry" />
        </mxCell>
        <mxCell id="N_L632Vz1XLPF-QQKONr-86" style="edgeStyle=orthogonalEdgeStyle;rounded=0;orthogonalLoop=1;jettySize=auto;html=1;entryX=0.05;entryY=0.5;entryDx=0;entryDy=0;entryPerimeter=0;startArrow=none;startFill=0;strokeWidth=1;dashed=1;fontSize=13;labelBackgroundColor=#000000;fontColor=#FFFFFF;strokeColor=#FFFFFF;" parent="ibhNdLfUEIW59064bE3n-1" source="N_L632Vz1XLPF-QQKONr-84" target="N_L632Vz1XLPF-QQKONr-80" edge="1">
          <mxGeometry relative="1" as="geometry" />
        </mxCell>
        <mxCell id="N_L632Vz1XLPF-QQKONr-87" style="edgeStyle=orthogonalEdgeStyle;rounded=0;orthogonalLoop=1;jettySize=auto;html=1;startArrow=none;startFill=0;strokeWidth=1;fontSize=13;labelBackgroundColor=#000000;fontColor=#FFFFFF;strokeColor=#6c8ebf;fillColor=#dae8fc;" parent="ibhNdLfUEIW59064bE3n-1" source="N_L632Vz1XLPF-QQKONr-84" target="KgqBp-2F8nMPmvM_qDMR-0" edge="1">
          <mxGeometry relative="1" as="geometry">
            <mxPoint x="50" y="1079" as="targetPoint" />
            <Array as="points">
              <mxPoint x="53" y="965" />
            </Array>
          </mxGeometry>
        </mxCell>
        <mxCell id="N_L632Vz1XLPF-QQKONr-88" value="ADMIN" style="edgeLabel;html=1;align=center;verticalAlign=middle;resizable=0;points=[];fontSize=13;labelBackgroundColor=#000000;fontColor=#FFFFFF;" parent="N_L632Vz1XLPF-QQKONr-87" vertex="1" connectable="0">
          <mxGeometry x="0.2796" y="1" relative="1" as="geometry">
            <mxPoint as="offset" />
          </mxGeometry>
        </mxCell>
        <mxCell id="N_L632Vz1XLPF-QQKONr-94" style="edgeStyle=orthogonalEdgeStyle;rounded=0;orthogonalLoop=1;jettySize=auto;html=1;entryX=0.679;entryY=1.086;entryDx=0;entryDy=0;entryPerimeter=0;startArrow=none;startFill=0;strokeWidth=1;dashed=1;fontSize=13;labelBackgroundColor=#000000;fontColor=#FFFFFF;strokeColor=#FFFFFF;" parent="ibhNdLfUEIW59064bE3n-1" source="N_L632Vz1XLPF-QQKONr-84" target="N_L632Vz1XLPF-QQKONr-17" edge="1">
          <mxGeometry relative="1" as="geometry">
            <Array as="points">
              <mxPoint x="195" y="1284" />
              <mxPoint x="195" y="883" />
              <mxPoint x="110" y="883" />
              <mxPoint x="110" y="506" />
            </Array>
          </mxGeometry>
        </mxCell>
        <mxCell id="N_L632Vz1XLPF-QQKONr-84" value="&lt;div style=&quot;font-family: &amp;quot;droid sans mono&amp;quot;, monospace, monospace; font-size: 13px; line-height: 18px;&quot;&gt;&lt;/div&gt;&lt;font face=&quot;droid sans mono, monospace, monospace&quot; style=&quot;font-size: 13px;&quot;&gt;&lt;span style=&quot;font-size: 13px;&quot;&gt;&lt;span style=&quot;font-size: 13px;&quot;&gt;essos\daenerys.targaryen&lt;/span&gt;&lt;br style=&quot;font-size: 13px;&quot;&gt;&lt;/span&gt;&lt;/font&gt;" style="outlineConnect=0;dashed=0;verticalLabelPosition=bottom;verticalAlign=top;align=center;html=1;fontSize=13;fontStyle=0;aspect=fixed;pointerEvents=1;shape=mxgraph.aws4.user;labelBackgroundColor=#000000;fontColor=#FFFFFF;fillColor=#FFFFFF;strokeColor=#FFFFFF;" parent="ibhNdLfUEIW59064bE3n-1" vertex="1">
          <mxGeometry x="32" y="1264" width="40" height="40" as="geometry" />
        </mxCell>
        <mxCell id="N_L632Vz1XLPF-QQKONr-123" style="edgeStyle=orthogonalEdgeStyle;rounded=0;orthogonalLoop=1;jettySize=auto;html=1;startArrow=none;startFill=0;strokeWidth=1;fillColor=#dae8fc;strokeColor=#6c8ebf;fontSize=13;labelBackgroundColor=#000000;fontColor=#FFFFFF;" parent="ibhNdLfUEIW59064bE3n-1" source="btbnTncfeBiOZsK3JCtP-9" target="WTYqIx6fJiAgnqFdJ9BY-0" edge="1">
          <mxGeometry relative="1" as="geometry">
            <Array as="points">
              <mxPoint x="-44" y="744" />
            </Array>
          </mxGeometry>
        </mxCell>
        <mxCell id="N_L632Vz1XLPF-QQKONr-124" value="user unconstrained delegation" style="edgeLabel;html=1;align=center;verticalAlign=middle;resizable=0;points=[];fontSize=13;labelBackgroundColor=#000000;fontColor=#FFFFFF;" parent="N_L632Vz1XLPF-QQKONr-123" vertex="1" connectable="0">
          <mxGeometry x="-0.4111" y="1" relative="1" as="geometry">
            <mxPoint as="offset" />
          </mxGeometry>
        </mxCell>
        <mxCell id="n8LINvt_xImtMH9ACq0t-0" value="" style="pointerEvents=1;shadow=0;dashed=0;html=1;strokeColor=none;labelPosition=center;verticalLabelPosition=bottom;verticalAlign=top;align=center;shape=mxgraph.mscae.intune.certificate;fillColor=#4D4D4D;" parent="ibhNdLfUEIW59064bE3n-1" vertex="1">
          <mxGeometry x="-517" y="972.75" width="36" height="33" as="geometry" />
        </mxCell>
      </root>
    </mxGraphModel>
  </diagram>
  <diagram id="5Fmu6zXjDX7MTk4scGhK" name="SCCM">
    <mxGraphModel dx="1820" dy="1229" grid="0" gridSize="10" guides="1" tooltips="1" connect="1" arrows="1" fold="1" page="0" pageScale="1" pageWidth="827" pageHeight="1169" math="0" shadow="0">
      <root>
        <mxCell id="0" />
        <mxCell id="1" parent="0" />
        <mxCell id="-cMrBRrOo43V3L6c_L9D-1" value="&lt;b&gt;&lt;font style=&quot;font-size: 15px&quot;&gt;sccm.lab&lt;/font&gt;&lt;/b&gt;" style="shape=trapezoid;perimeter=trapezoidPerimeter;whiteSpace=wrap;html=1;fixedSize=1;size=413;verticalAlign=top;labelPosition=center;verticalLabelPosition=bottom;align=center;" parent="1" vertex="1">
          <mxGeometry x="-82" y="-156" width="795" height="632" as="geometry" />
        </mxCell>
        <mxCell id="wClVH2f3CPv0mlrVxY7P-1" value="DC01 - DC&lt;br&gt;192.168.33.10&lt;br&gt;Windows Server 2019" style="verticalLabelPosition=bottom;aspect=fixed;html=1;verticalAlign=top;strokeColor=none;align=center;outlineConnect=0;shape=mxgraph.citrix.directory_server;" parent="1" vertex="1">
          <mxGeometry x="280" y="-60" width="65" height="88.5" as="geometry" />
        </mxCell>
        <mxCell id="Nx6w0CP2zdftJbeglLQY-1" value="SRV02 - MSSQL&lt;br&gt;192.168.33.12" style="verticalLabelPosition=bottom;sketch=0;aspect=fixed;html=1;verticalAlign=top;strokeColor=none;align=center;outlineConnect=0;shape=mxgraph.citrix.database_server;" parent="1" vertex="1">
          <mxGeometry x="418" y="157" width="80" height="90" as="geometry" />
        </mxCell>
        <mxCell id="PfPSYwqrvPUSQhVeJnLr-2" style="edgeStyle=orthogonalEdgeStyle;rounded=0;orthogonalLoop=1;jettySize=auto;html=1;fillColor=#e1d5e7;strokeColor=#9673a6;" parent="1" source="Nx6w0CP2zdftJbeglLQY-2" target="Nx6w0CP2zdftJbeglLQY-1" edge="1">
          <mxGeometry relative="1" as="geometry" />
        </mxCell>
        <mxCell id="PfPSYwqrvPUSQhVeJnLr-3" value="MSSQL admin" style="edgeLabel;html=1;align=center;verticalAlign=middle;resizable=0;points=[];" parent="PfPSYwqrvPUSQhVeJnLr-2" vertex="1" connectable="0">
          <mxGeometry x="0.0115" relative="1" as="geometry">
            <mxPoint y="1" as="offset" />
          </mxGeometry>
        </mxCell>
        <mxCell id="PAPQaRPaCYzOrS8wp5Yi-1" style="edgeStyle=orthogonalEdgeStyle;rounded=0;orthogonalLoop=1;jettySize=auto;html=1;fillColor=#f8cecc;strokeColor=#b85450;" parent="1" source="Nx6w0CP2zdftJbeglLQY-2" target="Nx6w0CP2zdftJbeglLQY-1" edge="1">
          <mxGeometry relative="1" as="geometry">
            <Array as="points">
              <mxPoint x="380" y="219" />
              <mxPoint x="380" y="219" />
            </Array>
          </mxGeometry>
        </mxCell>
        <mxCell id="PAPQaRPaCYzOrS8wp5Yi-2" value="admin" style="edgeLabel;html=1;align=center;verticalAlign=middle;resizable=0;points=[];" parent="PAPQaRPaCYzOrS8wp5Yi-1" vertex="1" connectable="0">
          <mxGeometry x="-0.3103" y="-3" relative="1" as="geometry">
            <mxPoint x="20" y="-3" as="offset" />
          </mxGeometry>
        </mxCell>
        <mxCell id="Nx6w0CP2zdftJbeglLQY-2" value="SRV01 - MECM&lt;br&gt;192.168.33.11" style="verticalLabelPosition=bottom;sketch=0;aspect=fixed;html=1;verticalAlign=top;strokeColor=none;align=center;outlineConnect=0;shape=mxgraph.citrix.provisioning_server;" parent="1" vertex="1">
          <mxGeometry x="168" y="152" width="76" height="87" as="geometry" />
        </mxCell>
        <mxCell id="Nx6w0CP2zdftJbeglLQY-3" value="SRV03 - CLIENT&lt;br&gt;192.168.33.13" style="verticalLabelPosition=bottom;sketch=0;aspect=fixed;html=1;verticalAlign=top;strokeColor=none;align=center;outlineConnect=0;shape=mxgraph.citrix.license_server;" parent="1" vertex="1">
          <mxGeometry x="173.5" y="342" width="65" height="85" as="geometry" />
        </mxCell>
        <mxCell id="0tjeYlOwl9KDQIz52GVy-2" value="" style="group" parent="1" vertex="1" connectable="0">
          <mxGeometry x="-180" y="57" width="50" height="48.5" as="geometry" />
        </mxCell>
        <mxCell id="0tjeYlOwl9KDQIz52GVy-3" value="&lt;div style=&quot;font-family: &amp;quot;droid sans mono&amp;quot; , monospace , monospace ; font-size: 13px ; line-height: 18px&quot;&gt;&lt;/div&gt;&lt;font color=&quot;#000000&quot; face=&quot;droid sans mono, monospace, monospace&quot;&gt;SCCMLAB\&lt;span style=&quot;background-color: rgb(255, 255, 255);&quot;&gt;sccm-client-push&lt;br&gt;&lt;/span&gt;&lt;/font&gt;" style="outlineConnect=0;dashed=0;verticalLabelPosition=bottom;verticalAlign=top;align=center;html=1;fontSize=12;fontStyle=0;aspect=fixed;pointerEvents=1;shape=mxgraph.aws4.user;fontColor=#ffffff;fillColor=#000000;" parent="0tjeYlOwl9KDQIz52GVy-2" vertex="1">
          <mxGeometry width="40" height="40" as="geometry" />
        </mxCell>
        <mxCell id="1OzOy56ckMpf-Uvk0Feb-1" value="admin" style="edgeStyle=none;rounded=0;orthogonalLoop=1;jettySize=auto;html=1;fillColor=#f8cecc;strokeColor=#b85450;exitX=1;exitY=1;exitDx=0;exitDy=0;exitPerimeter=0;" parent="1" source="0eVN6QHYZKvb7z_CHyIJ-1" target="Nx6w0CP2zdftJbeglLQY-1" edge="1">
          <mxGeometry x="-0.5728" y="6" relative="1" as="geometry">
            <mxPoint x="-192" y="35" as="sourcePoint" />
            <mxPoint x="227" y="109" as="targetPoint" />
            <mxPoint as="offset" />
          </mxGeometry>
        </mxCell>
        <mxCell id="1OzOy56ckMpf-Uvk0Feb-3" value="admin" style="edgeStyle=none;rounded=0;orthogonalLoop=1;jettySize=auto;html=1;fillColor=#f8cecc;strokeColor=#b85450;exitX=1;exitY=1;exitDx=0;exitDy=0;exitPerimeter=0;" parent="1" source="0eVN6QHYZKvb7z_CHyIJ-1" target="Nx6w0CP2zdftJbeglLQY-2" edge="1">
          <mxGeometry relative="1" as="geometry">
            <mxPoint x="-182" y="45" as="sourcePoint" />
            <mxPoint x="237" y="119" as="targetPoint" />
          </mxGeometry>
        </mxCell>
        <mxCell id="1OzOy56ckMpf-Uvk0Feb-5" value="admin" style="edgeStyle=none;rounded=0;orthogonalLoop=1;jettySize=auto;html=1;fillColor=#f8cecc;strokeColor=#b85450;exitX=1;exitY=1;exitDx=0;exitDy=0;exitPerimeter=0;" parent="1" source="0eVN6QHYZKvb7z_CHyIJ-1" target="Nx6w0CP2zdftJbeglLQY-3" edge="1">
          <mxGeometry x="-0.5827" y="-8" relative="1" as="geometry">
            <mxPoint x="-30" y="56" as="sourcePoint" />
            <mxPoint x="178" y="182" as="targetPoint" />
            <mxPoint as="offset" />
          </mxGeometry>
        </mxCell>
        <mxCell id="1OzOy56ckMpf-Uvk0Feb-6" value="" style="group" parent="1" vertex="1" connectable="0">
          <mxGeometry x="341" y="383" width="50" height="48.5" as="geometry" />
        </mxCell>
        <mxCell id="1OzOy56ckMpf-Uvk0Feb-7" value="&lt;div style=&quot;font-family: &amp;quot;droid sans mono&amp;quot; , monospace , monospace ; font-size: 13px ; line-height: 18px&quot;&gt;&lt;/div&gt;&lt;font color=&quot;#000000&quot; face=&quot;droid sans mono, monospace, monospace&quot;&gt;&lt;span style=&quot;font-size: 13px ; background-color: rgb(255 , 255 , 255)&quot;&gt;SCCMLAB\sccm-naa&lt;br&gt;&lt;/span&gt;&lt;/font&gt;" style="outlineConnect=0;dashed=0;verticalLabelPosition=bottom;verticalAlign=top;align=center;html=1;fontSize=12;fontStyle=0;aspect=fixed;pointerEvents=1;shape=mxgraph.aws4.user;fontColor=#ffffff;fillColor=#000000;" parent="1OzOy56ckMpf-Uvk0Feb-6" vertex="1">
          <mxGeometry width="40" height="40" as="geometry" />
        </mxCell>
        <mxCell id="PfPSYwqrvPUSQhVeJnLr-1" style="rounded=0;orthogonalLoop=1;jettySize=auto;html=1;dashed=1;" parent="1" source="1OzOy56ckMpf-Uvk0Feb-7" target="Nx6w0CP2zdftJbeglLQY-3" edge="1">
          <mxGeometry relative="1" as="geometry" />
        </mxCell>
        <mxCell id="JlQ3OSYZGhX8gJkUaBln-4" value="" style="group" parent="1" vertex="1" connectable="0">
          <mxGeometry x="688" y="80" width="50" height="48.5" as="geometry" />
        </mxCell>
        <mxCell id="JlQ3OSYZGhX8gJkUaBln-5" value="&lt;div style=&quot;font-family: &amp;quot;droid sans mono&amp;quot; , monospace , monospace ; font-size: 13px ; line-height: 18px&quot;&gt;&lt;/div&gt;&lt;font color=&quot;#000000&quot; face=&quot;droid sans mono, monospace, monospace&quot;&gt;&lt;span style=&quot;font-size: 13px ; background-color: rgb(255 , 255 , 255)&quot;&gt;SCCMLAB\sccm-sql&lt;br&gt;&lt;/span&gt;&lt;/font&gt;" style="outlineConnect=0;dashed=0;verticalLabelPosition=bottom;verticalAlign=top;align=center;html=1;fontSize=12;fontStyle=0;aspect=fixed;pointerEvents=1;shape=mxgraph.aws4.user;fontColor=#ffffff;fillColor=#000000;" parent="JlQ3OSYZGhX8gJkUaBln-4" vertex="1">
          <mxGeometry width="40" height="40" as="geometry" />
        </mxCell>
        <mxCell id="JlQ3OSYZGhX8gJkUaBln-6" style="rounded=0;orthogonalLoop=1;jettySize=auto;html=1;fillColor=#f8cecc;strokeColor=#b85450;" parent="1" source="JlQ3OSYZGhX8gJkUaBln-5" target="Nx6w0CP2zdftJbeglLQY-1" edge="1">
          <mxGeometry relative="1" as="geometry" />
        </mxCell>
        <mxCell id="JlQ3OSYZGhX8gJkUaBln-7" value="admin" style="edgeLabel;html=1;align=center;verticalAlign=middle;resizable=0;points=[];" parent="JlQ3OSYZGhX8gJkUaBln-6" vertex="1" connectable="0">
          <mxGeometry x="-0.1302" y="4" relative="1" as="geometry">
            <mxPoint y="1" as="offset" />
          </mxGeometry>
        </mxCell>
        <mxCell id="JlQ3OSYZGhX8gJkUaBln-8" style="rounded=0;orthogonalLoop=1;jettySize=auto;html=1;fillColor=#e1d5e7;strokeColor=#9673a6;" parent="1" edge="1">
          <mxGeometry relative="1" as="geometry">
            <mxPoint x="698.818181818182" y="123.3654545454546" as="sourcePoint" />
            <mxPoint x="507" y="196.64000000000004" as="targetPoint" />
          </mxGeometry>
        </mxCell>
        <mxCell id="JlQ3OSYZGhX8gJkUaBln-9" value="MSSQL admin" style="edgeLabel;html=1;align=center;verticalAlign=middle;resizable=0;points=[];" parent="JlQ3OSYZGhX8gJkUaBln-8" vertex="1" connectable="0">
          <mxGeometry x="0.0115" relative="1" as="geometry">
            <mxPoint y="1" as="offset" />
          </mxGeometry>
        </mxCell>
        <mxCell id="PAPQaRPaCYzOrS8wp5Yi-3" value="" style="group" parent="1" vertex="1" connectable="0">
          <mxGeometry x="-33" y="-156" width="50" height="48.5" as="geometry" />
        </mxCell>
        <mxCell id="PAPQaRPaCYzOrS8wp5Yi-4" value="&lt;div style=&quot;font-family: &amp;quot;droid sans mono&amp;quot; , monospace , monospace ; font-size: 13px ; line-height: 18px&quot;&gt;&lt;/div&gt;&lt;font color=&quot;#000000&quot; face=&quot;droid sans mono, monospace, monospace&quot;&gt;SCCMLAB\&lt;span style=&quot;background-color: rgb(255, 255, 255);&quot;&gt;sccm-account-da&lt;br&gt;&lt;/span&gt;&lt;/font&gt;" style="outlineConnect=0;dashed=0;verticalLabelPosition=bottom;verticalAlign=top;align=center;html=1;fontSize=12;fontStyle=0;aspect=fixed;pointerEvents=1;shape=mxgraph.aws4.user;fontColor=#ffffff;fillColor=#000000;" parent="PAPQaRPaCYzOrS8wp5Yi-3" vertex="1">
          <mxGeometry width="40" height="40" as="geometry" />
        </mxCell>
        <mxCell id="PAPQaRPaCYzOrS8wp5Yi-5" style="rounded=0;orthogonalLoop=1;jettySize=auto;html=1;fillColor=#f8cecc;strokeColor=#b85450;exitX=0.96;exitY=0.65;exitDx=0;exitDy=0;exitPerimeter=0;" parent="1" source="0eVN6QHYZKvb7z_CHyIJ-4" target="wClVH2f3CPv0mlrVxY7P-1" edge="1">
          <mxGeometry relative="1" as="geometry" />
        </mxCell>
        <mxCell id="PAPQaRPaCYzOrS8wp5Yi-6" value="admin" style="edgeLabel;html=1;align=center;verticalAlign=middle;resizable=0;points=[];" parent="PAPQaRPaCYzOrS8wp5Yi-5" vertex="1" connectable="0">
          <mxGeometry x="0.1829" relative="1" as="geometry">
            <mxPoint x="-9" y="-3" as="offset" />
          </mxGeometry>
        </mxCell>
        <mxCell id="PAPQaRPaCYzOrS8wp5Yi-7" value="" style="group" parent="1" vertex="1" connectable="0">
          <mxGeometry x="-350" y="313.5" width="50" height="48.5" as="geometry" />
        </mxCell>
        <mxCell id="PAPQaRPaCYzOrS8wp5Yi-8" value="&lt;div style=&quot;font-family: &amp;quot;droid sans mono&amp;quot; , monospace , monospace ; font-size: 13px ; line-height: 18px&quot;&gt;&lt;/div&gt;&lt;font color=&quot;#000000&quot; face=&quot;droid sans mono, monospace, monospace&quot;&gt;&lt;span style=&quot;font-size: 13px ; background-color: rgb(255 , 255 , 255)&quot;&gt;SCCMLAB\carol&lt;br&gt;&lt;/span&gt;&lt;/font&gt;" style="outlineConnect=0;dashed=0;verticalLabelPosition=bottom;verticalAlign=top;align=center;html=1;fontSize=12;fontStyle=0;aspect=fixed;pointerEvents=1;shape=mxgraph.aws4.user;fontColor=#ffffff;fillColor=#000000;" parent="PAPQaRPaCYzOrS8wp5Yi-7" vertex="1">
          <mxGeometry width="40" height="40" as="geometry" />
        </mxCell>
        <mxCell id="PAPQaRPaCYzOrS8wp5Yi-9" value="" style="group" parent="1" vertex="1" connectable="0">
          <mxGeometry x="-296" y="182" width="50" height="48.5" as="geometry" />
        </mxCell>
        <mxCell id="PAPQaRPaCYzOrS8wp5Yi-10" value="&lt;div style=&quot;font-family: &amp;quot;droid sans mono&amp;quot; , monospace , monospace ; font-size: 13px ; line-height: 18px&quot;&gt;&lt;/div&gt;&lt;font color=&quot;#000000&quot; face=&quot;droid sans mono, monospace, monospace&quot;&gt;&lt;span style=&quot;font-size: 13px ; background-color: rgb(255 , 255 , 255)&quot;&gt;SCCMLAB\dave&lt;br&gt;&lt;/span&gt;&lt;/font&gt;" style="outlineConnect=0;dashed=0;verticalLabelPosition=bottom;verticalAlign=top;align=center;html=1;fontSize=12;fontStyle=0;aspect=fixed;pointerEvents=1;shape=mxgraph.aws4.user;fontColor=#ffffff;fillColor=#000000;" parent="PAPQaRPaCYzOrS8wp5Yi-9" vertex="1">
          <mxGeometry width="40" height="40" as="geometry" />
        </mxCell>
        <mxCell id="PAPQaRPaCYzOrS8wp5Yi-11" value="" style="group" parent="1" vertex="1" connectable="0">
          <mxGeometry x="-177" y="-62" width="50" height="48.5" as="geometry" />
        </mxCell>
        <mxCell id="PAPQaRPaCYzOrS8wp5Yi-12" value="&lt;div style=&quot;font-family: &amp;quot;droid sans mono&amp;quot; , monospace , monospace ; font-size: 13px ; line-height: 18px&quot;&gt;&lt;/div&gt;&lt;font color=&quot;#000000&quot; face=&quot;droid sans mono, monospace, monospace&quot;&gt;&lt;span style=&quot;font-size: 13px ; background-color: rgb(255 , 255 , 255)&quot;&gt;SCCMLAB\bob&lt;br&gt;&lt;/span&gt;&lt;/font&gt;" style="outlineConnect=0;dashed=0;verticalLabelPosition=bottom;verticalAlign=top;align=center;html=1;fontSize=12;fontStyle=0;aspect=fixed;pointerEvents=1;shape=mxgraph.aws4.user;fontColor=#ffffff;fillColor=#000000;" parent="PAPQaRPaCYzOrS8wp5Yi-11" vertex="1">
          <mxGeometry width="40" height="40" as="geometry" />
        </mxCell>
        <mxCell id="PAPQaRPaCYzOrS8wp5Yi-13" value="" style="group" parent="1" vertex="1" connectable="0">
          <mxGeometry x="83" y="-219" width="50" height="48.5" as="geometry" />
        </mxCell>
        <mxCell id="PAPQaRPaCYzOrS8wp5Yi-14" value="&lt;div style=&quot;font-family: &amp;quot;droid sans mono&amp;quot; , monospace , monospace ; font-size: 13px ; line-height: 18px&quot;&gt;&lt;/div&gt;&lt;font color=&quot;#000000&quot; face=&quot;droid sans mono, monospace, monospace&quot;&gt;&lt;span style=&quot;font-size: 13px ; background-color: rgb(255 , 255 , 255)&quot;&gt;SCCMLAB\alice&lt;br&gt;&lt;/span&gt;&lt;/font&gt;" style="outlineConnect=0;dashed=0;verticalLabelPosition=bottom;verticalAlign=top;align=center;html=1;fontSize=12;fontStyle=0;aspect=fixed;pointerEvents=1;shape=mxgraph.aws4.user;fontColor=#ffffff;fillColor=#000000;" parent="PAPQaRPaCYzOrS8wp5Yi-13" vertex="1">
          <mxGeometry width="40" height="40" as="geometry" />
        </mxCell>
        <mxCell id="0eVN6QHYZKvb7z_CHyIJ-11" style="rounded=0;orthogonalLoop=1;jettySize=auto;html=1;fillColor=#d5e8d4;strokeColor=#82b366;" parent="1" source="0eVN6QHYZKvb7z_CHyIJ-1" target="wClVH2f3CPv0mlrVxY7P-1" edge="1">
          <mxGeometry relative="1" as="geometry" />
        </mxCell>
        <mxCell id="0eVN6QHYZKvb7z_CHyIJ-12" value="RDP" style="edgeLabel;html=1;align=center;verticalAlign=middle;resizable=0;points=[];" parent="0eVN6QHYZKvb7z_CHyIJ-11" vertex="1" connectable="0">
          <mxGeometry x="-0.1033" y="-2" relative="1" as="geometry">
            <mxPoint as="offset" />
          </mxGeometry>
        </mxCell>
        <mxCell id="0eVN6QHYZKvb7z_CHyIJ-1" value="Local admins" style="pointerEvents=1;shadow=0;dashed=0;html=1;strokeColor=none;labelPosition=center;verticalLabelPosition=bottom;verticalAlign=top;align=center;fillColor=#505050;shape=mxgraph.mscae.intune.user_group" parent="1" vertex="1">
          <mxGeometry x="-7" y="31" width="50" height="37" as="geometry" />
        </mxCell>
        <mxCell id="0eVN6QHYZKvb7z_CHyIJ-2" style="rounded=0;orthogonalLoop=1;jettySize=auto;html=1;entryX=-0.08;entryY=0.635;entryDx=0;entryDy=0;entryPerimeter=0;" parent="1" source="0tjeYlOwl9KDQIz52GVy-3" target="0eVN6QHYZKvb7z_CHyIJ-1" edge="1">
          <mxGeometry relative="1" as="geometry">
            <mxPoint x="-142" y="105" as="sourcePoint" />
          </mxGeometry>
        </mxCell>
        <mxCell id="0eVN6QHYZKvb7z_CHyIJ-3" style="rounded=0;orthogonalLoop=1;jettySize=auto;html=1;entryX=0.17;entryY=0.1;entryDx=0;entryDy=0;entryPerimeter=0;" parent="1" source="PAPQaRPaCYzOrS8wp5Yi-12" target="0eVN6QHYZKvb7z_CHyIJ-1" edge="1">
          <mxGeometry relative="1" as="geometry" />
        </mxCell>
        <mxCell id="0eVN6QHYZKvb7z_CHyIJ-4" value="DA" style="pointerEvents=1;shadow=0;dashed=0;html=1;strokeColor=none;labelPosition=center;verticalLabelPosition=bottom;verticalAlign=top;align=center;fillColor=#505050;shape=mxgraph.mscae.intune.user_group" parent="1" vertex="1">
          <mxGeometry x="106" y="-113" width="50" height="37" as="geometry" />
        </mxCell>
        <mxCell id="0eVN6QHYZKvb7z_CHyIJ-5" style="rounded=0;orthogonalLoop=1;jettySize=auto;html=1;entryX=0.05;entryY=0.5;entryDx=0;entryDy=0;entryPerimeter=0;" parent="1" source="PAPQaRPaCYzOrS8wp5Yi-4" target="0eVN6QHYZKvb7z_CHyIJ-4" edge="1">
          <mxGeometry relative="1" as="geometry" />
        </mxCell>
        <mxCell id="0eVN6QHYZKvb7z_CHyIJ-6" style="rounded=0;orthogonalLoop=1;jettySize=auto;html=1;entryX=0.64;entryY=0.108;entryDx=0;entryDy=0;entryPerimeter=0;" parent="1" source="PAPQaRPaCYzOrS8wp5Yi-14" target="0eVN6QHYZKvb7z_CHyIJ-4" edge="1">
          <mxGeometry relative="1" as="geometry" />
        </mxCell>
        <mxCell id="0eVN6QHYZKvb7z_CHyIJ-8" style="rounded=0;orthogonalLoop=1;jettySize=auto;html=1;fillColor=#d5e8d4;strokeColor=#82b366;" parent="1" source="0eVN6QHYZKvb7z_CHyIJ-7" target="Nx6w0CP2zdftJbeglLQY-3" edge="1">
          <mxGeometry relative="1" as="geometry" />
        </mxCell>
        <mxCell id="0eVN6QHYZKvb7z_CHyIJ-10" value="RDP" style="edgeLabel;html=1;align=center;verticalAlign=middle;resizable=0;points=[];" parent="0eVN6QHYZKvb7z_CHyIJ-8" vertex="1" connectable="0">
          <mxGeometry x="0.0815" y="-4" relative="1" as="geometry">
            <mxPoint as="offset" />
          </mxGeometry>
        </mxCell>
        <mxCell id="0eVN6QHYZKvb7z_CHyIJ-14" style="rounded=0;orthogonalLoop=1;jettySize=auto;html=1;fillColor=#d5e8d4;strokeColor=#82b366;" parent="1" source="0eVN6QHYZKvb7z_CHyIJ-7" target="Nx6w0CP2zdftJbeglLQY-2" edge="1">
          <mxGeometry relative="1" as="geometry" />
        </mxCell>
        <mxCell id="0eVN6QHYZKvb7z_CHyIJ-15" value="RDP" style="edgeLabel;html=1;align=center;verticalAlign=middle;resizable=0;points=[];" parent="0eVN6QHYZKvb7z_CHyIJ-14" vertex="1" connectable="0">
          <mxGeometry x="-0.1369" y="2" relative="1" as="geometry">
            <mxPoint as="offset" />
          </mxGeometry>
        </mxCell>
        <mxCell id="0eVN6QHYZKvb7z_CHyIJ-16" style="rounded=0;orthogonalLoop=1;jettySize=auto;html=1;fillColor=#d5e8d4;strokeColor=#82b366;" parent="1" source="0eVN6QHYZKvb7z_CHyIJ-7" target="Nx6w0CP2zdftJbeglLQY-1" edge="1">
          <mxGeometry relative="1" as="geometry" />
        </mxCell>
        <mxCell id="0eVN6QHYZKvb7z_CHyIJ-17" value="RDP" style="edgeLabel;html=1;align=center;verticalAlign=middle;resizable=0;points=[];" parent="0eVN6QHYZKvb7z_CHyIJ-16" vertex="1" connectable="0">
          <mxGeometry x="-0.177" y="-2" relative="1" as="geometry">
            <mxPoint as="offset" />
          </mxGeometry>
        </mxCell>
        <mxCell id="0eVN6QHYZKvb7z_CHyIJ-7" value="RDPUsers" style="pointerEvents=1;shadow=0;dashed=0;html=1;strokeColor=none;labelPosition=center;verticalLabelPosition=bottom;verticalAlign=top;align=center;fillColor=#505050;shape=mxgraph.mscae.intune.user_group" parent="1" vertex="1">
          <mxGeometry x="-165" y="371" width="50" height="37" as="geometry" />
        </mxCell>
        <mxCell id="0eVN6QHYZKvb7z_CHyIJ-9" style="rounded=0;orthogonalLoop=1;jettySize=auto;html=1;entryX=0.05;entryY=0.5;entryDx=0;entryDy=0;entryPerimeter=0;" parent="1" source="PAPQaRPaCYzOrS8wp5Yi-8" target="0eVN6QHYZKvb7z_CHyIJ-7" edge="1">
          <mxGeometry relative="1" as="geometry" />
        </mxCell>
        <mxCell id="0eVN6QHYZKvb7z_CHyIJ-21" style="edgeStyle=orthogonalEdgeStyle;rounded=0;orthogonalLoop=1;jettySize=auto;html=1;fillColor=#ffe6cc;strokeColor=#d79b00;" parent="1" source="0eVN6QHYZKvb7z_CHyIJ-19" target="Nx6w0CP2zdftJbeglLQY-2" edge="1">
          <mxGeometry relative="1" as="geometry" />
        </mxCell>
        <mxCell id="0eVN6QHYZKvb7z_CHyIJ-22" value="sccm admin" style="edgeLabel;html=1;align=center;verticalAlign=middle;resizable=0;points=[];" parent="0eVN6QHYZKvb7z_CHyIJ-21" vertex="1" connectable="0">
          <mxGeometry x="-0.2275" y="-2" relative="1" as="geometry">
            <mxPoint y="1" as="offset" />
          </mxGeometry>
        </mxCell>
        <mxCell id="0eVN6QHYZKvb7z_CHyIJ-19" value="SCCM-Admins" style="pointerEvents=1;shadow=0;dashed=0;html=1;strokeColor=none;labelPosition=center;verticalLabelPosition=bottom;verticalAlign=top;align=center;fillColor=#505050;shape=mxgraph.mscae.intune.user_group" parent="1" vertex="1">
          <mxGeometry x="-115" y="177" width="50" height="37" as="geometry" />
        </mxCell>
        <mxCell id="0eVN6QHYZKvb7z_CHyIJ-20" style="edgeStyle=orthogonalEdgeStyle;rounded=0;orthogonalLoop=1;jettySize=auto;html=1;" parent="1" source="PAPQaRPaCYzOrS8wp5Yi-10" edge="1">
          <mxGeometry relative="1" as="geometry">
            <mxPoint x="-114" y="202" as="targetPoint" />
          </mxGeometry>
        </mxCell>
        <mxCell id="pnlPePVU0Gljsn4cDSG_-4" style="rounded=0;orthogonalLoop=1;jettySize=auto;html=1;dashed=1;dashPattern=1 2;" edge="1" parent="1" source="pnlPePVU0Gljsn4cDSG_-3" target="Nx6w0CP2zdftJbeglLQY-2">
          <mxGeometry relative="1" as="geometry" />
        </mxCell>
        <mxCell id="pnlPePVU0Gljsn4cDSG_-5" value="PXE" style="edgeLabel;html=1;align=center;verticalAlign=middle;resizable=0;points=[];" vertex="1" connectable="0" parent="pnlPePVU0Gljsn4cDSG_-4">
          <mxGeometry x="-0.145" y="1" relative="1" as="geometry">
            <mxPoint y="-1" as="offset" />
          </mxGeometry>
        </mxCell>
        <mxCell id="pnlPePVU0Gljsn4cDSG_-3" value="PXE Install" style="shadow=0;dashed=0;html=1;strokeColor=none;fillColor=#4495D1;labelPosition=center;verticalLabelPosition=bottom;verticalAlign=top;align=center;outlineConnect=0;shape=mxgraph.veeam.iso;" vertex="1" parent="1">
          <mxGeometry x="489" y="362" width="36.8" height="50.8" as="geometry" />
        </mxCell>
        <mxCell id="pnlPePVU0Gljsn4cDSG_-6" style="rounded=0;orthogonalLoop=1;jettySize=auto;html=1;dashed=1;" edge="1" parent="1" source="1OzOy56ckMpf-Uvk0Feb-7" target="pnlPePVU0Gljsn4cDSG_-3">
          <mxGeometry relative="1" as="geometry" />
        </mxCell>
        <mxCell id="pnlPePVU0Gljsn4cDSG_-7" value="" style="group" vertex="1" connectable="0" parent="1">
          <mxGeometry x="-187" y="476" width="50" height="48.5" as="geometry" />
        </mxCell>
        <mxCell id="pnlPePVU0Gljsn4cDSG_-8" value="&lt;div style=&quot;font-family: &amp;quot;droid sans mono&amp;quot; , monospace , monospace ; font-size: 13px ; line-height: 18px&quot;&gt;&lt;/div&gt;&lt;font color=&quot;#000000&quot; face=&quot;droid sans mono, monospace, monospace&quot;&gt;&lt;span style=&quot;font-size: 13px ; background-color: rgb(255 , 255 , 255)&quot;&gt;SCCMLAB\eve&lt;br&gt;&lt;/span&gt;&lt;/font&gt;" style="outlineConnect=0;dashed=0;verticalLabelPosition=bottom;verticalAlign=top;align=center;html=1;fontSize=12;fontStyle=0;aspect=fixed;pointerEvents=1;shape=mxgraph.aws4.user;fontColor=#ffffff;fillColor=#000000;" vertex="1" parent="pnlPePVU0Gljsn4cDSG_-7">
          <mxGeometry width="40" height="40" as="geometry" />
        </mxCell>
        <mxCell id="pnlPePVU0Gljsn4cDSG_-9" style="rounded=0;orthogonalLoop=1;jettySize=auto;html=1;entryX=0.5;entryY=1;entryDx=0;entryDy=0;entryPerimeter=0;" edge="1" parent="1" source="pnlPePVU0Gljsn4cDSG_-8" target="0eVN6QHYZKvb7z_CHyIJ-7">
          <mxGeometry relative="1" as="geometry" />
        </mxCell>
        <mxCell id="pnlPePVU0Gljsn4cDSG_-10" style="rounded=0;orthogonalLoop=1;jettySize=auto;html=1;fillColor=#f8cecc;strokeColor=#b85450;" edge="1" parent="1" source="pnlPePVU0Gljsn4cDSG_-8" target="Nx6w0CP2zdftJbeglLQY-3">
          <mxGeometry relative="1" as="geometry" />
        </mxCell>
        <mxCell id="pnlPePVU0Gljsn4cDSG_-11" value="admin" style="edgeLabel;html=1;align=center;verticalAlign=middle;resizable=0;points=[];" vertex="1" connectable="0" parent="pnlPePVU0Gljsn4cDSG_-10">
          <mxGeometry x="-0.0779" y="-2" relative="1" as="geometry">
            <mxPoint as="offset" />
          </mxGeometry>
        </mxCell>
        <mxCell id="pnlPePVU0Gljsn4cDSG_-12" value="" style="group" vertex="1" connectable="0" parent="1">
          <mxGeometry x="-352" y="424" width="50" height="48.5" as="geometry" />
        </mxCell>
        <mxCell id="pnlPePVU0Gljsn4cDSG_-13" value="&lt;div style=&quot;font-family: &amp;quot;droid sans mono&amp;quot; , monospace , monospace ; font-size: 13px ; line-height: 18px&quot;&gt;&lt;/div&gt;&lt;font color=&quot;#000000&quot; face=&quot;droid sans mono, monospace, monospace&quot;&gt;&lt;span style=&quot;font-size: 13px ; background-color: rgb(255 , 255 , 255)&quot;&gt;SCCMLAB\franck&lt;br&gt;&lt;/span&gt;&lt;/font&gt;" style="outlineConnect=0;dashed=0;verticalLabelPosition=bottom;verticalAlign=top;align=center;html=1;fontSize=12;fontStyle=0;aspect=fixed;pointerEvents=1;shape=mxgraph.aws4.user;fontColor=#ffffff;fillColor=#000000;" vertex="1" parent="pnlPePVU0Gljsn4cDSG_-12">
          <mxGeometry width="40" height="40" as="geometry" />
        </mxCell>
        <mxCell id="pnlPePVU0Gljsn4cDSG_-14" style="rounded=0;orthogonalLoop=1;jettySize=auto;html=1;entryX=0;entryY=0.87;entryDx=0;entryDy=0;entryPerimeter=0;" edge="1" parent="1" source="pnlPePVU0Gljsn4cDSG_-13" target="0eVN6QHYZKvb7z_CHyIJ-7">
          <mxGeometry relative="1" as="geometry" />
        </mxCell>
        <mxCell id="pnlPePVU0Gljsn4cDSG_-15" style="rounded=0;orthogonalLoop=1;jettySize=auto;html=1;entryX=0.5;entryY=0;entryDx=0;entryDy=0;entryPerimeter=0;" edge="1" parent="1" source="PAPQaRPaCYzOrS8wp5Yi-10" target="0eVN6QHYZKvb7z_CHyIJ-7">
          <mxGeometry relative="1" as="geometry" />
        </mxCell>
      </root>
    </mxGraphModel>
  </diagram>
  <diagram id="-13wW_DFcivJ_bPDtF7e" name="SCCM-compromission-Path">
    <mxGraphModel dx="2620" dy="829" grid="0" gridSize="10" guides="1" tooltips="1" connect="1" arrows="1" fold="1" page="0" pageScale="1" pageWidth="827" pageHeight="1169" math="0" shadow="0">
      <root>
        <mxCell id="0" />
        <mxCell id="1" parent="0" />
        <mxCell id="t2xfx60HDOkXAkyNBn7F-3" style="edgeStyle=orthogonalEdgeStyle;rounded=0;orthogonalLoop=1;jettySize=auto;html=1;" parent="1" source="1EH7xiGUEg0alZVfYMWe-1" target="t2xfx60HDOkXAkyNBn7F-2" edge="1">
          <mxGeometry relative="1" as="geometry" />
        </mxCell>
        <mxCell id="t2xfx60HDOkXAkyNBn7F-4" value="PXE" style="edgeLabel;html=1;align=center;verticalAlign=middle;resizable=0;points=[];" parent="t2xfx60HDOkXAkyNBn7F-3" vertex="1" connectable="0">
          <mxGeometry x="-0.2122" relative="1" as="geometry">
            <mxPoint as="offset" />
          </mxGeometry>
        </mxCell>
        <mxCell id="ul53hNKi_da_f6bb6Hds-2" style="edgeStyle=orthogonalEdgeStyle;rounded=0;orthogonalLoop=1;jettySize=auto;html=1;" edge="1" parent="1" source="1EH7xiGUEg0alZVfYMWe-1" target="ul53hNKi_da_f6bb6Hds-1">
          <mxGeometry relative="1" as="geometry">
            <Array as="points">
              <mxPoint x="-904" y="498" />
            </Array>
          </mxGeometry>
        </mxCell>
        <mxCell id="ul53hNKi_da_f6bb6Hds-3" value="PXE / get image" style="edgeLabel;html=1;align=center;verticalAlign=middle;resizable=0;points=[];" vertex="1" connectable="0" parent="ul53hNKi_da_f6bb6Hds-2">
          <mxGeometry x="0.2" y="1" relative="1" as="geometry">
            <mxPoint as="offset" />
          </mxGeometry>
        </mxCell>
        <mxCell id="1EH7xiGUEg0alZVfYMWe-1" value="&lt;font style=&quot;background-color: rgb(255, 255, 255);&quot; color=&quot;#000000&quot;&gt;Attacker&lt;/font&gt;" style="verticalLabelPosition=bottom;aspect=fixed;html=1;verticalAlign=top;strokeColor=none;align=center;outlineConnect=0;shape=mxgraph.citrix.laptop_2;fontSize=13;labelBackgroundColor=#000000;fontColor=#FFFFFF;" parent="1" vertex="1">
          <mxGeometry x="-962" y="364" width="116" height="86.5" as="geometry" />
        </mxCell>
        <mxCell id="t2xfx60HDOkXAkyNBn7F-1" value="" style="group" parent="1" vertex="1" connectable="0">
          <mxGeometry x="-672.6" y="388" width="50" height="48.5" as="geometry" />
        </mxCell>
        <mxCell id="t2xfx60HDOkXAkyNBn7F-2" value="&lt;div style=&quot;font-family: &amp;quot;droid sans mono&amp;quot; , monospace , monospace ; font-size: 13px ; line-height: 18px&quot;&gt;&lt;/div&gt;&lt;font color=&quot;#000000&quot; face=&quot;droid sans mono, monospace, monospace&quot;&gt;&lt;span style=&quot;font-size: 13px ; background-color: rgb(255 , 255 , 255)&quot;&gt;SCCMLAB\sccm-naa&lt;br&gt;&lt;/span&gt;&lt;/font&gt;" style="outlineConnect=0;dashed=0;verticalLabelPosition=bottom;verticalAlign=top;align=center;html=1;fontSize=12;fontStyle=0;aspect=fixed;pointerEvents=1;shape=mxgraph.aws4.user;fontColor=#ffffff;fillColor=#000000;" parent="t2xfx60HDOkXAkyNBn7F-1" vertex="1">
          <mxGeometry width="40" height="40" as="geometry" />
        </mxCell>
        <mxCell id="ul53hNKi_da_f6bb6Hds-5" style="edgeStyle=orthogonalEdgeStyle;rounded=0;orthogonalLoop=1;jettySize=auto;html=1;" edge="1" parent="1" source="ul53hNKi_da_f6bb6Hds-1" target="ul53hNKi_da_f6bb6Hds-4">
          <mxGeometry relative="1" as="geometry" />
        </mxCell>
        <mxCell id="ul53hNKi_da_f6bb6Hds-6" value="PTH" style="edgeLabel;html=1;align=center;verticalAlign=middle;resizable=0;points=[];" vertex="1" connectable="0" parent="ul53hNKi_da_f6bb6Hds-5">
          <mxGeometry x="-0.0767" y="1" relative="1" as="geometry">
            <mxPoint as="offset" />
          </mxGeometry>
        </mxCell>
        <mxCell id="ul53hNKi_da_f6bb6Hds-1" value="admin password" style="shadow=0;dashed=0;html=1;strokeColor=none;fillColor=#4495D1;labelPosition=center;verticalLabelPosition=bottom;verticalAlign=top;align=center;outlineConnect=0;shape=mxgraph.veeam.iso;" vertex="1" parent="1">
          <mxGeometry x="-666" y="479" width="36.8" height="50.8" as="geometry" />
        </mxCell>
        <mxCell id="ul53hNKi_da_f6bb6Hds-4" value="CLIENT" style="verticalLabelPosition=bottom;sketch=0;aspect=fixed;html=1;verticalAlign=top;strokeColor=none;align=center;outlineConnect=0;shape=mxgraph.citrix.tower_server;" vertex="1" parent="1">
          <mxGeometry x="-384" y="461.9" width="65" height="85" as="geometry" />
        </mxCell>
        <mxCell id="ul53hNKi_da_f6bb6Hds-7" value="MECM" style="verticalLabelPosition=bottom;sketch=0;aspect=fixed;html=1;verticalAlign=top;strokeColor=none;align=center;outlineConnect=0;shape=mxgraph.citrix.tower_server;" vertex="1" parent="1">
          <mxGeometry x="-126" y="461.9" width="65" height="85" as="geometry" />
        </mxCell>
      </root>
    </mxGraphModel>
  </diagram>
</mxfile>
